<svg xmlns="http://www.w3.org/2000/svg" viewBox="0 0 500 500"><path fill="#fff" d="M68.73 116.42h125.22v83.84H68.73z"/><path d="M194 200.26v-22.81c0-14.57-.05-35.51-.09-61l.18.18H68.88l.23-.22v83.84l-.21-.21 90.21.1 25.78.06h9.23-9.15l-25.72.05-90.35.1h-.2v-84.27h125.62v.18c0 25.57-.07 46.55-.1 61.14v21.21c0 1-.22 1.65-.22 1.65z" fill="#e0e0e0"/><path d="M68.73 123.9c0-.12 28-.23 62.56-.23s62.56.11 62.56.23-28 .22-62.56.22-62.56-.12-62.56-.22z" fill="#e0e0e0"/><path d="M73.67 120.12a1 1 0 11-1-1 1 1 0 011 1z" fill="#e0e0e0" opacity=".3"/><circle cx="76.11" cy="120.12" r="1" fill="#e0e0e0" opacity=".3"/><path d="M80.5 120.12a1 1 0 11-1-1 1 1 0 011 1z" fill="#e0e0e0" opacity=".3"/><path fill="#e0e0e0" d="M79.5 132.64h33.4v33.4H79.5zm97.28 9.44c0 .13-13 .23-29.09.23s-29.1-.1-29.1-.23 13-.22 29.1-.22 29.09.14 29.09.22zm0 6.21c0 .12-13 .22-29.09.22s-29.1-.1-29.1-.22 13-.22 29.1-.22 29.09.1 29.09.22zm0 6.21c0 .12-13 .22-29.09.22s-29.1-.1-29.1-.22 13-.23 29.1-.23 29.09.1 29.09.23zM153 160.7a6.93 6.93 0 01-1.35.09l-3.69.07c-3.11 0-7.41.07-12.15.07s-9 0-12.16-.07l-3.69-.07a6.93 6.93 0 01-1.35-.09 7.64 7.64 0 011.35-.08l3.69-.07c3.11-.05 7.41-.07 12.16-.07s9 0 12.15.07l3.69.07a7.64 7.64 0 011.35.08zm-71.41 16.6h15.7V193h-15.7zm28.47 0h15.7V193h-15.7zm28.46 0h15.7V193h-15.7zm28.47 0h15.7V193h-15.7z"/><path d="M428.09 143.67a15 15 0 01-2.66 2.79l.69 3.51-5.41 2.4-2.14-2.87a14.57 14.57 0 01-3.85.1l-2 3-5.53-2.13.52-3.54a14.09 14.09 0 01-2.79-2.66l-3.51.69-2.4-5.41 2.87-2.13a14.23 14.23 0 01-.1-3.86l-3-2L401 126l3.54.51a14.37 14.37 0 012.66-2.79l-.7-3.51 5.41-2.4 2.09 2.89a14.64 14.64 0 013.86-.1l2-3 5.52 2.13-.52 3.54a14.44 14.44 0 012.8 2.66l3.51-.69 2.4 5.41-2.87 2.13a14.23 14.23 0 01.09 3.86l3 2-2.12 5.52-3.54-.51zm-6-6a6.34 6.34 0 10-8.2 3.65 6.33 6.33 0 008.22-3.69z" fill="none"/><path d="M422.11 137.63a4.77 4.77 0 01-.68 1.42 6.43 6.43 0 01-6.42 2.69 6.42 6.42 0 01-3.09-1.48 6 6 0 01-1.23-1.41 6.14 6.14 0 01-.79-1.79 6.52 6.52 0 01.2-4.06 6.6 6.6 0 012.57-3.14 6.2 6.2 0 011.79-.79 6.28 6.28 0 011.86-.23 6.46 6.46 0 015.38 3.16 6.31 6.31 0 01.86 4.17 4.6 4.6 0 01-.45 1.5s.19-.53.31-1.52a6.37 6.37 0 00-.94-4 6.17 6.17 0 00-5.17-2.91 5.94 5.94 0 00-1.76.22 6.18 6.18 0 00-4.31 7.57 5.85 5.85 0 00.75 1.69 5.79 5.79 0 001.15 1.35 6.23 6.23 0 005.78 1.31 6.34 6.34 0 003.39-2.35 12.15 12.15 0 00.8-1.4z" fill="#e0e0e0"/><path d="M428.09 143.67h.22l.67.08 2.65.36h-.06c.54-1.41 1.24-3.28 2.1-5.53v.11l-3-2h-.06v-.06a14.62 14.62 0 00-.11-3.83v-.07h.06l2.86-2.15v.16l-2.41-5.4.15.08-3.5.7h-.09l-.06-.08a14.21 14.21 0 00-2.77-2.62l-.08-.06v-.09c.16-1.1.33-2.31.51-3.54l.1.17-5.52-2.12.2-.06-2 3-.06.09h-.1a14.86 14.86 0 00-3.81.1h-.11l-.06-.09-2.14-2.86h.22l-5.41 2.41.1-.2c.22 1.1.46 2.3.69 3.5v.11l-.09.07a14.42 14.42 0 00-2.63 2.76l-.17.07h-.44l-.45-.07-.89-.13-1.76-.25.2-.12-2.04 5.49-.07-.21 3 2 .09.06v.11a14.27 14.27 0 00.09 3.81v.11l-.09.06-2.87 2.13.06-.21q1.21 2.78 2.39 5.42l-.19-.1 3.51-.69h.1l.06.08a14.27 14.27 0 002.76 2.63l.08.06v.1c-.18 1.21-.36 2.38-.53 3.53l-.09-.16 5.52 2.14-.17.05 2-3v-.07h.08a14.2 14.2 0 003.82-.09h.08v.06l2.13 2.88h-.13l5.42-2.37v.09c-.27-1.41-.49-2.56-.67-3.52a14.68 14.68 0 002.09-2l.46-.55.15-.18-.13.2c-.09.13-.23.32-.44.57a13.69 13.69 0 01-2 2.07v-.06c.19 1 .43 2.1.71 3.5V150h-.06l-5.4 2.43h-.07l-.06-.07-2.14-2.86.11.05a14.68 14.68 0 01-3.89.11l.13-.06-2 3-.06.09h-.1l-5.53-2.12h-.11v-.12q.26-1.72.51-3.54l.07.15a14.67 14.67 0 01-2.83-2.69l.16.06-3.51.7h-.13l-.06-.12-2.4-5.4-.06-.13.11-.08 2.87-2.14-.07.16a14.94 14.94 0 01-.1-3.9l.08.17-3-2-.12-.08v-.14l2.13-5.52.05-.13h.14l1.77.25.88.13.45.07h.44c-.35.15-.09 0-.17.08a14.77 14.77 0 012.75-2.75l-.06.18c-.24-1.21-.48-2.41-.69-3.51v-.15l.13-.06 5.41-2.39.13-.06.09.11c.73 1 1.46 2 2.13 2.87l-.17-.06a14.76 14.76 0 013.91-.1l-.17.08 2-3 .07-.11h.13l5.52 2.14h.12v.12c-.18 1.24-.36 2.45-.52 3.54l-.06-.15a14.49 14.49 0 012.81 2.7l-.14-.06 3.51-.68h.11l.05.11c.84 1.9 1.63 3.71 2.39 5.41v.1l-.09.06-2.87 2.13.05-.12a14.6 14.6 0 01.08 3.89l-.05-.1 3 2h.06v.06l-2.16 5.51v.05l-2.62-.41-.68-.12z" fill="#e0e0e0"/><path d="M459.56 126.83a11.88 11.88 0 01-2.21 2.32l.57 2.91-4.48 2-1.78-2.38a11.79 11.79 0 01-3.2.08l-1.65 2.47-4.58-1.77.43-2.93a11.88 11.88 0 01-2.32-2.21l-2.91.57-2-4.48 2.38-1.78a11.79 11.79 0 01-.08-3.2l-2.47-1.65 1.77-4.58 2.93.43a11.88 11.88 0 012.21-2.32l-.57-2.91 4.48-2 1.78 2.38a11.79 11.79 0 013.2-.08l1.65-2.47 4.59 1.77-.43 2.93a12.18 12.18 0 012.32 2.21l2.91-.57 2 4.49-2.38 1.77a11.79 11.79 0 01.08 3.2l2.47 1.65-1.77 4.58-2.93-.43zm-5-5a5.27 5.27 0 10-6.81 3 5.27 5.27 0 006.85-3zm-14.34-22.35a19 19 0 01-3.46 3.64l.9 4.56-7 3.12-2.78-3.73a19.14 19.14 0 01-5 .13l-2.59 3.86-7.18-2.77.67-4.6a19 19 0 01-3.64-3.46l-4.56.9-3.12-7 3.73-2.78a19.14 19.14 0 01-.13-5l-3.86-2.59 2.77-7.18 4.6.67a18.94 18.94 0 013.43-3.69l-.9-4.57 7-3.12 2.78 3.73a19.14 19.14 0 015-.13l2.59-3.86 7.18 2.77L436 73a18.94 18.94 0 013.63 3.46l4.57-.9 3.12 7-3.73 2.78a19.14 19.14 0 01.13 5l3.87 2.66-2.77 7.18-4.6-.67zm-7.78-7.85a8.26 8.26 0 10-10.67 4.74 8.25 8.25 0 0010.67-4.74z" fill="#e0e0e0" fill-rule="evenodd"/><path d="M369.62 61.36a4.05 4.05 0 01.53-.59l1.52-1.53c1.29-1.28 3.09-3 5.1-4.94h.05v.25c-2-1.87-3.84-3.59-5.14-4.84l-1.53-1.49a4.05 4.05 0 01-.53-.59 3.16 3.16 0 01.62.49l1.61 1.41c1.34 1.2 3.19 2.89 5.21 4.77l.14.12-.14.13-.05.05c-2 1.91-3.83 3.63-5.17 4.86l-1.6 1.45a3.16 3.16 0 01-.62.45zM354 47.59a3.64 3.64 0 01-.53.6L352 49.71c-1.29 1.28-3.09 3-5.1 4.94l-.05.05v-.26c2 1.88 3.84 3.59 5.14 4.84l1.53 1.5a4.41 4.41 0 01.53.58 2.82 2.82 0 01-.62-.48c-.44-.38-1-.86-1.61-1.41a583.07 583.07 0 01-5.21-4.77l-.13-.13.13-.13h.05c2-1.92 3.83-3.64 5.17-4.87l1.6-1.44a3 3 0 01.57-.54zm4 17.01c-.09 0 1.55-4.64 3.66-10.28s3.9-10.2 4-10.16-1.54 4.64-3.66 10.28-3.89 10.2-4 10.16z" fill="#e0e0e0"/><path d="M387.36 74.46V63.08c0-7.22 0-17.54-.08-30l.15.15h-50.76l.18-.18v41.37l-.16-.16 36.66.08h13.15-2.69l-10.36.05-36.76.08h-.16V32.76h51.09v.15c0 12.48-.06 22.84-.08 30.08v10.55c0 .51-.18.92-.18.92z" fill="#e0e0e0"/><path d="M387.76 39.23c0 .1-11.46.18-25.59.18s-25.6-.08-25.6-.18 11.46-.18 25.6-.18 25.59.08 25.59.18zm-47.02-3.02a.69.69 0 01-.69.69.69.69 0 010-1.38.69.69 0 01.69.69z" fill="#e0e0e0"/><circle cx="342.54" cy="36.21" r=".68" fill="#e0e0e0"/><path d="M345.72 36.21a.69.69 0 11-.69-.69.69.69 0 01.69.69z" fill="#e0e0e0"/><path fill="#fff" d="M171.84 53.04h117.38v47.68H171.84z"/><path d="M289.22 100.72V87.91c0-8.23 0-20.13-.07-34.87l.13.13-117.37.06.09-.23v47.68l-.18-.18 84.16.09 24.41.05h6.54-30.87l-84.28.08h-.18V52.68h117.7V53c0 14.77-.05 26.7-.07 34.95v11.91c0 .56-.01.86-.01.86z" fill="#e0e0e0"/><path d="M172 59.47c0-.1 26.24-.18 58.6-.18s58.6.08 58.6.18-26.23.19-58.6.19-58.6-.08-58.6-.19z" fill="#e0e0e0"/><path d="M176.87 56.6a.85.85 0 01-.85.85.85.85 0 110-1.7.85.85 0 01.85.85zm2.92 0a.85.85 0 01-.85.85.85.85 0 110-1.7.85.85 0 01.85.85z" fill="#ebebeb" opacity=".3"/><circle cx="181.81" cy="56.6" r=".85" fill="#ebebeb" opacity=".3"/><path fill="#e0e0e0" d="M181.81 67.22h28.35v28.35h-28.35zm99.29 7.6c0 .1-14.59.19-32.58.19s-32.59-.09-32.59-.19 14.59-.19 32.59-.19 32.58.09 32.58.19zm0 5.78c0 .1-14.59.18-32.58.18s-32.59-.08-32.59-.18 14.59-.19 32.59-.19 32.58.08 32.58.19zm-23.22 5.77a1.3 1.3 0 01-.42 0h-1.23l-4.49.06-14.83.06-14.84-.06-4.49-.06h-1.23a1.3 1.3 0 01-.42 0 2.37 2.37 0 01.42 0h1.23l4.49-.06h29.67l4.49.06h1.23a2.37 2.37 0 01.42 0z"/><path d="M472.86 445.09c0 .14-99.78.26-222.85.26s-222.87-.12-222.87-.26 99.76-.26 222.87-.26 222.85.11 222.85.26z" fill="#263238"/><path fill="#e0e0e0" d="M295.03 135.41h140.13v114.16H295.03z"/><path fill="#ebebeb" d="M285.07 142.66H425.2v114.16H285.07z"/><path fill="#fff" d="M271.34 150.61h143.87v117.21H271.34z"/><path d="M415.21 267.82v-8.42c0-5.48 0-13.51-.05-23.75 0-20.46-.07-49.73-.12-85l.22.22H271.41l.26-.26v117.21l-.24-.24 104 .12 29.42.06h10.48-10.39l-29.37.06-104.11.12h-.23v-117.7h144.35v.22c-.05 35.36-.09 64.68-.11 85.18 0 10.21-.05 18.23-.06 23.7v6.21c0 1.41-.2 2.27-.2 2.27z" fill="#263238"/><path d="M288.88 167.55l-1.55.56 1.55.57v.58l-2.21-.84v-.61l2.21-.84zm3.64-1.06v3.25h-.75v-1.33h-1.48v1.33h-.75v-3.25h.75v1.28h1.48v-1.28zm1.48.61h-1v-.61h2.83v.61h-1v2.64H294zm5.11 2.64v-2l-1 1.6h-.34l-.95-1.56v1.91h-.71v-3.25h.62l1.22 2 1.2-2h.61v3.25zm1.47-3.25h.75v2.64H303v.61h-2.38zm4.9 1.32v.61l-2.2.84v-.58l1.54-.57-1.54-.56V167zm-17.91 88.62L286 257l1.55.56v.58l-2.21-.84v-.61l2.21-.84zm1.65-1.72h.65l-1.53 4.37h-.65zm3.78.66v3.25h-.76v-1.33h-1.44v1.33h-.75v-3.25h.75v1.28h1.47v-1.28zm1.46.63h-1v-.61h2.82v.61h-1v2.64h-.76zm5.15 2.62v-1.95l-1 1.61h-.34l-.95-1.57v1.91h-.7v-3.25h.62l1.21 2 1.2-2h.62v3.25zm1.47-3.25h.75V258h1.63v.61h-2.38zm4.92 1.32v.61l-2.21.84v-.58l1.55-.56-1.55-.57v-.58z" fill="#00b0b9"/><path d="M299.07 176.44l-1.65.63 1.65.64v.38l-2.08-.82v-.4l2.08-.82zm3.58-.99v3.25h-.46v-1.45h-1.86v1.45h-.47v-3.25h.47v1.4h1.86v-1.4zm3.35 2.84v.41h-2.36v-3.25h2.3v.4h-1.83v1h1.63v.39h-1.63v1zm2.8-.41h-1.73l-.35.82h-.48l1.47-3.25h.46l1.47 3.25h-.49zm-.16-.37l-.7-1.59-.71 1.59zm1.48-2.06h1.37a1.63 1.63 0 110 3.25h-1.37zm1.34 2.84a1.22 1.22 0 100-2.44h-.88v2.44zm4.39-1.42v.4l-2.08.82v-.38l1.65-.64-1.65-.63v-.39zm-16.78 10.69l-1.65.63 1.65.64v.38l-2.08-.82V188l2.08-.82zm1.44-.56h-1.12v-.4h2.69v.4H301v2.85h-.46zm2.07-.43h.47v3.25h-.47zm2.08.43h-1.11v-.4h2.68v.4h-1.11v2.85h-.46zm2.08-.43h.46v2.84h1.8v.41h-2.22zm5.11 2.84v.41h-2.36v-3.25h2.29v.4H310v1h1.63v.4H310v1zm2.65-1.41v.4l-2.08.82v-.38l1.65-.64-1.65-.63v-.39zm2.04-1.43h.46v2.84h1.76v.41h-2.22zm2.46 2.02a1.28 1.28 0 111.28 1.26 1.22 1.22 0 01-1.28-1.26zm2.1 0a.83.83 0 10-1.65 0 .83.83 0 101.65 0zm2.36-1.25v.43h-.1a.74.74 0 00-.78.83v1.23h-.44v-2.46h.42v.41a.94.94 0 01.9-.44zm2.73 1.4h-2a.83.83 0 00.89.72.91.91 0 00.71-.3l.24.29a1.34 1.34 0 01-2.29-.86 1.21 1.21 0 011.24-1.25 1.18 1.18 0 011.21 1.26.66.66 0 010 .14zm-2-.32h1.58a.79.79 0 00-1.58 0zm6.71-.02v1.42h-.45v-1.37c0-.48-.23-.71-.63-.71a.71.71 0 00-.74.81v1.27h-.45v-1.37c0-.48-.23-.71-.63-.71a.71.71 0 00-.74.81v1.27h-.44v-2.46h.42v.37a1 1 0 01.85-.39.91.91 0 01.86.45 1.08 1.08 0 01.94-.45.94.94 0 011.01 1.06zm1.98-1.8a.29.29 0 01.3-.29.28.28 0 01.3.28.29.29 0 01-.3.3.29.29 0 01-.3-.29zm.08.76h.45v2.46H333zm3.84 1.23a1.2 1.2 0 01-1.24 1.26 1.06 1.06 0 01-.86-.4v1.27h-.45v-3.36h.43v.39a1.06 1.06 0 01.88-.41 1.19 1.19 0 011.24 1.25zm-.45 0a.83.83 0 10-1.66 0 .83.83 0 101.66 0zm.75.97l.19-.35a1.65 1.65 0 00.86.25c.41 0 .59-.12.59-.33 0-.56-1.56-.08-1.56-1.06 0-.44.4-.73 1-.73a1.75 1.75 0 01.89.22l-.19.35a1.31 1.31 0 00-.71-.19c-.39 0-.58.14-.58.34 0 .57 1.56.1 1.56 1.06 0 .44-.41.73-1.06.73a1.82 1.82 0 01-.99-.29zm4.9-2.2v2.46h-.42v-.37a1 1 0 01-.84.4 1 1 0 01-1.06-1.08v-1.41h.45v1.36c0 .49.24.73.66.73a.72.72 0 00.76-.82v-1.27zm5 1.04v1.42h-.44v-1.37c0-.48-.23-.71-.64-.71a.71.71 0 00-.73.81v1.27h-.45v-1.37c0-.48-.23-.71-.63-.71a.71.71 0 00-.74.81v1.27h-.45v-2.46h.43v.37a1 1 0 01.85-.39.9.9 0 01.85.45 1.11 1.11 0 01.95-.45.93.93 0 011 1.06zm4-.84l-1.64.63 1.64.64v.38l-2.07-.82V188l2.07-.82zm1.69-1.65h.41l-1.53 4.37h-.41zm1.5 1.09h-1.11v-.4h2.69v.4h-1.12v2.85h-.46zm2.08-.43h.46v3.25h-.46zm2.08.43h-1.11v-.4h2.68v.4h-1.11v2.85h-.46zm2.08-.43h.46v2.84h1.76v.41h-2.22zm5.11 2.84v.41h-2.36v-3.25h2.29v.4h-1.83v1h1.63v.4h-1.63v1zm2.65-1.41v.4l-2.08.82v-.38l1.65-.64-1.65-.63v-.39zm-69.12 10.68l-1.65.64 1.65.63v.39l-2.08-.83v-.39l2.08-.83zm1.71-1.68h.4l-1.53 4.37h-.41zm3.5.69v3.25h-.46v-1.45H302v1.45h-.47v-3.25h.47v1.4h1.86v-1.4zm3.33 2.84v.41h-2.35v-3.25h2.29v.41h-1.83v1h1.63v.4h-1.63v1zm2.82-.4h-1.73l-.35.81h-.48l1.47-3.25h.46l1.47 3.25h-.48zm-.16-.37l-.7-1.6-.7 1.6zm1.48-2.07h1.37a1.63 1.63 0 110 3.25h-1.37zm1.34 2.84a1.22 1.22 0 100-2.43h-.87v2.43zm4.39-1.41v.39l-2.08.83V200l1.65-.63-1.65-.64v-.39zm-27.03 9.21l-1.64.64 1.64.63v.4l-2.08-.82v-.4l2.08-.82zm3.55 1.38c0 .56-.42.88-1.24.88h-1.55v-3.25h1.45c.75 0 1.17.32 1.17.84a.83.83 0 00.17 1.53zm-2.33-2v1h1c.48 0 .74-.18.74-.52s-.26-.52-.74-.52zm1.86 2c0-.38-.28-.55-.79-.55h-1.07v1.08h1.07c.55-.03.83-.19.83-.56zm.96-.71a1.73 1.73 0 111.73 1.66 1.65 1.65 0 01-1.73-1.66zm3 0a1.27 1.27 0 10-1.26 1.24 1.22 1.22 0 001.25-1.24zm1.16-1.66H300a1.63 1.63 0 110 3.25h-1.37zm1.34 2.85a1.22 1.22 0 100-2.44h-.88v2.44zm3.59-.72v1.12h-.46v-1.13l-1.29-2.12h.5l1 1.72 1-1.72h.46zm3.66-.7v.4l-2.08.82v-.39l1.65-.63-1.65-.64V208zm-16.79 10.68l-1.64.64 1.64.63v.39l-2.08-.82v-.4l2.08-.82zm3.55-.98v3.24h-.46v-1.44h-1.87v1.44h-.46v-3.24h.46v1.39h1.87v-1.39zm1.75 0v3.24h-.46v-2.84h-.73v-.4zm2.88 1.42v.4l-2.08.82v-.39l1.65-.63-1.65-.64v-.38zm2.08-1.42h.34v2.95h1.82v.29h-2.16zm2.38 2.02a1.24 1.24 0 111.24 1.25 1.2 1.2 0 01-1.24-1.25zm2.14 0a.91.91 0 10-.9.95.89.89 0 00.9-.95zm2.24-1.24v.32h-.08a.79.79 0 00-.82.9v1.24h-.33v-2.44h.31v.48a1 1 0 01.92-.5zm2.69 1.34h-2a.91.91 0 001 .85 1 1 0 00.75-.32l.18.22a1.19 1.19 0 01-.94.4 1.21 1.21 0 01-1.28-1.25 1.18 1.18 0 011.19-1.24 1.16 1.16 0 011.18 1.24zm-2-.24h1.73a.87.87 0 00-1.73 0zm6.7-.05v1.41h-.33v-1.38c0-.51-.26-.78-.7-.78a.78.78 0 00-.81.88v1.28h-.33v-1.38c0-.51-.26-.78-.71-.78a.79.79 0 00-.82.88v1.28h-.33v-2.44h.32v.45a1 1 0 01.9-.47.88.88 0 01.86.52 1.07 1.07 0 011-.52.93.93 0 01.95 1.05zm2.03-1.8a.24.24 0 01.24-.23.23.23 0 01.24.23.24.24 0 01-.24.24.24.24 0 01-.24-.24zm.07.77h.33v2.44H317zm3.72 1.22a1.19 1.19 0 01-1.21 1.25 1.06 1.06 0 01-.93-.49v1.36h-.33v-3.34h.32v.48a1.07 1.07 0 01.94-.5 1.18 1.18 0 011.21 1.24zm-.32 0a.91.91 0 10-1.82 0 .91.91 0 101.82 0zm.64.94l.15-.26a1.46 1.46 0 00.87.28c.46 0 .65-.16.65-.4 0-.64-1.58-.14-1.58-1.1 0-.4.35-.7 1-.7a1.64 1.64 0 01.86.23l-.14.27a1.26 1.26 0 00-.72-.21c-.44 0-.64.17-.64.4 0 .66 1.58.16 1.58 1.1 0 .42-.37.7-1 .7a1.59 1.59 0 01-1.03-.31zm4.82-2.16v2.44h-.32v-.44a1 1 0 01-.87.47.94.94 0 01-1-1.05v-1.42h.33v1.38c0 .52.26.79.73.79a.79.79 0 00.83-.89v-1.28zm4.94 1.03v1.41h-.32v-1.38c0-.51-.26-.78-.71-.78a.78.78 0 00-.81.88v1.28h-.33v-1.38c0-.51-.26-.78-.71-.78a.79.79 0 00-.81.88v1.28h-.33v-2.44h.31v.45a1 1 0 01.9-.47.89.89 0 01.87.52 1 1 0 011-.52.93.93 0 01.94 1.05zm4.33-2.03v3.44h-.31v-.48a1.06 1.06 0 01-.94.51 1.25 1.25 0 010-2.49 1.07 1.07 0 01.93.49v-1.47zm-.32 2.22a.91.91 0 10-.9.95.89.89 0 00.9-.95zm.99 0a1.25 1.25 0 111.25 1.25 1.21 1.21 0 01-1.25-1.25zm2.15 0a.91.91 0 10-.9.95.89.89 0 00.9-.95zm1.01-2.22h.32v3.44h-.32zm1 2.22a1.24 1.24 0 111.24 1.25 1.2 1.2 0 01-1.24-1.25zm2.14 0a.91.91 0 10-.9.95.89.89 0 00.9-.95zm2.24-1.24v.32h-.08a.79.79 0 00-.82.9v1.24h-.33v-2.44h.31v.48a1 1 0 01.92-.5zm1.5 2.18l.15-.26a1.41 1.41 0 00.87.28c.46 0 .65-.16.65-.4 0-.64-1.58-.14-1.58-1.1 0-.4.34-.7 1-.7a1.68 1.68 0 01.87.23l-.15.27a1.24 1.24 0 00-.72-.21c-.44 0-.63.17-.63.4 0 .66 1.58.16 1.58 1.1 0 .42-.37.7-1 .7a1.58 1.58 0 01-1.04-.31zm2.53-2.93a.24.24 0 01.24-.23.23.23 0 01.24.23.24.24 0 01-.24.24.24.24 0 01-.24-.24zm.08.77h.32v2.44h-.32zm2.53 2.29a.78.78 0 01-.52.18.64.64 0 01-.71-.71v-1.48h-.44v-.28h.44v-.53h.29v.53h.74v.28H350V221a.39.39 0 00.42.44.56.56 0 00.36-.12zm3.65-1.36v1.51h-.32v-.38a.9.9 0 01-.84.41c-.55 0-.89-.29-.89-.71s.24-.7.94-.7h.78v-.14a.6.6 0 00-.69-.65 1.21 1.21 0 00-.81.29l-.15-.25a1.53 1.53 0 011-.33.87.87 0 01.98.95zm-.33.78v-.4h-.77c-.47 0-.62.19-.62.44s.23.46.61.46a.78.78 0 00.78-.48zm5.25-.68v1.41h-.33v-1.38c0-.51-.26-.78-.7-.78a.79.79 0 00-.82.88v1.28h-.33v-1.38c0-.51-.26-.78-.7-.78a.79.79 0 00-.82.88v1.28h-.33v-2.44h.32v.45a1 1 0 01.89-.47.88.88 0 01.87.52 1.05 1.05 0 011-.52.93.93 0 01.95 1.05zm3.02.29h-2a.91.91 0 001 .85 1 1 0 00.75-.32l.18.22a1.19 1.19 0 01-.94.4 1.21 1.21 0 01-1.28-1.25 1.19 1.19 0 112.38 0s-.09.07-.09.1zm-2-.24h1.73a.87.87 0 00-1.73 0zm3.96 1.21a.76.76 0 01-.51.18.65.65 0 01-.72-.71v-1.48h-.43v-.28h.43v-.53h.33v.53h.74v.28h-.74V221a.39.39 0 00.42.44.54.54 0 00.36-.12zm.93-.08a.71.71 0 01-.07.27l-.19.64h-.23l.16-.67a.24.24 0 01-.17-.24.25.25 0 01.25-.25.24.24 0 01.25.25zm1.66-.99a1.2 1.2 0 011.26-1.24 1.09 1.09 0 011 .49l-.25.16a.83.83 0 00-.71-.36 1 1 0 000 1.9.82.82 0 00.71-.35l.25.16a1.09 1.09 0 01-1 .49 1.21 1.21 0 01-1.26-1.25zm2.57 0a1.24 1.24 0 111.25 1.25 1.21 1.21 0 01-1.25-1.25zm2.15 0a.89.89 0 00-.9-1 1 1 0 000 1.9.89.89 0 00.9-.9zm3.25-.19v1.41h-.33v-1.38a.68.68 0 00-.73-.78.8.8 0 00-.86.88v1.28h-.33v-2.44h.32v.45a1 1 0 01.93-.47.94.94 0 011 1.05zm.55 1.13l.15-.26a1.41 1.41 0 00.87.28c.46 0 .65-.16.65-.4 0-.64-1.58-.14-1.58-1.1 0-.4.34-.7 1-.7a1.68 1.68 0 01.87.23l-.15.27a1.24 1.24 0 00-.72-.21c-.44 0-.63.17-.63.4 0 .66 1.58.16 1.58 1.1 0 .42-.37.7-1 .7a1.58 1.58 0 01-1.04-.31zm4.73-.84h-2a.91.91 0 001 .85 1 1 0 00.75-.32l.18.22a1.19 1.19 0 01-.94.4 1.21 1.21 0 01-1.28-1.25 1.18 1.18 0 011.19-1.24 1.16 1.16 0 011.18 1.24zm-2-.24H380a.87.87 0 00-1.73 0zm2.43.14a1.2 1.2 0 011.26-1.24 1.06 1.06 0 011 .49l-.24.16a.85.85 0 00-.71-.36 1 1 0 000 1.9.84.84 0 00.71-.35l.24.16a1.06 1.06 0 01-1 .49 1.21 1.21 0 01-1.26-1.25zm4.17 1.07a.78.78 0 01-.52.18.64.64 0 01-.71-.71v-1.48h-.44v-.28h.44v-.53h.3v.53h.74v.28H384V221a.39.39 0 00.42.44.56.56 0 00.36-.12zm2.63-.97h-2a.91.91 0 001 .85 1 1 0 00.75-.32l.18.22a1.19 1.19 0 01-.94.4 1.21 1.21 0 01-1.28-1.25 1.19 1.19 0 112.38 0s-.09.07-.09.1zm-2-.24h1.73a.87.87 0 00-1.73 0zm3.96 1.21a.78.78 0 01-.52.18.65.65 0 01-.71-.71v-1.48h-.44v-.28h.44v-.53h.33v.53h.74v.28h-.74V221a.39.39 0 00.42.44.54.54 0 00.36-.12zm2.79-2.29v2.44H392v-.44a1 1 0 01-.88.47 1 1 0 01-1-1.05v-1.42h.33v1.38c0 .52.27.79.73.79a.79.79 0 00.83-.89v-1.28zm3.05 1.32h-2a.9.9 0 001 .85.93.93 0 00.74-.32l.19.22a1.29 1.29 0 01-2.22-.85 1.17 1.17 0 011.19-1.24 1.16 1.16 0 011.18 1.24zm-2-.24h1.73a.87.87 0 00-1.73 0zm3.9-1.1v.32h-.08a.79.79 0 00-.82.9v1.24H396v-2.44h.32v.48a.92.92 0 01.94-.5zm-106.9 6.51v1.51h-.31v-.38a.93.93 0 01-.84.41c-.55 0-.89-.29-.89-.71s.24-.69.94-.69h.74v-.15c0-.42-.23-.65-.69-.65a1.23 1.23 0 00-.81.29l-.15-.25a1.56 1.56 0 011-.33.86.86 0 011.01.95zm-.33.78v-.4h-.76c-.47 0-.63.19-.63.44s.23.46.62.46a.78.78 0 00.74-.5zm3.46-2.71v3.44h-.31v-.48a1.07 1.07 0 01-.95.51 1.25 1.25 0 010-2.49 1.06 1.06 0 01.93.49v-1.47zm-.32 2.22a.91.91 0 10-.91.95.89.89 0 00.91-.95zm1.16-1.99a.24.24 0 01.24-.23.24.24 0 01.25.23.25.25 0 01-.49 0zm.08.77h.33v2.44h-.33zm3.72 1.22a1.19 1.19 0 01-1.22 1.25 1.07 1.07 0 01-.93-.49v1.36h-.33v-3.34h.35v.49a1.06 1.06 0 01.94-.51 1.19 1.19 0 011.19 1.24zm-.33 0a.91.91 0 10-1.82 0 .91.91 0 101.82 0zm.92-1.99a.24.24 0 01.24-.23.23.23 0 01.24.23.24.24 0 01-.24.24.24.24 0 01-.24-.24zm.08.77h.33v2.44h-.33zm.9 2.17l.15-.26a1.46 1.46 0 00.87.28c.46 0 .65-.16.65-.4 0-.64-1.58-.14-1.58-1.1 0-.4.34-.7 1-.7a1.67 1.67 0 01.86.23l-.14.27a1.26 1.26 0 00-.72-.21c-.44 0-.64.17-.64.4 0 .66 1.58.16 1.58 1.1 0 .42-.37.7-1 .7a1.59 1.59 0 01-1.03-.31zm2.36-.95a1.2 1.2 0 011.26-1.24 1.09 1.09 0 011 .49l-.25.16a.85.85 0 00-.71-.36 1 1 0 000 1.9.84.84 0 00.71-.35l.25.16a1.09 1.09 0 01-1 .49 1.21 1.21 0 01-1.26-1.25zm2.78-1.99a.24.24 0 01.24-.23.23.23 0 01.24.23.24.24 0 01-.24.24.24.24 0 01-.24-.24zm.08.77h.33v2.44h-.33zm3.49 1.03v1.41h-.33v-1.38a.68.68 0 00-.73-.78.8.8 0 00-.86.88v1.28h-.33v-2.44h.32v.45a1 1 0 01.93-.47.94.94 0 011 1.05zm3.16-1.03V227a1.07 1.07 0 01-1.22 1.22 1.72 1.72 0 01-1.14-.38l.17-.25a1.43 1.43 0 001 .33c.62 0 .9-.28.9-.88v-.31a1.1 1.1 0 01-.95.47 1.19 1.19 0 110-2.37 1.09 1.09 0 011 .49v-.47zm-.32 1.16a.93.93 0 10-.93.9.87.87 0 00.93-.89zm4.58.17h-2a.89.89 0 001 .84.93.93 0 00.74-.32l.19.22a1.29 1.29 0 01-2.22-.85 1.17 1.17 0 011.19-1.24 1.16 1.16 0 011.18 1.24zm-2-.25h1.73a.87.87 0 00-1.73 0zm2.67-2.08h.33v3.44h-.33zm1.17.23a.24.24 0 01.24-.23.24.24 0 01.25.23.25.25 0 01-.49 0zm.08.77h.33v2.44h-.33zm2.53 2.29a.76.76 0 01-.51.18.65.65 0 01-.72-.71v-1.48h-.44v-.28h.44v-.53h.33v.53h.74v.28h-.74v1.46a.39.39 0 00.42.44.54.54 0 00.36-.12zm.92-.12a.66.66 0 01-.06.27l-.2.64h-.22l.16-.67a.24.24 0 01-.17-.24.25.25 0 01.25-.25.24.24 0 01.24.25zm1.58 0l.15-.26a1.41 1.41 0 00.87.28c.46 0 .65-.16.65-.4 0-.64-1.58-.14-1.58-1.1 0-.4.34-.7 1-.7a1.68 1.68 0 01.87.23l-.15.27a1.24 1.24 0 00-.72-.21c-.44 0-.63.17-.63.4 0 .66 1.58.16 1.58 1.1 0 .42-.37.7-1 .7a1.58 1.58 0 01-1.04-.31zm4.73-.84h-2a.91.91 0 001 .84 1 1 0 00.75-.32l.18.22a1.29 1.29 0 01-2.22-.85 1.17 1.17 0 011.19-1.24 1.16 1.16 0 011.18 1.24zm-2-.25h1.73a.87.87 0 00-1.73 0zm4.9-2.08v3.44h-.32v-.48a1 1 0 01-.94.51 1.25 1.25 0 010-2.49 1.06 1.06 0 01.93.49v-1.47zm-.32 2.22a.91.91 0 10-.91.95.89.89 0 00.91-.95zm4.68-2.22v3.44h-.32v-.48a1.06 1.06 0 01-.94.51 1.25 1.25 0 010-2.49 1.07 1.07 0 01.93.49v-1.47zm-.33 2.22a.91.91 0 10-.9.95.89.89 0 00.9-.95zm1.17-1.99a.24.24 0 11.24.24.23.23 0 01-.24-.24zm.07.77h.32v2.44h-.33zm3.09.93v1.51h-.32v-.38a.9.9 0 01-.84.41c-.55 0-.89-.29-.89-.71s.24-.69.94-.69h.78v-.15a.6.6 0 00-.69-.65 1.21 1.21 0 00-.81.29l-.15-.25a1.53 1.53 0 011-.33.87.87 0 01.98.95zm-.33.78v-.4h-.77c-.47 0-.62.19-.62.44s.23.46.61.46a.78.78 0 00.78-.5zm5.25-.68v1.41h-.33v-1.38c0-.51-.26-.78-.7-.78a.79.79 0 00-.82.88v1.28h-.33v-1.38c0-.51-.26-.78-.7-.78a.79.79 0 00-.82.88v1.28h-.33v-2.44h.34v.45a1 1 0 01.89-.47.88.88 0 01.87.52 1.05 1.05 0 011-.52.93.93 0 01.93 1.05zm2.82-.86l-1.65.64 1.65.63v.39l-2.08-.82v-.4l2.08-.82zm1.71-1.63h.4l-1.53 4.37h-.4zm3.51.63v3.24h-.47v-1.44h-1.86v1.44h-.47V224h.47v1.39h1.86V224zm1.71 0v3.24H353v-2.84h-.73v-.4zm2.87 1.45v.4l-2.08.82v-.39l1.66-.63-1.66-.64v-.38zm-65.86 10.69l-1.64.63 1.64.64v.38l-2.08-.82v-.4l2.08-.82zm3.42.14c0 .7-.51 1.13-1.36 1.13h-.8v1h-.46v-3.24h1.26c.85-.02 1.36.4 1.36 1.11zm-.47 0c0-.46-.31-.73-.9-.73h-.79V237h.79c.59 0 .9-.26.9-.72zm3.09.29v.4l-2.07.82v-.38l1.65-.64-1.65-.63v-.39zm3.95-.43l-1.65.63 1.65.64v.38l-2.08-.82v-.4l2.08-.82zm.79-.99h.47v3.24h-.47zm4.45 3.24V236l-1.18 2h-.21l-1.18-2v2.35h-.44v-3.24h.38l1.35 2.28 1.34-2.28h.38v3.24zm3.66-1.64h.45V238a1.92 1.92 0 01-1.23.41 1.66 1.66 0 111.26-2.82l-.29.29a1.28 1.28 0 00-.94-.38 1.25 1.25 0 100 2.5 1.34 1.34 0 00.76-.21zm2.28 1.25l.17-.36a1.67 1.67 0 001.07.38c.57 0 .81-.22.81-.5 0-.8-2-.3-2-1.5 0-.5.39-.93 1.24-.93a1.9 1.9 0 011.05.29l-.16.37a1.68 1.68 0 00-.89-.27c-.55 0-.79.24-.79.52 0 .79 2 .3 2 1.49 0 .49-.4.92-1.26.92a1.94 1.94 0 01-1.24-.41zm5.38.39l-.7-1h-1v1h-.46v-3.24h1.26c.85 0 1.36.42 1.36 1.13a1 1 0 01-.72 1l.77 1.09zm0-2.11c0-.46-.31-.73-.9-.73h-.79V237h.79c.54 0 .9-.26.9-.72zm.9.49a1.64 1.64 0 011.72-1.66 1.61 1.61 0 011.24.51l-.31.29a1.18 1.18 0 00-.91-.39 1.25 1.25 0 100 2.5 1.21 1.21 0 00.91-.39l.31.29a1.61 1.61 0 01-1.24.51 1.64 1.64 0 01-1.72-1.66zm3.44-.77h2.08v.36h-2.08zm0 1.1h2.08v.36h-2.08zm3.92-1.95h.39v1.25h-.33zm.84 0h.39v1.25h-.33zm1.17 0h.46V238h1.76v.4h-2.22zm2.43 2.01a1.28 1.28 0 111.28 1.26 1.22 1.22 0 01-1.28-1.26zm2.1 0a.83.83 0 10-1.65 0 .83.83 0 101.65 0zm2.39-1.25v.43h-.1a.74.74 0 00-.78.83v1.22h-.44v-2.45h.42v.41a1 1 0 01.9-.44zm2.74 1.4h-2a.83.83 0 00.89.72.91.91 0 00.71-.29l.25.28a1.35 1.35 0 01-2.3-.86 1.21 1.21 0 011.24-1.25 1.18 1.18 0 011.21 1.27zm-2-.32h1.58a.8.8 0 00-1.58 0zm6.7.01v1.41h-.44V237c0-.48-.24-.72-.64-.72s-.74.28-.74.82v1.26h-.44V237c0-.48-.23-.72-.64-.72a.72.72 0 00-.74.82v1.26h-.44v-2.45h.45v.36a1 1 0 01.84-.39.91.91 0 01.86.46 1.1 1.1 0 01.94-.46 1 1 0 01.99 1.12zm1.98-1.82a.3.3 0 01.31-.3.29.29 0 110 .58.29.29 0 01-.31-.28zm.08.76h.45v2.45h-.45zm3.84 1.22a1.19 1.19 0 01-1.24 1.26 1 1 0 01-.86-.4v1.27H345v-3.35h.42v.39a1 1 0 01.88-.42 1.19 1.19 0 011.23 1.25zm-.45 0a.83.83 0 10-.83.87.81.81 0 00.83-.87zm.76.97l.18-.35a1.56 1.56 0 00.86.26c.42 0 .59-.13.59-.34 0-.55-1.56-.07-1.56-1 0-.44.4-.74 1-.74a1.75 1.75 0 01.89.23l-.18.35a1.26 1.26 0 00-.71-.2c-.39 0-.58.15-.58.34 0 .58 1.55.11 1.55 1.06 0 .45-.4.73-1.06.73a1.68 1.68 0 01-.98-.34zm4.92-2.19v2.45h-.42V238a1 1 0 01-.84.4 1 1 0 01-1.06-1.07v-1.41h.45v1.36c0 .48.24.72.66.72a.71.71 0 00.76-.81v-1.27zm4.93 1.06v1.41h-.45V237c0-.48-.23-.72-.63-.72s-.74.28-.74.82v1.26h-.45V237c0-.48-.23-.72-.63-.72s-.74.28-.74.82v1.26h-.44v-2.45h.39v.36a1 1 0 01.85-.39.9.9 0 01.85.46 1.12 1.12 0 01.95-.46 1 1 0 011.04 1.12zm.68-1.85h.39v1.25h-.33zm.84 0h.39v1.25h-.33zm3.07 1.42v.4l-2.08.82v-.38l1.65-.64-1.65-.63v-.39zm2.72-.43l-1.65.63 1.65.64v.38l-2.1-.79v-.4l2.08-.82zm1.69-1.65h.4l-1.53 4.37h-.4zm3.31 1.79c0 .7-.51 1.13-1.36 1.13h-.8v1h-.47v-3.24h1.27c.88-.02 1.36.4 1.36 1.11zm-.47 0c0-.46-.31-.73-.9-.73h-.79V237h.79c.62 0 .93-.26.93-.72zm3.12.29v.4l-2.08.82v-.38l1.66-.64-1.66-.63v-.39zm-82.2 10.69l-1.64.63 1.64.64v.38l-2.08-.82v-.4l2.08-.82zm1.71-1.65h.41L291 250h-.4zm3.51 3.03c0 .56-.42.88-1.24.88h-1.55v-3.25h1.45c.75 0 1.17.31 1.17.84a.76.76 0 01-.44.72.79.79 0 01.61.81zm-2.33-2v1h1c.48 0 .75-.17.75-.52s-.27-.52-.75-.52zm1.86 2c0-.37-.28-.54-.79-.54h-1.07v1.08h1.07c.51-.04.79-.18.79-.58zm.92-.75a1.73 1.73 0 111.73 1.66 1.65 1.65 0 01-1.73-1.66zm3 0a1.26 1.26 0 10-1.26 1.25 1.22 1.22 0 001.25-1.25zm1.16-1.62h1.37a1.63 1.63 0 110 3.25h-1.37zm1.34 2.84a1.22 1.22 0 100-2.44h-.88v2.44zm3.59-.72v1.13h-.46v-1.14l-1.29-2.11h.5l1 1.71 1-1.71h.46zm3.66-.7v.4l-2.08.82v-.38l1.65-.64-1.65-.63v-.39z"/><path d="M415.21 160.36c0 .15-32.09.26-71.67.26s-71.68-.11-71.68-.26 32.08-.26 71.68-.26 71.67.12 71.67.26zm-139.06-5.12a.92.92 0 11-.92-.92.93.93 0 01.92.92z" fill="#263238"/><circle cx="278.77" cy="155.24" r=".92" fill="#263238"/><path d="M283.24 155.24a.93.93 0 11-.92-.92.93.93 0 01.92.92z" fill="#263238"/><path d="M281 268.78c-.14 0-.26-24.33-.26-54.33s.12-54.34.26-54.34.26 24.32.26 54.34-.16 54.33-.26 54.33z" fill="#e0e0e0"/><path fill="#00b0b9" d="M80.21 54.78h59.25v42.24H80.21z"/><path d="M139.93 61.05c0 .14-13.38.26-29.87.26s-29.88-.12-29.88-.26 13.38-.26 29.88-.26 29.87.11 29.87.26zM85.05 58a.81.81 0 11-.8-.7.75.75 0 01.8.7zM88 58a.74.74 0 01-.79.7.71.71 0 11.79-.7z" fill="#fff"/><ellipse cx="90.06" cy="57.96" rx=".8" ry=".7" fill="#fff"/><path d="M102.12 77.89c0 2.54-1.83 4.07-4.86 4.07h-3.2v3.76H92.8V73.81h4.46c3.03 0 4.86 1.53 4.86 4.08zm-1.25 0c0-1.9-1.26-3-3.65-3h-3.16v5.95h3.16c2.39.01 3.65-1.08 3.65-2.95zm13.92-4.08v11.91h-1.24v-5.5h-7.45v5.5h-1.26V73.81h1.26v5.31h7.45v-5.31zM128 77.89c0 2.54-1.83 4.07-4.86 4.07h-3.2v3.76h-1.26V73.81h4.46c3.02 0 4.86 1.53 4.86 4.08zm-1.26 0c0-1.9-1.26-3-3.64-3h-3.16v5.95h3.16c2.37.01 3.63-1.08 3.63-2.95z" fill="#fff"/><path fill="#00b0b9" d="M402.39 216.3h53.56v38.18h-53.56z"/><path d="M420.45 234v7.58h-1.75v-3.1h-3.44v3.1h-1.76V234h1.76v3h3.44v-3zm3.37 1.46h-2.43V234H428v1.43h-2.43v6.15h-1.75zm14.31-1.46h1.76v6.15h3.8v1.43h-5.56zm-2.57 7.61v-4.54l-2.23 3.74h-.79l-2.22-3.65v4.45h-1.65V234h1.45l2.84 4.71 2.79-4.71h1.44v7.58zM456.37 222c0 .09-12.09.17-27 .17s-27-.08-27-.17 12.09-.17 27-.17 27 .05 27 .17zm-49.61-2.82a.73.73 0 01-1.44 0 .73.73 0 011.44 0zm2.63 0a.73.73 0 01-1.44 0 .73.73 0 011.44 0zm2.61 0a.73.73 0 11-.72-.63.68.68 0 01.72.63z" fill="#fff"/><path fill="#00b0b9" d="M51.78 215.76h39.49v28.15H51.78z"/><path d="M91.57 219.93c0 .07-8.91.13-19.9.13s-19.91-.06-19.91-.13 8.91-.12 19.91-.12 19.9.05 19.9.12zM55 217.88a.5.5 0 01-.53.46.49.49 0 01-.53-.46.5.5 0 01.53-.47.5.5 0 01.53.47zm1.94 0a.54.54 0 01-1.07 0 .54.54 0 011.07 0zm1.94 0a.54.54 0 11-.54-.47.51.51 0 01.54.47z" fill="#fff"/><path d="M287.05 107.29a7.4 7.4 0 017.67-7.51 7.07 7.07 0 015.27 2l-.68.7a6.18 6.18 0 00-4.54-1.75 6.51 6.51 0 100 13 6.2 6.2 0 004.54-1.78l.68.7a7.09 7.09 0 01-5.27 2.07 7.39 7.39 0 01-7.67-7.43zm14.95 5.49l.48-.8a7.08 7.08 0 004.88 1.86c3 0 4.27-1.29 4.27-2.9 0-4.44-9.23-1.77-9.23-7.22 0-2.1 1.6-3.94 5.24-3.94a7.89 7.89 0 014.46 1.34l-.4.86a7.37 7.37 0 00-4.06-1.24c-2.88 0-4.16 1.33-4.16 3 0 4.44 9.23 1.82 9.23 7.19 0 2.09-1.67 3.91-5.33 3.91a7.58 7.58 0 01-5.38-2.06zm12.88 0l.49-.8a7.06 7.06 0 004.88 1.86c3 0 4.27-1.29 4.27-2.9 0-4.44-9.23-1.77-9.23-7.22 0-2.1 1.6-3.94 5.24-3.94a7.94 7.94 0 014.46 1.34l-.4.86a7.37 7.37 0 00-4.06-1.24c-2.88 0-4.17 1.33-4.17 3 0 4.44 9.24 1.82 9.24 7.19 0 2.09-1.67 3.91-5.33 3.91a7.62 7.62 0 01-5.39-2.06z" fill="#00b0b9"/><path d="M338.19 126.52v-3.04c0-2 0-4.87-.06-8.56 0-7.39-.06-18-.1-31l.2.21h-65.88l.26-.26v42.56l-.24-.24 47.4.12 13.59.06h4.57-4.49l-13.54.06-47.56.12h-.24V83.7h.27l65.88.06h.21V84c0 13-.08 23.67-.11 31.09 0 3.67 0 6.54-.05 8.52v2.21c0 .52-.11.7-.11.7z" fill="#00b0b9"/><path d="M338.19 90.28c0 .14-14.76.26-33 .26s-33-.12-33-.26S287 90 305.23 90s32.96.13 32.96.28zm-61.02-3.11a.81.81 0 11-.8-.7.75.75 0 01.8.7zm2.93 0a.81.81 0 11-.8-.7.75.75 0 01.8.7zm2.9 0a.81.81 0 11-.8-.7.75.75 0 01.8.7z" fill="#00b0b9"/><path d="M147.88 272L174 360.13a9.23 9.23 0 008.84 6.61l106 .29a9.81 9.81 0 009.82-10.32 9.81 9.81 0 00-9.79-9.28h-40.53L215.88 257h-56.82a11.66 11.66 0 00-11.18 15z" fill="#455a64"/><path d="M237.56 354.67c0 .21-10.81.37-24.14.37s-24.13-.16-24.13-.37 10.8-.37 24.13-.37 24.14.16 24.14.37zm-81.88-94.89c.19-.06 7.41 21.05 16.12 47.16s15.6 47.33 15.41 47.39-7.41-21-16.12-47.16-15.61-47.32-15.41-47.39z" fill="#263238"/><path fill="#455a64" d="M233.15 445.09l-6.46-.15v-78.2h6.46v78.35z"/><path fill="#455a64" d="M199.86 444.73h60.13l-27.24-9.47h-6.46l-26.43 9.47z"/><path d="M184.65 236.76l9.95 49.71-1.78 37.25 66.88-11.12-2.62-32.6-.08-27 16.4 31.78 12.76-24.67-23.37-42.35a39.47 39.47 0 00-15.29-9.9 31.37 31.37 0 00-9.59-1.84 38.35 38.35 0 01-23.15 0c-.94.12-2.24.25-3.89.44h-.3a29.57 29.57 0 00-25.81 27.8z" fill="#00b0b9"/><path d="M210.89 206.47s-27.48.21-30.88 29.23l-.46 21.3 23.66-.2z" fill="#00b0b9"/><path d="M276.54 243.8c0 .21-21.62.38-48.29.38S180 244 180 243.8s21.61-.37 48.29-.37 48.25.17 48.25.37zm0 4.61c0 .2-21.62.37-48.29.37s-48.29-.17-48.29-.37 21.61-.38 48.29-.38 48.29.17 48.29.38zM275 240c0 .21-21.27.38-47.51.38S180 240.2 180 240s21.27-.37 47.52-.37 47.48.16 47.48.37z" fill="#fafafa"/><path d="M256.67 284.77c-.21 0-.12-11.77.2-26.27s.75-26.26.95-26.26.12 11.77-.2 26.27-.75 26.26-.95 26.26z" fill="#263238"/><path d="M247.27 265.69s13 .93 15.34 4.37 5.91 13.23 4.56 13.3a3.68 3.68 0 01-2.34-.73l-3.56-6.32s.57 6.1-1.56 6.22-12.71 2.24-12.71 2.24z" fill="#ffbe9d"/><path d="M179.56 251.32l-.05 33.51a12.73 12.73 0 0015.42 11.75l52.41-10.8-.11-21.49L202 273l-.6-22.75z" fill="#00b0b9"/><path d="M209.46 293.89a4.51 4.51 0 01.69-.19l2-.46 7.7-1.63 27.31-5.61-.27.32v-22.07l.44.37-9.22 1.77-36 6.85-.39.08V273c.34-10 .63-18.28.83-24.16.12-2.86.21-5.13.28-6.75 0-.73.07-1.32.1-1.77a2.7 2.7 0 01.07-.61 4.81 4.81 0 010 .61v1.78c0 1.62-.06 3.89-.1 6.75-.14 5.89-.33 14.19-.56 24.16l-.38-.31 36-7 9.22-1.76.44-.09v22.8l-.27.05L220 292l-7.74 1.45-2.05.36a3.47 3.47 0 01-.75.08zm30.06-87.42s.1.16.21.49a10.15 10.15 0 01.41 1.48 12.09 12.09 0 01-.25 5.64 14.82 14.82 0 01-4.54 7 14.14 14.14 0 01-9.54 3.61 13 13 0 01-9.43-3.83 13.25 13.25 0 01-3.51-7.59 11.86 11.86 0 01.66-5.61 7.74 7.74 0 01.67-1.38c.18-.3.28-.45.31-.44s-.32.67-.71 1.92a12.65 12.65 0 00-.41 5.44 13 13 0 003.48 7.18 12.42 12.42 0 008.94 3.56 13.62 13.62 0 009.08-3.37 14.63 14.63 0 004.5-6.66 12.67 12.67 0 00.46-5.44c-.17-1.28-.41-1.98-.33-2z" fill="#263238"/><path d="M242.05 287.56a15.75 15.75 0 010-3.31c.08-2 .18-4.84.2-7.94s0-5.91-.11-7.95a16.25 16.25 0 010-3.31 13.2 13.2 0 01.5 3.28c.19 2 .34 4.86.32 8s-.2 5.94-.41 8a13.55 13.55 0 01-.5 3.23zm-2.71.55a16.38 16.38 0 01-.09-3.29c0-2.31.05-5 .08-7.89V269a15.45 15.45 0 01.12-3.28 13.33 13.33 0 01.41 3.26c.13 2 .24 4.83.22 7.92s-.14 5.89-.3 7.92a13.58 13.58 0 01-.44 3.29z" fill="#fafafa"/><path d="M291.83 421.25l9.9 27.28 14.06 19.31a3 3 0 01-.83 4.27 3 3 0 01-2.71.23c-5.67-2.35-26.47-11.11-27.09-13.14-.71-2.36-14.14-31.7-14.14-31.7z" fill="#00b0b9"/><path d="M315 472.11l-30.51-14.74.45 1.15a4.54 4.54 0 002 2.32c2.5 1.35 9.5 4.92 25.23 11.53a3 3 0 002.79-.26zm-28.39-25.62a1.79 1.79 0 011.31 2 1.73 1.73 0 01-2 1.32 1.89 1.89 0 01-1.38-2.14 1.8 1.8 0 012.21-1.14" fill="#fff" opacity=".6"/><path d="M304.18 462.7a8.91 8.91 0 011.56-3c1.27-1.42 2.91-1.63 2.88-1.81s-.43-.15-1.1 0a4.76 4.76 0 00-3.43 3.74c-.09.66.02 1.07.09 1.07zm3.34 2.87c.17.07.7-1.15 1.94-2.1a22.3 22.3 0 012.51-1.36c0-.17-1.5-.24-2.9.86s-1.72 2.58-1.55 2.6zm-8.73-6.12c.18.08 1-1.79 2.78-3.43s3.71-2.32 3.65-2.5-2.17.24-4.08 2-2.51 3.91-2.35 3.93zm-3.7-8.04c.13.14 1.38-1.07 3.3-1.9s3.64-1 3.63-1.15-1.84-.34-3.89.57-3.13 2.39-3.04 2.48zm-3.09-7.93c.14.12 1.29-1.36 3.38-2.07s3.9-.31 3.94-.49-.41-.3-1.17-.42a6.5 6.5 0 00-5.5 1.92c-.54.58-.74 1.01-.65 1.06zm2.73-3.56a2.66 2.66 0 00-.37-1 7.61 7.61 0 00-1.85-2.36 3.36 3.36 0 00-1.94-1 1.2 1.2 0 00-1.16.74 1.93 1.93 0 000 1.38 4.2 4.2 0 004.89 2.32 4.86 4.86 0 003.54-4.11 1.7 1.7 0 00-.43-1.34 1.19 1.19 0 00-1.37-.14 4.16 4.16 0 00-1.42 1.62 8.69 8.69 0 00-1 2.82 2.46 2.46 0 000 1.1 13.23 13.23 0 011.46-3.68 3.92 3.92 0 011.27-1.38.62.62 0 01.75.07 1.16 1.16 0 01.24.89 4.36 4.36 0 01-3.11 3.53 3.63 3.63 0 01-4.14-1.88 1.39 1.39 0 01-.08-1 .65.65 0 01.64-.41 3.05 3.05 0 011.65.8 11.13 11.13 0 012.43 3.03z" fill="#263238"/><path d="M333.64 414.11l-.85 22.17s22.24 8.32 22.48 12.43l-43-.12-.12-34.59z" fill="#00b0b9"/><path d="M319.48 434.38a1.76 1.76 0 00-1.22 2 1.69 1.69 0 002 1.23 1.86 1.86 0 001.28-2.13 1.77 1.77 0 00-2.2-1.05m-7.11 14.16v-3.45l41.36 1.38s1.91.84 1.69 2.19z" fill="#fff" opacity=".6"/><path d="M333.48 436.06c0 .21-1.05.31-2.09 1s-1.59 1.56-1.78 1.47.12-1.3 1.39-2.09 2.53-.57 2.48-.38zm4.52 1.88c.05.21-.86.56-1.58 1.45s-.92 1.83-1.13 1.82-.34-1.2.57-2.29 2.14-1.18 2.14-.98zm2.54 5.41c-.19 0-.48-1 .07-2.15s1.52-1.61 1.61-1.43-.52.79-1 1.74-.47 1.82-.68 1.84zM333.12 431c-.09.19-1.05-.1-2.24 0s-2.12.45-2.23.27.79-.93 2.19-1 2.38.56 2.28.73z" fill="#263238"/><path d="M333.47 418.5l-.15 3.95-21.15-.25-.02-3.56 21.32-.14z" opacity=".3"/><path d="M333.21 426.52a4.19 4.19 0 01-2.16 0 10.17 10.17 0 01-2.25-.7 10 10 0 01-1.24-.66 3 3 0 01-.65-.51.92.92 0 01-.09-1.12 1.16 1.16 0 01.92-.48 2.71 2.71 0 01.81.12 8.43 8.43 0 011.34.46 7.56 7.56 0 012 1.31c1 .93 1.34 1.71 1.27 1.76s-.58-.59-1.6-1.36a8.37 8.37 0 00-1.92-1.09 7.37 7.37 0 00-1.23-.38c-.46-.13-.85-.13-1 .07s-.05.11 0 .24a2.23 2.23 0 00.48.38 11 11 0 001.14.65 12.11 12.11 0 002.08.8 13.74 13.74 0 012.1.51z" fill="#263238"/><path d="M332.93 426.82a3.59 3.59 0 01-.56-2.09 7.2 7.2 0 01.3-2.36 8 8 0 01.55-1.3 1.8 1.8 0 011.38-1.07 1 1 0 01.9.6 3.12 3.12 0 01.22.8 4.7 4.7 0 010 1.45 5 5 0 01-.93 2.22c-.84 1.11-1.72 1.36-1.74 1.29s.67-.51 1.31-1.58a4.82 4.82 0 00.69-2 4.4 4.4 0 000-1.25c-.06-.45-.23-.82-.4-.78s-.58.34-.76.71a7.54 7.54 0 00-.54 1.16 7.74 7.74 0 00-.42 2.15c-.1 1.23.12 2.01 0 2.05z" fill="#263238"/><path d="M312.19 307.84c-25.43 2.63-59.14 6.09-59.14 6.09l4.6 41.39s49.52-13.09 49.17-12 2.3 88.06 2.3 88.06h29.82l.56-98.53a24.77 24.77 0 00-27.31-25.01z" fill="#263238"/><path d="M192.21 324.54v12.83c0 8.74 9.95 18 18.68 18h6.76c5.32 0 13.66-3.88 18-7l2.58-1.89 31.06 96.21s35.53-6.37 35.53-7.49-24.06-78.8-35.17-114.85c-4.54-14.72-20.31-23.28-34.88-18.29-.49.17-1 .36-1.49.56-15.96 6.38-41.07 21.92-41.07 21.92z" fill="#263238"/><path d="M304.78 435.19a1.79 1.79 0 01-.15-.34c-.11-.27-.24-.61-.4-1-.34-.91-.83-2.25-1.41-4-1.19-3.47-2.82-8.54-4.8-14.81-4-12.53-9.28-29.9-15.06-49.1-2.88-9.61-5.61-18.76-8.11-27.1-1.24-4.16-2.41-8.12-3.51-11.83q-.84-2.78-1.6-5.35a47.09 47.09 0 00-1.62-4.87 20 20 0 00-5-7.11 42.9 42.9 0 00-5.26-4.09c-1.52-1-2.73-1.77-3.56-2.27l-.93-.59a1.25 1.25 0 01-.31-.22 1.28 1.28 0 01.34.16l1 .52c.85.46 2.09 1.17 3.64 2.16a39.78 39.78 0 015.38 4 20.14 20.14 0 015.22 7.2 47.09 47.09 0 011.68 4.91c.53 1.71 1.07 3.5 1.64 5.35l3.58 11.8c2.51 8.33 5.27 17.48 8.17 27.08 5.78 19.17 11 36.53 14.84 49.17l4.58 14.87 1.28 4c.13.43.23.77.32 1.05s.07.41.05.41zm7.5-104.31c.18.12-1.51 2.66-2.92 6.11s-2.05 6.43-2.27 6.39.1-3.14 1.58-6.68 3.46-5.94 3.61-5.82zm5.72 4c.08.2-2.48 1.33-5.15 3.44s-4.39 4.32-4.57 4.19 1.32-2.6 4.11-4.77 5.54-3.04 5.61-2.86zm-48.42 107.8c-.19.06-8.58-25.68-18.74-57.5s-18.22-57.67-18-57.73 8.58 25.68 18.74 57.51 18.2 57.66 18 57.72zm-38.11-150.09l101.65.98 18.96-53.58-73.94.5-17.16 48.18-29.51.45v3.47z" fill="#455a64"/><path d="M308.54 271.4a4.12 4.12 0 114.65-3.5 4.12 4.12 0 01-4.65 3.5z" fill="#fff"/><path d="M223.17 147.57c1-3.57 3.65-5.32 7.14-6.51a11.48 11.48 0 0110.5 1.7c2 1.5 3.5 3.67 5.84 4.48 3.84 1.33 8.34-1.54 12 .18a5.24 5.24 0 01-2.48 10c2.5.92 3.28 4.49 1.82 6.72s-4.47 3.07-7.1 2.58a14.72 14.72 0 01-6.89-3.86c-2-1.78-3.76-3.8-5.88-5.42a11.41 11.41 0 00-7.36-2.7c-3.61.19-6.7 2.91-8.31 6.15s-2 6.92-2.18 10.53-.26 7.27-1.33 10.72c-.13.41-.32.86-.72 1-.59.18-1.09-.44-1.38-1a53 53 0 01-6.05-19.71c-.41-4-.31-7.78 1.89-11.15s7.75-5.84 10.47-3.71" fill="#263238"/><path d="M216.2 164.3l-1.85 40.46c-.31 6.88.64 17.06 11.54 17.06 9.46-.72 12.25-9.56 12.54-16 .13-3 .25-5.58.29-5.89 0 0 10.34-.5 11.55-10.66.58-4.91 1-15.13 1.2-24.37a19.07 19.07 0 00-17-19.43l-1-.1c-10.67-.49-17.06 8.27-17.27 18.93z" fill="#ffbe9d"/><path d="M238.75 199.8a23.76 23.76 0 01-12.86-5.18s2.35 7.65 12.6 7.82z" fill="#eb996e"/><path d="M247.78 171.42a1.46 1.46 0 01-1.56 1.32 1.39 1.39 0 01-1.35-1.47 1.46 1.46 0 011.55-1.32 1.39 1.39 0 011.36 1.47zm.97-1.74c-.2.17-1.21-.76-2.78-.92s-2.79.5-2.94.29.15-.42.69-.73a4.05 4.05 0 012.38-.47 3.82 3.82 0 012.18 1c.44.4.57.76.47.83zm-16.36.64a1.46 1.46 0 01-1.56 1.32 1.41 1.41 0 01-1.36-1.47 1.48 1.48 0 011.56-1.32 1.4 1.4 0 011.36 1.47zm.96-1.98c-.2.17-1.21-.76-2.78-.93s-2.79.5-2.94.29.15-.41.69-.72a4 4 0 012.38-.47 3.89 3.89 0 012.18 1c.44.39.57.75.47.83zm4.44 12.2a10.23 10.23 0 012.59-.19c.41 0 .79 0 .89-.3a2.15 2.15 0 00-.14-1.22c-.28-1-.56-2.06-.86-3.16-1.18-4.5-2-8.19-1.81-8.24s1.29 3.57 2.47 8.07c.28 1.11.55 2.17.8 3.18a2.27 2.27 0 010 1.59 1 1 0 01-.71.52 2.74 2.74 0 01-.69 0 10.67 10.67 0 01-2.54-.25zm-4.71.59c.25 0 .08 1.71 1.4 3.07s3.15 1.36 3.14 1.6-.44.29-1.21.23a4.28 4.28 0 01-2.63-1.25 3.69 3.69 0 01-1.06-2.56c.01-.71.28-1.11.36-1.09zm1.33-18.88c-.2.41-1.74 0-3.6.07s-3.39.37-3.6 0c-.08-.19.22-.56.86-.91a6.19 6.19 0 015.48 0c.64.28.95.65.86.84zm14.25 2.85c-.31.32-1.35-.16-2.64-.32s-2.42 0-2.63-.41c-.1-.19.11-.53.63-.82a3.73 3.73 0 012.21-.35 3.67 3.67 0 012 .94c.46.41.57.8.43.96z" fill="#263238"/><path d="M216.23 171.92c-.17-.09-6.77-2.81-7.29 4.17s6.6 6.06 6.62 5.86.67-10.03.67-10.03z" fill="#ffbe9d"/><path d="M213.63 179.15s-.13.08-.34.16a1.27 1.27 0 01-.91-.05 3.05 3.05 0 01-1.2-2.81 4.05 4.05 0 01.47-1.71 1.42 1.42 0 011-.87.63.63 0 01.69.39c.08.2 0 .34.06.35s.16-.1.13-.4a.74.74 0 00-.25-.45.9.9 0 00-.66-.23 1.73 1.73 0 00-1.35 1 4.19 4.19 0 00-.56 1.91c-.06 1.41.56 2.78 1.55 3.15a1.3 1.3 0 001.12-.11c.22-.16.27-.32.25-.33z" fill="#eb996e"/><path d="M253.85 163a14.81 14.81 0 01-12.74-4.33c-2.25-2.36-3.84-5.58-6.84-6.87a8.34 8.34 0 00-6.41.19 16 16 0 00-5.26 3.9c1.41 5.38-.52 11-2.43 16.23a2.79 2.79 0 01-1 1.52c-.89.55-2.07-.08-2.71-.91a8.63 8.63 0 01-1.4-4.73 28.69 28.69 0 011.26-11.28 19.68 19.68 0 016.4-9.26 18.54 18.54 0 0113.49-3.46 22.75 22.75 0 0112.64 6.09 13.33 13.33 0 013.75 5.38" fill="#263238"/><path d="M58.32 378.08A18.91 18.91 0 0170 376.65c2.12.35 4.34 1 5.79 2.59s1.72 4.41.06 5.78a5.56 5.56 0 01-3.65.92c-3.1 0-6.54-.58-9 1.29-1.42 1.06-2.36 2.83-4 3.35a4 4 0 01-4.39-1.95 6.86 6.86 0 01-.49-5 7.68 7.68 0 014-5.55zm-8.17-15.77c2.18 3.11 6.42 2.08 8.38.18s2.8-4.65 3.55-7.28c1.73-6 3.47-12.3 2.19-18.41a10.23 10.23 0 00-2.36-5 5.34 5.34 0 00-5.06-1.69c-2.13.57-3.46 2.66-4.42 4.65a43.87 43.87 0 00-4.34 18.83c0 3 .35 6.22 2.06 8.72m-5.99 4.47a11.34 11.34 0 001.77-10.43 20.13 20.13 0 00-6.18-9 33.15 33.15 0 00-11-6.53 11.86 11.86 0 00-5-.84 5.22 5.22 0 00-4.17 2.52c-1.16 2.22-.05 4.91 1.16 7.11A84.27 84.27 0 0028 360.72c2.18 2.8 4.67 5.57 8 6.84s6.76 1.12 8.52-1.18" fill="#00b0b9"/><path d="M50 409.27a6.52 6.52 0 00.2-1.41c.1-1 .23-2.32.38-3.86a55.86 55.86 0 01.86-5.66 44.36 44.36 0 012.06-6.69 24.73 24.73 0 013.42-6 12.72 12.72 0 014.31-3.65 11.62 11.62 0 013.63-1.13 7 7 0 001.41-.21 7.14 7.14 0 00-1.43 0 10.81 10.81 0 00-3.79 1 12.58 12.58 0 00-4.55 3.61 24.24 24.24 0 00-3.5 6.16 40.82 40.82 0 00-2 6.8 47.89 47.89 0 00-.76 5.73c-.12 1.64-.16 3-.19 3.89a6.56 6.56 0 00-.05 1.42z" fill="#263238"/><path d="M50.27 406.3a3 3 0 000-.65v-1.88c0-1.63 0-4 .09-6.9.14-5.82.64-12.09 1.61-20.92.92-8.31 2.15-18 3.45-24.26.27-1.43.55-2.72.82-3.84s.47-2.1.67-2.89.33-1.35.44-1.83a2.62 2.62 0 00.12-.64 2.37 2.37 0 00-.23.61c-.15.47-.33 1.07-.55 1.8s-.49 1.75-.77 2.87-.6 2.41-.91 3.83a215.52 215.52 0 00-3.62 22.51C50.45 383 50 391 50 396.87c0 2.91 0 5.28.1 6.91 0 .76.09 1.38.12 1.87a2.46 2.46 0 00.05.65z" fill="#263238"/><path d="M50.31 390.76a12.76 12.76 0 000-2 52.54 52.54 0 00-.6-5.32 70.48 70.48 0 00-1.71-7.7 63.67 63.67 0 00-3.24-9.16 48.93 48.93 0 00-9.51-14.8A25.58 25.58 0 0033 349.7c-.35-.29-.65-.57-1-.8l-.87-.6a12.35 12.35 0 00-1.65-1.06 58.19 58.19 0 015.41 4.83 51.27 51.27 0 019.27 14.75 72.46 72.46 0 013.26 9.07c.85 2.85 1.41 5.46 1.84 7.66s.64 4 .78 5.27a11.71 11.71 0 00.27 1.94zm-15.03 27.42l1.56 21.34h27.42l1.55-21.34H35.28zm-2.65-8.41h36.45v8.41H32.63z" fill="#263238"/><path fill="#455a64" d="M32.63 438.71v2.33h35.85v-2.33H32.63zm3.39 6.43l-1.68-4.1h32.84l-1.96 4.1h-29.2z"/><path d="M65.31 425.16a2.07 2.07 0 01-.13.19l-.41.55-1.6 2-.07.09-.07-.09-3.92-5.43h.22L55.47 428l-.12.17-.14-.16c-1.42-1.7-3-3.54-4.58-5.45h.26c-.07.1-.16.2-.25.31L46.55 428l-.14.17-.13-.18-3.86-5.47h.22L37.88 428l-.08.09-.07-.11c-.62-1.05-1.12-1.89-1.49-2.5l-.38-.67-.12-.23s.07.06.16.21l.43.64 1.56 2.46h-.15l4.69-5.48.11-.14.11.15 3.9 5.44h-.26l4.09-5.14.25-.32.13-.16.13.16 4.57 5.46h-.26l3.91-5.44.11-.16.11.16 3.84 5.48H63l1.67-2 .44-.52c.13-.17.19-.23.2-.22z" fill="#e0e0e0"/><path d="M66.2 418c0 .1-6.87.17-15.35.17s-15.34-.07-15.34-.17 6.87-.17 15.34-.17 15.35.17 15.35.17z" fill="#455a64"/><path d="M67.58 441.27c0 .09-7.47.17-16.67.17s-16.68-.08-16.68-.17 7.47-.17 16.68-.17 16.67.08 16.67.17zm324.13-245.71l-19.05 79.67h5.33l18.76-79.67h-5.04z" fill="#263238"/><path d="M384.39 248c-.34 1.46 8.63 44.89 8.63 44.89h-4.32l-6.77-34.42z" fill="#263238"/><path fill="#00b0b9" d="M358.6 350.33h89.23v94.59H358.6z"/><path fill="#263238" d="M447.82 364.15h4.38v4.38h-4.38zm0 13.91h4.38v4.38h-4.38zm0 13.91h4.38v4.38h-4.38zm0 13.91h4.38v4.38h-4.38z"/><path d="M452.37 393.25a7 7 0 011.34-.29 21.33 21.33 0 013.76-.36 10.09 10.09 0 015.42 1.43 6.26 6.26 0 013 6 7.55 7.55 0 01-1.14 3.43 9 9 0 01-2.3 2.44 11.75 11.75 0 01-5.22 2.06 16.93 16.93 0 01-3.77.13 6 6 0 01-1.37-.19 8.53 8.53 0 011.37 0 19.94 19.94 0 003.71-.29 11.71 11.71 0 005-2.08 7.69 7.69 0 003.21-5.53 5.8 5.8 0 00-2.75-5.56 9.93 9.93 0 00-5.17-1.46 26 26 0 00-3.72.19 6.7 6.7 0 01-1.37.08z" fill="#263238"/><path d="M451.28 379.42a1.84 1.84 0 01.41-.25 9.06 9.06 0 011.3-.52 10.23 10.23 0 015.13-.29 4.68 4.68 0 011.63.65 2.83 2.83 0 011.15 1.56 4.75 4.75 0 01-2.85 5.35 2.91 2.91 0 01-2.41-.13 2.47 2.47 0 01-1.39-2.1 2.52 2.52 0 011.42-2.17 3.84 3.84 0 012.55-.27 5.42 5.42 0 012.23 1.06 6 6 0 012.22 4 5.58 5.58 0 01-1.14 4 8.08 8.08 0 01-2.74 2.31 13 13 0 01-5 1.3c-.6.05-1.07.07-1.39.07a1.56 1.56 0 01-.49 0s.67-.09 1.86-.24a13.87 13.87 0 004.82-1.42 7.85 7.85 0 002.57-2.25 5.21 5.21 0 001-3.65 5.53 5.53 0 00-2.06-3.63 4.79 4.79 0 00-2-.95 3.41 3.41 0 00-2.21.22 2 2 0 00-1.14 1.71 2 2 0 001.11 1.65 2.37 2.37 0 002 .11 3.9 3.9 0 001.65-1.2 4.06 4.06 0 001-3.56 3 3 0 00-2.45-2 10.56 10.56 0 00-5 .12c-1.17.25-1.76.57-1.78.52z" fill="#263238"/><path d="M451.32 365.85a2.37 2.37 0 011-.18 7 7 0 012.68.33 7.56 7.56 0 013.33 2.25 7.35 7.35 0 011.73 4.6 7.45 7.45 0 01-1.44 4.7 7.54 7.54 0 01-3.22 2.45 7 7 0 01-2.65.54 2.31 2.31 0 01-1-.12 9.88 9.88 0 003.48-.75 7.49 7.49 0 002.95-2.4 7.29 7.29 0 00-.26-8.7 7.63 7.63 0 00-3.09-2.21 9.85 9.85 0 00-3.51-.51z" fill="#263238"/><path d="M385.09 300.07a8.61 8.61 0 01.75 1.77 33.75 33.75 0 011.19 5.37c.37 2.36.68 5.27 1 8.64s.59 7.23 1.13 11.46c.14 1.05.31 2.13.53 3.22a14.18 14.18 0 001 3.22 11.75 11.75 0 002.19 2.7 17.1 17.1 0 0010.09 4.68 14.2 14.2 0 007.88-1.36 9.55 9.55 0 005.09-6.4 7.35 7.35 0 00-.3-4.25 7.51 7.51 0 00-2.77-3.35 8.32 8.32 0 00-4.22-1.4 6.67 6.67 0 00-4.27 1.25 4.68 4.68 0 00-1.45 1.71 3.49 3.49 0 00-.28 2.18 5.27 5.27 0 002.77 3.52 12.75 12.75 0 004.56 1.26 42.11 42.11 0 004.74.33 75.4 75.4 0 009.32-.52c6.08-.68 12-1.66 17.63-1.72s11.14.72 15.71 3a18.5 18.5 0 015.84 4.37 13.39 13.39 0 013 6 16.16 16.16 0 01-1.75 11.25 18.93 18.93 0 01-5.93 6.33 22.34 22.34 0 01-4.9 2.5 15.14 15.14 0 01-1.84.55l.46-.17c.31-.09.76-.26 1.34-.48a23.09 23.09 0 004.83-2.57 18.94 18.94 0 005.79-6.3 16 16 0 001.63-11 13.23 13.23 0 00-3-5.82 18.1 18.1 0 00-5.73-4.24c-4.5-2.18-9.91-3-15.51-2.87s-11.48 1.05-17.59 1.74a72.3 72.3 0 01-9.38.54 43.17 43.17 0 01-4.8-.33 13.19 13.19 0 01-4.74-1.32 5.81 5.81 0 01-3-3.88 4.05 4.05 0 01.32-2.5 5.21 5.21 0 011.61-1.9 7.2 7.2 0 014.6-1.36 8.91 8.91 0 014.49 1.5 8 8 0 012.95 3.58 7.88 7.88 0 01.32 4.55 10 10 0 01-5.36 6.71 14.58 14.58 0 01-8.15 1.39 17.27 17.27 0 01-7.38-2.54 17.1 17.1 0 01-2.95-2.29 12 12 0 01-2.26-2.82 14.48 14.48 0 01-1-3.33q-.32-1.65-.51-3.24c-.52-4.25-.77-8.1-1.06-11.48s-.57-6.28-.9-8.64a36.24 36.24 0 00-1.09-5.37 12.93 12.93 0 00-.47-1.35 4.57 4.57 0 01-.17-.52z" fill="#263238"/><path d="M442.75 441v-6.31c0-4.11 0-10.11-.06-17.72 0-15.23-.07-36.93-.12-62.89l.23.23h-80.65l.26-.26v86.92l-.22-.22 58.44.11 16.39.06h5.83-1.45l-4.4.08-16.33.06-58.59.11h-.23v-87.35H443v.18l-.12 63c0 7.6 0 13.58-.06 17.67v5.83c0 .28-.07.5-.07.5z" fill="#263238"/><path d="M420 364.73a.41.41 0 01-.41.42.42.42 0 110-.83.41.41 0 01.41.41zm2.31 0a.41.41 0 01-.41.42.42.42 0 110-.83.41.41 0 01.41.41zm2.28 0a.41.41 0 01-.41.42.42.42 0 110-.83.41.41 0 01.41.41zm2.28 0a.42.42 0 11-.42-.41.42.42 0 01.42.41zm2.28 0a.42.42 0 01-.42.42.42.42 0 010-.83.42.42 0 01.42.41zm2.28 0a.42.42 0 01-.42.42.42.42 0 010-.83.42.42 0 01.42.41zm2.28 0a.42.42 0 01-.42.42.42.42 0 010-.83.42.42 0 01.42.41z" fill="#263238"/><circle cx="432.24" cy="366.27" r=".41" fill="#263238"/><circle cx="429.91" cy="366.27" r=".41" fill="#263238"/><path d="M428 366.27a.41.41 0 01-.41.41.41.41 0 01-.42-.41.42.42 0 01.42-.42.41.41 0 01.41.42z" fill="#263238"/><circle cx="425.25" cy="366.27" r=".41" fill="#263238"/><circle cx="422.91" cy="366.27" r=".41" fill="#263238"/><path d="M421 366.27a.41.41 0 01-.42.41.41.41 0 01-.41-.41.41.41 0 01.41-.42.42.42 0 01.42.42zm-1 1.73a.41.41 0 01-.41.41.41.41 0 01-.42-.41.42.42 0 01.42-.42.41.41 0 01.41.42zm2.31 0a.41.41 0 01-.41.41.41.41 0 01-.42-.41.42.42 0 01.42-.42.41.41 0 01.41.42zm2.28 0a.41.41 0 01-.41.41.41.41 0 01-.42-.41.42.42 0 01.42-.42.41.41 0 01.41.42zm2.28 0a.42.42 0 01-.83 0 .42.42 0 11.83 0zm2.28 0a.41.41 0 01-.42.41.41.41 0 01-.41-.41.41.41 0 01.41-.42.42.42 0 01.42.42zm2.28 0a.41.41 0 01-.42.41.41.41 0 01-.41-.41.41.41 0 01.41-.42.42.42 0 01.42.42zm2.28 0a.41.41 0 01-.42.41.41.41 0 01-.41-.41.41.41 0 01.41-.42.42.42 0 01.42.42zm-1.05 1.53a.42.42 0 01-.42.42.41.41 0 01-.41-.42.41.41 0 01.41-.41.41.41 0 01.42.41zm-2.34 0a.41.41 0 01-.41.42.42.42 0 01-.42-.42.41.41 0 01.42-.41.41.41 0 01.41.41zm-2.32 0a.41.41 0 01-.41.42.42.42 0 01-.42-.42.41.41 0 01.42-.41.41.41 0 01.41.41zm-2.34 0a.41.41 0 01-.41.42.42.42 0 01-.42-.42.41.41 0 01.42-.41.41.41 0 01.41.41zm-2.33 0a.42.42 0 11-.83 0 .42.42 0 01.83 0zm-2.33 0a.42.42 0 01-.42.42.41.41 0 01-.41-.42.41.41 0 01.41-.41.41.41 0 01.42.41zm-1 1.73a.41.41 0 01-.41.42.42.42 0 01-.42-.42.41.41 0 01.42-.41.41.41 0 01.41.41zm2.31 0a.41.41 0 01-.41.42.42.42 0 01-.42-.42.41.41 0 01.42-.41.41.41 0 01.41.41zm2.28 0a.41.41 0 01-.41.42.42.42 0 01-.42-.42.41.41 0 01.42-.41.41.41 0 01.41.41zm2.28 0a.42.42 0 11-.83 0 .42.42 0 01.83 0zm2.28 0a.42.42 0 01-.42.42.41.41 0 01-.41-.42.41.41 0 01.41-.41.41.41 0 01.42.41zm2.28 0a.42.42 0 01-.42.42.41.41 0 01-.41-.42.41.41 0 01.41-.41.41.41 0 01.42.41zm2.28 0a.42.42 0 01-.42.42.41.41 0 01-.41-.42.41.41 0 01.41-.41.41.41 0 01.42.41z" fill="#263238"/><circle cx="432.24" cy="372.8" r=".41" fill="#263238"/><circle cx="429.91" cy="372.8" r=".41" fill="#263238"/><path d="M428 372.8a.41.41 0 01-.41.41.42.42 0 110-.83.41.41 0 01.41.42z" fill="#263238"/><circle cx="425.25" cy="372.8" r=".41" fill="#263238"/><circle cx="422.91" cy="372.8" r=".41" fill="#263238"/><path d="M421 372.8a.42.42 0 01-.42.41.42.42 0 010-.83.42.42 0 01.42.42z" fill="#263238"/><path d="M388.5 271.29a5.23 5.23 0 011.62.29 9.09 9.09 0 013.94 2.57 17.15 17.15 0 013.49 6.6 65.44 65.44 0 012.19 9.67 122 122 0 01.64 25.75 15.11 15.11 0 01-2.24 7.14 9.19 9.19 0 01-2.82 2.73 6.32 6.32 0 01-3.9.93 6.06 6.06 0 01-3.71-1.73 4.53 4.53 0 01-1.09-1.81 3.84 3.84 0 010-2.15 4.61 4.61 0 012.79-3.15 3.29 3.29 0 012.21 0 3.94 3.94 0 011.76 1.33 5.46 5.46 0 011 4.14 11.26 11.26 0 01-1.45 3.94 15.23 15.23 0 01-20.5 5.94 17.4 17.4 0 01-5.4-4.65 22.78 22.78 0 01-3.33-5.83 38.5 38.5 0 01-2.19-11.8c-.19-3.67 0-7-.35-9.88a16.89 16.89 0 00-.93-3.9 11.13 11.13 0 00-1.67-2.92 8.41 8.41 0 00-3.72-2.75 12 12 0 00-1.59-.38 5.31 5.31 0 011.63.29 8.18 8.18 0 013.83 2.71 11.08 11.08 0 011.75 3 16.88 16.88 0 011 4c.39 2.91.21 6.24.43 9.89a38.46 38.46 0 002.23 11.67 22.46 22.46 0 003.23 5.74 17 17 0 005.27 4.51 14.75 14.75 0 0019.82-5.78 10.74 10.74 0 001.38-3.75 4.92 4.92 0 00-.87-3.76 3.56 3.56 0 00-1.53-1.16 2.76 2.76 0 00-1.86 0 4.1 4.1 0 00-2.46 2.79 3.59 3.59 0 001 3.47 5.53 5.53 0 003.39 1.58 5.8 5.8 0 003.59-.85 8.65 8.65 0 002.67-2.58 14.65 14.65 0 002.17-6.91 123.82 123.82 0 00-.52-25.65 67 67 0 00-2.11-9.63 17.1 17.1 0 00-3.36-6.55 9.12 9.12 0 00-3.82-2.61 12.17 12.17 0 00-1.61-.5z" fill="#e0e0e0"/><path fill="#e0e0e0" d="M347.43 285.76h33.22v6.33h-33.22z"/><path fill="#263238" d="M97.52 351.2h43.33v93.27H97.52z"/><path d="M137.13 434.65v-6.03c0-3.9 0-9.55-.07-16.66 0-14.22-.07-34.24-.12-57.53l.25.24h-36.25l.26-.26c0 31.16 0 59.46-.07 80.22l-.19-.19 26.47.1 7.24.05h2.55-9.67l-26.59.1h-.18v-.19c0-20.76 0-49.06-.08-80.22v-.26h36.77v.25c0 23.36-.09 43.44-.12 57.7 0 7.08 0 12.72-.07 16.6v5.54c0 .27-.13.54-.13.54z" fill="#455a64"/><path d="M134.89 361.22v-1c0-.65 0-1.56-.06-2.7l.11.11c-5.61.09-17.63.15-31.52.15l.26-.26v3.67l-.25-.26c8.81 0 16.65.06 22.32.11l6.71.07h1.83a3.3 3.3 0 01.66 0 4.08 4.08 0 01-.59 0h-1.78l-6.64.07c-5.66.06-13.59.11-22.51.11h-.26v-3.93l.27-.26c13.89 0 25.91.06 31.52.15h.04v.11c0 1.17 0 2.09-.06 2.77a8.53 8.53 0 01-.05 1.09zm-28.35 2.64c0 .14-.65.26-1.45.26s-1.46-.12-1.46-.26.65-.26 1.46-.26 1.45.11 1.45.26zm27.51 4.81c0 .14-6.71.26-15 .26s-15-.12-15-.26 6.7-.26 15-.26 15 .12 15 .26zm.13 5.81c0 .15-6.6.26-14.73.26s-14.73-.11-14.73-.26 6.59-.26 14.73-.26 14.73.12 14.73.26z" fill="#455a64"/><circle cx="119.06" cy="388.07" r="2.38" fill="#00b0b9"/><path d="M112.34 388a10.14 10.14 0 01-3.19.26A10.05 10.05 0 01106 388a9.72 9.72 0 013.18-.26 9.81 9.81 0 013.16.26zm19.36-.66a8.91 8.91 0 01-3 .26 8.88 8.88 0 01-3-.26 9.18 9.18 0 013-.26 9.22 9.22 0 013 .26z" fill="#455a64"/><path d="M99 398a9.25 9.25 0 01-1.62-.3 14.19 14.19 0 01-4.29-2 18.38 18.38 0 01-5.17-5.39 31.16 31.16 0 01-3.77-9.16A37.4 37.4 0 0183 369.22a24.5 24.5 0 014.55-12.94 20.42 20.42 0 015.43-5.16 18.9 18.9 0 013.49-1.73 19.39 19.39 0 013.86-.92c2.64-.37 5.34-.32 8-.48a19.92 19.92 0 007.91-1.82 8.88 8.88 0 004.92-6 8.43 8.43 0 00-8.42-10.3 6 6 0 00-3.34 1.24 3.62 3.62 0 00-1.4 3 4.85 4.85 0 004.46 4.31 7.35 7.35 0 005.72-2.57 13.76 13.76 0 002.82-5.45 47 47 0 001.15-5.61 92.48 92.48 0 00.53-17.31c-.1-2-.18-3.61-.24-4.71q0-.78-.06-1.23a2.21 2.21 0 010-.42 2.29 2.29 0 01.06.42c0 .3.06.7.11 1.22.08 1.08.21 2.66.33 4.71a88.2 88.2 0 01-.37 17.37 46.56 46.56 0 01-1.13 5.67 14.19 14.19 0 01-2.83 5.61 7.76 7.76 0 01-6.07 2.73 5.3 5.3 0 01-4.91-4.74 4.13 4.13 0 011.57-3.42 6.38 6.38 0 013.61-1.35 9 9 0 017.09 14.66 10.3 10.3 0 01-3.35 2.61 20.41 20.41 0 01-8.12 1.88c-2.73.16-5.42.11-8 .46a19.44 19.44 0 00-3.76.89 17.84 17.84 0 00-3.39 1.68 20.12 20.12 0 00-5.32 5 24.16 24.16 0 00-4.5 12.68 37.41 37.41 0 001.12 11.83 31.49 31.49 0 003.66 9.09 18.34 18.34 0 005 5.38 14.78 14.78 0 004.21 2.06c.51.15.91.24 1.18.3a1.82 1.82 0 01.43.14zM84.25 206.51h102.6v70.46H84.25z" fill="#263238"/><path fill="#263238" d="M127.62 267.36h13.97v26.58h-13.97z"/><g fill="#263238"><path d="M94.46 292.92v9.56h52.94v142.46h4.87V302.48l221.09 1.09v141.37h4.78V303.31l34.12.27v-11.49l-317.8.83z"/><path d="M128.34 300.62l20.87 15.03-1.81 1.74-21.05-15.85 1.99-.92zm269.47 1.4l-24.22 17.25 1.82 1.74 24.39-18.07-1.99-.92zm-226.37-12.63h54.72v4.03h-54.72z"/></g></svg>