<svg xmlns="http://www.w3.org/2000/svg" viewBox="0 0 750 500"><path d="M425.84 400.54c-2.18-4.89-7.92-15.86-7.92-15.86l12-3.8 2.29 2.66v-4h7.61l.43 17.83a3 3 0 01-2.33 3l-8.75 1.88a3 3 0 01-3.33-1.71z" fill="#e0e0e0"/><path d="M432.5 397.62c0 .95 3.71 24.15 3.71 24.15h3.33l-4.76-24.15zm10.71-2.62l-3.41 26.8h3.61l3.3-26.36a1.76 1.76 0 00-1.75-2 1.77 1.77 0 00-1.75 1.56z" fill="#e0e0e0"/><rect x="400.85" y="429.35" width="16.16" height="27.85" rx="2.1" fill="#00b0b9"/><path d="M407.48 424.44H410a3.89 3.89 0 013.89 3.89v1h-10.3v-1a3.89 3.89 0 013.89-3.89z" fill="#455a64"/><path fill="#fff" d="M400.85 438.12h9.16v11.33h-9.16z"/><path fill="#f5f5f5" d="M419.78 410.55h38.35v46.7h-38.35z"/><path d="M458.12 457.24a2.07 2.07 0 010-.23v-3.2c0-2.24 0-5.48-.06-9.57 0-8.21-.07-19.85-.12-33.69l.23.23h-38.34l.26-.26v46.76l-.21-.21 27.77.11 7.79.06h2.78-2.67l-7.74.06-27.91.11h-.22V410.5c-.24.23.31-.32.26-.26h38.57v.24c0 13.91-.08 25.6-.11 33.84 0 4.07-.05 7.29-.06 9.52v3.13c0 .16-.21.28-.22.27z" fill="#263238"/><path d="M458.19 413.11c0 .14-8.53.26-19.06.26s-19.05-.12-19.05-.26 8.53-.26 19.05-.26 19.06.15 19.06.26zm0 2.89c0 .14-8.53.26-19.06.26s-19.05-.12-19.05-.26 8.53-.26 19.05-.26 19.06.15 19.06.26zm0 3c0 .14-8.53.26-19.06.26s-19.05-.12-19.05-.26 8.53-.26 19.05-.26 19.06.07 19.06.26zm0 2.87c0 .14-8.53.26-19.06.26s-19.05-.12-19.05-.26 8.53-.26 19.05-.26 19.06.11 19.06.26zm0 2.92c0 .14-8.53.26-19.06.26s-19.05-.12-19.05-.26 8.53-.26 19.05-.26 19.06.11 19.06.26zm0 2.92c0 .14-8.53.26-19.06.26s-19.05-.12-19.05-.26 8.53-.26 19.05-.26 19.06.11 19.06.26zm0 2.92c0 .14-8.53.26-19.06.26s-19.05-.12-19.05-.26 8.53-.27 19.05-.27 19.06.12 19.06.27zm0 2.91c0 .15-8.53.26-19.06.26s-19.05-.11-19.05-.26 8.53-.26 19.05-.26 19.06.12 19.06.26zm0 2.92c0 .15-8.53.26-19.06.26s-19.05-.11-19.05-.26 8.53-.26 19.05-.26 19.06.12 19.06.26zm0 2.92c0 .15-8.53.26-19.06.26s-19.05-.11-19.05-.26 8.53-.26 19.05-.26 19.06.12 19.06.26zm0 2.92c0 .15-8.53.26-19.06.26s-19.05-.11-19.05-.26 8.53-.26 19.05-.26 19.06.12 19.06.26zm0 2.92c0 .14-8.53.26-19.06.26s-19.05-.12-19.05-.26 8.53-.26 19.05-.26 19.06.12 19.06.26zm0 2.92c0 .14-8.53.26-19.06.26s-19.05-.12-19.05-.26 8.53-.26 19.05-.26 19.06.12 19.06.26zm0 2.92c0 .14-8.53.26-19.06.26s-19.05-.12-19.05-.26 8.53-.26 19.05-.26 19.06.11 19.06.26zm0 2.94c0 .14-8.53.26-19.06.26s-19.05-.12-19.05-.26 8.53-.26 19.05-.26 19.06.09 19.06.26z" fill="#e0e0e0"/><path fill="#fff" d="M425.6 427.7h26.69v11.69H425.6z"/><path d="M452.29 439.39v-3.19c0-2.06-.06-4.95-.1-8.5l.18.18-26.68.08.26-.26v11.67l-.25-.25 19.08.12 5.57.07h2.04a2.62 2.62 0 01-.48 0h-1.45l-5.51.07-19.25.12h-.24v-11.92c0 .05.5-.5.27-.26l26.68.07h.19v.19c0 3.59-.08 6.52-.1 8.61 0 1 0 1.73-.05 2.31a3.9 3.9 0 01-.16.89z" fill="#263238"/><path d="M446.79 432.53a129.44 129.44 0 01-16.4 0 129.44 129.44 0 0116.4 0zm0 2.4a129.44 129.44 0 01-16.4 0 129.44 129.44 0 0116.4 0z" fill="#263238"/><path d="M420.25 410.77c-.31 1.25.95 2.42 2.22 2.6a11 11 0 003.8-.53 4 4 0 013.64.67c.94.95.9 2.45 1.1 3.76s1.1 2.84 2.42 2.67a2.43 2.43 0 001.79-2.06 21.1 21.1 0 01.48-2.88 2 2 0 012.2-1.48c1.33.38 1.7 2.62 3.08 2.57s1.47-1.89 2.35-2.8a2.86 2.86 0 012.43-.67 20.31 20.31 0 012.52.66 10.18 10.18 0 009.86-2.87" fill="#00b0b9"/><path d="M676.13 457.51c0 .14-134.83.26-301.12.26s-301.14-.12-301.14-.26 134.8-.26 301.14-.26 301.12.11 301.12.26z" fill="#263238"/><g fill="#263238"><rect x="326.78" y="403.43" width="88.28" height="11.48" rx="5.52"/><path d="M348 421.77h47.58s-6.33 12.65-24.77 12.65c-19.28 0-22.81-12.65-22.81-12.65z"/></g><path d="M560.77 156.37A75.89 75.89 0 00564.3 137l1.57-3.71c2.27-2.55 6.36-3 9.41-1.43a12.3 12.3 0 016 7.92 27.16 27.16 0 01.36 10.17c-.25 2.2-.47 4.81 1.22 6.26a22 22 0 011.9 1.39 3 3 0 01-.22 3.95 4.09 4.09 0 01-4.07.83 4.14 4.14 0 11-8 2 4.32 4.32 0 01-3.61 2.77 8.12 8.12 0 01-4.63-1c-1.92-1-3.73-2.5-4.19-4.6-.43-1.69.19-3.48.73-5.18z" fill="#263238"/><path d="M575.54 167.31s.12.06.39.07A2.06 2.06 0 00577 167a2.56 2.56 0 001-1.52 4.33 4.33 0 00-.19-2.41 25.12 25.12 0 00-1.21-2.63 9.52 9.52 0 01-.86-3.11 22.71 22.71 0 01.8-7.42 25 25 0 00.93-7.55 8.57 8.57 0 00-2.44-5.67 6 6 0 00-3.79-1.73 3.23 3.23 0 00-1.52.2 7.83 7.83 0 011.51 0 6.13 6.13 0 013.59 1.79 8.33 8.33 0 012.25 5.48 25.5 25.5 0 01-1 7.42 22.57 22.57 0 00-.78 7.57 10 10 0 00.93 3.22 28.3 28.3 0 011.25 2.57 4.16 4.16 0 01.25 2.26 2.43 2.43 0 01-.89 1.43 2.12 2.12 0 01-1.29.41z" fill="#455a64"/><path d="M570.62 138.3a10.41 10.41 0 00-1.26-3.7 4.38 4.38 0 00-3.12-2.16 2.82 2.82 0 00-3 1.94l.75-.59a12.1 12.1 0 00-2.4 9.05c.32 2.15 1.5 4.45 3.61 5s4.34-1 5.19-3.07a11.22 11.22 0 00.23-6.47z" fill="#00b0b9"/><path d="M566.9 143.53a3.19 3.19 0 002 .45 4.46 4.46 0 001.45-.32c.37-.15.48-.43.44-.44a1.88 1.88 0 01-.51.26 6.46 6.46 0 01-1.4.23 13 13 0 01-1.98-.18zm-1.04-3.79a12.19 12.19 0 002.46 0 10.86 10.86 0 002.45-.21 11.47 11.47 0 00-2.46-.05 10.77 10.77 0 00-2.45.26zm.82-4.07a6.58 6.58 0 001.65-.1 4.2 4.2 0 011.12.06c.29.06.46.14.48.1s-.13-.16-.42-.28a2.85 2.85 0 00-1.2-.15 4.36 4.36 0 00-1.63.37zm-5.21-10.28c.06-2.15-1.93-3.81-3.92-4.59s-4.23-1.09-6-2.29c-1.58-1.06-2.64-2.71-4-4.07a13.22 13.22 0 00-22.24 6.07c-.77 3.06-.25 6.67 2.17 8.71 2.79 2.35 6.94 1.83 10.53 1.1s7.64-1.46 10.63.64c1.81 1.27 2.84 3.34 4 5.25s2.48 3.86 4.57 4.58 4.92-.52 5-2.73" fill="#263238"/><path d="M561.32 126.57c-.23 1.8 1.07 3.41 2.37 4.68s2.76 2.62 3 4.42c.26 2.1-1.27 4.18-.83 6.25.29 1.32 1.31 2.33 1.93 3.52a7.47 7.47 0 01.38 5.52c-.53 1.81-1.38 5.86-2.64 7.27a29.07 29.07 0 01-14.13 8.43 54.35 54.35 0 01-15.6.85c-4.27-.26-9.18-.06-12.74-5.94-1.84-3-2.76-7.09-3.74-10.51-.84-2.94-1.57-6.09-.69-9 .51-1.71 1.54-3.23 2-4.94.63-2.14.4-4.43.65-6.64a15.23 15.23 0 0121.68-12" fill="#263238"/><path d="M523.36 134c.4-6.13 4.48-13.64 10.58-13l19.06 4.83a3.59 3.59 0 013.21 3.65l-2.1 45a5.87 5.87 0 01-.53 2.21c-1.41 3.12-6.12 11.05-16.33 7.84-2.5-.79-3.64-3.52-4.14-6.33 0-.33-.13-.63-.14-.95a30.31 30.31 0 01-.07-6.31v-5.2c0 .04-7.82-1.32-9.42-11.54-.84-5.11-.57-13.44-.12-20.2z" fill="#ffbe9d"/><path d="M526.07 141.35a1.32 1.32 0 001.26 1.33 1.26 1.26 0 001.36-1.18 1.32 1.32 0 00-1.26-1.33 1.26 1.26 0 00-1.36 1.18zm13.5 0a1.31 1.31 0 001.26 1.33 1.25 1.25 0 001.35-1.18 1.31 1.31 0 00-1.26-1.33 1.26 1.26 0 00-1.35 1.18zm-.3-2.57c.21.08 1.22-.63 2.81-.92s2.87 0 3-.16-.17-.25-.73-.38a6.17 6.17 0 00-2.45 0 5.64 5.64 0 00-2.2.87c-.42.31-.53.55-.43.59zm-13.88-.94c.18.14 1.36-.22 3 0s2.73.89 2.91.79-.07-.28-.56-.58a6.11 6.11 0 00-2.32-.79 5.83 5.83 0 00-2.37.14c-.55.18-.74.37-.66.44zm8.48 11.16a9 9 0 00-2.29-.42c-.36 0-.7-.11-.76-.36a1.86 1.86 0 01.25-1.07c.34-.87.69-1.78 1.07-2.73 1.48-3.9 2.56-7.11 2.4-7.17a47.49 47.49 0 00-3 6.95l-1 2.76a2.08 2.08 0 00-.19 1.41.91.91 0 00.59.53 2.43 2.43 0 00.61.09 9.21 9.21 0 002.32.01z" fill="#263238"/><path d="M532.86 165.71a26 26 0 0013.69-3.62s-3.45 7.06-13.68 6.08zm1.6-13.29a2.55 2.55 0 012.28-.93 2.29 2.29 0 011.6.86 1.47 1.47 0 01.11 1.68 1.7 1.7 0 01-1.85.46 5.21 5.21 0 01-1.8-1.08 1.56 1.56 0 01-.4-.41.47.47 0 010-.53" fill="#eb996e"/><path d="M538 150c-.23 0-.23 1.52-1.55 2.6s-2.94.91-3 1.13.36.29 1.05.31a3.81 3.81 0 002.47-.85 3.34 3.34 0 001.2-2.18c.13-.63-.04-1.01-.17-1.01zm.5-14.84c.13.39 1.54.21 3.19.41s3 .66 3.22.32c.09-.17-.14-.53-.68-.9a5.58 5.58 0 00-4.88-.55c-.61.24-.91.56-.85.72zm-12.82-.95c.25.32 1.22 0 2.39 0s2.16.22 2.39-.11c.1-.16-.06-.48-.49-.79a3.36 3.36 0 00-1.94-.53 3.43 3.43 0 00-1.91.64c-.41.3-.55.63-.44.79z" fill="#263238"/><path d="M527.44 119.28a12.41 12.41 0 007.42 13.72c.12-1.27.25-2.54.37-3.81 1.57 2.89 5.11 3.93 8.25 4.88s6.65 2.49 7.56 5.65c.7 2.44-.42 5.09.08 7.58.28 1.36 1 2.57 1.38 3.91.53 2 .2 4 .57 6s1.89 4.08 3.91 3.92a3.68 3.68 0 002.87-2.28 10.83 10.83 0 00.72-3.76c.34-5.22.58-10.46.4-15.7-.15-4.54-.73-9.34-3.5-12.94-3-4-8.12-5.69-13-6.61s-10-1.28-14.52-3.32" fill="#263238"/><path d="M532.3 128a21.53 21.53 0 01-2.77-6.08 22.08 22.08 0 01-.36-6.67 5.93 5.93 0 00-.41 2 14.28 14.28 0 00.35 4.82 14.5 14.5 0 001.91 4.44 6 6 0 001.28 1.49zm27.42 20.36a1.86 1.86 0 00.23-.49c.13-.32.31-.81.51-1.45a17.31 17.31 0 00.74-5.59 13.78 13.78 0 00-2.72-7.87 11.71 11.71 0 00-3.77-3.25 14.78 14.78 0 00-5.13-1.49c-1.81-.25-3.58-.34-5.26-.58a17 17 0 01-4.68-1.3 17.19 17.19 0 01-6.46-5 17 17 0 01-2.74-4.84c-.11-.3-.21-.58-.29-.83s-.13-.44-.18-.62a2 2 0 00-.17-.51 3.17 3.17 0 00.09.53l.13.64.26.85a16.19 16.19 0 002.66 5 16.93 16.93 0 0011.32 6.55c1.7.25 3.48.35 5.26.59a14.8 14.8 0 015 1.43 11.46 11.46 0 013.65 3.12 13.56 13.56 0 012.73 7.64 18.5 18.5 0 01-.59 5.54c-.17.64-.32 1.13-.43 1.46a2.86 2.86 0 00-.16.47zm5.28-11.81a1.64 1.64 0 000-.46 12.49 12.49 0 00-.12-1.31 13.77 13.77 0 00-1.58-4.59 13.8 13.8 0 00-9-6.66c-1.46-.34-3-.34-4.51-.61a5.12 5.12 0 01-3.66-2.14 16.15 16.15 0 01-1-1.89 12.12 12.12 0 00-1-1.82 12.5 12.5 0 00-5.64-4.42 12.08 12.08 0 00-4.78-.83 8.13 8.13 0 00-1.31.14 2.07 2.07 0 00-.45.1c0 .06.63-.08 1.76-.07a12.46 12.46 0 0110.09 5.31 12.15 12.15 0 011 1.77 14.38 14.38 0 001 1.94 4.7 4.7 0 001.69 1.59 7.37 7.37 0 002.25.75c1.56.27 3.08.27 4.49.59a13.9 13.9 0 013.88 1.49 13.51 13.51 0 015 4.91 14.34 14.34 0 011.68 4.47c.15 1.11.21 1.74.21 1.74zm-10 28.66a3 3 0 00.46.46 15.83 15.83 0 005.41-3.64 26.53 26.53 0 003.32-4.19 7.59 7.59 0 01.94-1.1c.36-.33.77-.62 1.18-.94a6.16 6.16 0 002.1-2.51 7.64 7.64 0 00.57-3.8 9.59 9.59 0 00-1-3.42c-.54-1-1.16-1.87-1.53-2.77a4.65 4.65 0 01-.31-2.62c.12-.82.34-1.56.5-2.22a8.78 8.78 0 00.26-1.72 3.51 3.51 0 00-.1-1.09c-.08-.25-.12-.37-.14-.36a5.92 5.92 0 01.08 1.44 9.33 9.33 0 01-.34 1.67 22.58 22.58 0 00-.56 2.23 4.87 4.87 0 00.28 2.81c.38 1 1 1.84 1.5 2.81a9.1 9.1 0 01.94 3.28 7.17 7.17 0 01-.54 3.58 5.76 5.76 0 01-2 2.35c-.4.31-.83.62-1.21 1a7.54 7.54 0 00-1 1.16 27.2 27.2 0 01-3.24 4.19 18 18 0 01-5.2 3.78h.06c-.29-.28-.43-.4-.43-.38z" fill="#455a64"/><path d="M394.26 154.4a16.79 16.79 0 10-5.54 23.28l.2-.15-11.36 46.61 36.63 8.94-.14-.21a16.56 16.56 0 01-2-12.55 16.74 16.74 0 1125.25 18.09l-.36.22 39.38 9.6c8.52-19 13.45-44.47 3-73.57a103.6 103.6 0 00-68.95-65.43l-4.56-1.11-11.37 46.63z" fill="#e0e0e0"/><path d="M394.26 154.4l.23.35c.39-1.85 4.45-18.68 11.23-46.67v-.14h.14l3.76.91c1.27.3 2.54.73 3.85 1.12 2.57.85 5.21 1.8 7.88 2.93a103.31 103.31 0 0116.25 8.52 101.42 101.42 0 0130.06 29.39c1.07 1.58 2 3.26 3 4.91l1.51 2.5c.46.86.88 1.75 1.33 2.63.88 1.76 1.76 3.54 2.66 5.33l2.26 5.6a99.86 99.86 0 016.3 24.17 94.52 94.52 0 01-.38 26.21c-.29 2.22-.79 4.42-1.24 6.63s-1.06 4.41-1.74 6.59a109.57 109.57 0 01-4.81 12.93l-.09.2h-.21l-27.48-6.7-11.9-2.91-.61-.15.54-.32a16.42 16.42 0 006.62-7.56 16.19 16.19 0 001.26-4.88 15.55 15.55 0 00-.25-5 18.17 18.17 0 00-.67-2.4 17.93 17.93 0 00-1.06-2.26 15.81 15.81 0 00-3-3.92 16.47 16.47 0 00-25.24 3 15.55 15.55 0 00-1.95 4.27 15.29 15.29 0 00-.68 4.59 16.48 16.48 0 002.53 8.71l.33.52-.59-.15-36.62-8.95-.22-.05v-.22c4.17-17 8-32.63 11.4-46.6l.29.2a16.94 16.94 0 01-8.5 2.6 16.71 16.71 0 01-8.22-1.93 16.89 16.89 0 01-5.73-25 17.16 17.16 0 019.27-6.24 18.53 18.53 0 014.8-.53 19 19 0 014.18.67 16.64 16.64 0 018.66 6 12 12 0 01.77 1.16s-.08-.1-.21-.29-.33-.47-.61-.83a16.8 16.8 0 00-2.84-2.89 16.47 16.47 0 00-5.82-3 16.54 16.54 0 00-8.87-.1 17 17 0 00-9.12 6.19 16.58 16.58 0 005.68 24.58 16.28 16.28 0 008 1.87 16.63 16.63 0 008.3-2.55l.4-.25-.11.45c-3.4 14-7.19 29.57-11.33 46.62l-.17-.27 36.64 8.91-.26.38a16.9 16.9 0 01-2.62-9 15.54 15.54 0 01.7-4.73 16 16 0 012-4.4 17 17 0 0126-3.08 16.38 16.38 0 013.11 4 19.76 19.76 0 011.09 2.33 20.65 20.65 0 01.69 2.48 16.24 16.24 0 01.26 5.16 16.68 16.68 0 01-1.31 5 16.92 16.92 0 01-6.82 7.79l-.08-.47 11.9 2.9 27.49 6.7-.3.15a106.78 106.78 0 004.78-12.87c.68-2.17 1.2-4.37 1.75-6.55s.93-4.39 1.23-6.6a94.29 94.29 0 00.39-26.07A99.63 99.63 0 00478 172c-.75-1.87-1.51-3.73-2.25-5.58l-2.64-5.31c-.45-.88-.86-1.76-1.32-2.62l-1.5-2.49c-1-1.64-1.94-3.32-3-4.89a109.72 109.72 0 00-14-16.83 108.51 108.51 0 00-15.86-12.49 102.64 102.64 0 00-16.17-8.52 103.13 103.13 0 00-7.85-2.94c-1.3-.39-2.56-.83-3.83-1.12l-3.75-.92.19-.11c-6.87 28-11 44.77-11.51 46.6z" fill="#263238"/><path d="M475.11 165.13s-1.36-6.82-1.46-9-6.08-5.71-6.08-5.71l1.6 3 .39 1s-.34 1.76-1.38 1.43-11.93-7.56-11.93-7.56c-2.34-1.55-3.08-.07-3.08-.07s-1.56-1.11-2.4-.12c-.54.64.51 2.35.51 2.35s-1.47-1.48-2.71-.6 1.39 3.71 1.39 3.71c-.82 1.93 4.13 7.46 5.41 9S470 174.87 470 174.87l7.49-6.61z" fill="#ffbe9d"/><path d="M463.77 157.28a8.89 8.89 0 01-1.8-1 34.88 34.88 0 01-4-3 41.05 41.05 0 01-3.54-3.45 10.55 10.55 0 01-1.3-1.59 13.1 13.1 0 011.49 1.41c.89.88 2.14 2.1 3.6 3.35a48.05 48.05 0 003.86 3 14 14 0 011.69 1.28zm-2.52 2.46a9.52 9.52 0 01-1.59-1.15c-.94-.76-2.23-1.82-3.6-3.06a45.69 45.69 0 01-3.35-3.34 8.45 8.45 0 01-1.23-1.54 13.45 13.45 0 011.42 1.35c.85.85 2 2 3.41 3.24l3.52 3.14a11.26 11.26 0 011.42 1.36zm-2.96 2.18a5.77 5.77 0 01-1.49-.9 26.14 26.14 0 01-3.16-2.76 31.35 31.35 0 01-2.73-3.18 6.84 6.84 0 01-1-1.46c.09-.07 1.68 2.06 3.94 4.38a39.43 39.43 0 003.06 2.81 13 13 0 011.38 1.11z" fill="#eb996e"/><path d="M515.72 424.42l.21 20.39s-20.65 7.06-21 10.83l39.54 1 1-31.78z" fill="#455a64"/><path d="M528.2 443.41a1.61 1.61 0 011.07 1.87 1.56 1.56 0 01-1.85 1.08 1.71 1.71 0 01-1.12-2 1.62 1.62 0 012.05-.91m6.14 13.2v-3.2l-37.91.23s-1.78.72-1.61 2z" fill="#fff" opacity=".6"/><path d="M515.29 444.59c0 .19 1 .31 1.9 1s1.42 1.47 1.6 1.4-.08-1.19-1.22-2-2.32-.58-2.28-.4zm-4.19 1.61c-.05.19.78.54 1.41 1.37s.81 1.7 1 1.7.34-1.09-.47-2.11-1.93-1.16-1.94-.96zm-2.48 4.9c.17 0 .47-.91 0-2s-1.36-1.51-1.45-1.35.46.74.83 1.62.43 1.71.62 1.73zm7.14-11.16c.08.18 1-.07 2.06 0s1.93.46 2 .3-.69-.87-2-1-2.15.55-2.06.7z" fill="#263238"/><path d="M515.76 428.46l.04 3.63 19.44.32.11-3.27-19.59-.68z" opacity=".3"/><path d="M515.79 435.83a3.83 3.83 0 002 0 8.69 8.69 0 002.09-.59 7.67 7.67 0 001.15-.57 2.32 2.32 0 00.61-.45.85.85 0 00.12-1 1.05 1.05 0 00-.84-.46 2.75 2.75 0 00-.74.08 7.5 7.5 0 00-1.24.39 7.07 7.07 0 00-1.86 1.16c-.94.82-1.27 1.54-1.21 1.57s.55-.52 1.5-1.2a7.94 7.94 0 011.8-.95 7.59 7.59 0 011.14-.32c.42-.1.78-.09.88.09s0 .1 0 .22a1.54 1.54 0 01-.45.33 10.06 10.06 0 01-3 1.26 13 13 0 00-1.95.44z" fill="#263238"/><path d="M516 436.11a3.2 3.2 0 00.57-1.9 6.42 6.42 0 00-.22-2.18 6 6 0 00-.47-1.21 1.61 1.61 0 00-1.24-1 .92.92 0 00-.84.53 2.45 2.45 0 00-.22.72 4.28 4.28 0 000 1.33 4.54 4.54 0 00.8 2.07c.74 1 1.54 1.3 1.56 1.23s-.6-.48-1.16-1.48a4.63 4.63 0 01-.58-1.88 4 4 0 01.07-1.14c.07-.42.23-.76.39-.71s.52.33.68.66a7.24 7.24 0 01.46 1.09 7 7 0 01.33 2c.03 1.12-.2 1.84-.13 1.87z" fill="#263238"/><path d="M582.15 396.14l18.1 9.39s-3.47 21.55-.29 23.61l19.46-34.44-27.6-15.79z" fill="#455a64"/><path d="M604.77 394a1.62 1.62 0 012.16-.06 1.55 1.55 0 01.08 2.13 1.69 1.69 0 01-2.28.06 1.61 1.61 0 01.16-2.23m14.53.8l-2.84-1.48L599 426.79s-.2 1.91 1 2.35z" fill="#fff" opacity=".6"/><path d="M599.76 406c.17.09.72-.71 1.73-1.23s2-.57 2-.76-1.09-.49-2.3.16-1.61 1.77-1.43 1.83zm-.55 4.44c.14.13.84-.43 1.87-.6s1.88.09 2-.08-.81-.82-2.09-.58-1.94 1.17-1.78 1.26zm3.16 4.5c.12-.13-.58-.84-1.75-.93s-2 .49-1.87.64.86-.06 1.82 0 1.69.45 1.8.29zm-6.5-11.55c.19 0 .4-.89 1-1.8s1.32-1.49 1.22-1.66-1.09.21-1.79 1.29-.61 2.18-.43 2.17z" fill="#263238"/><path d="M585.74 397.99l3.22 1.68 9.41-17.01-2.84-1.63-9.79 16.96z" opacity=".3"/><path d="M592.25 401.43c.07 0 .55-.57 1-1.73a8.8 8.8 0 00.46-2.12 9.08 9.08 0 000-1.29 2.47 2.47 0 00-.11-.75.85.85 0 00-.85-.58 1.07 1.07 0 00-.81.52 2.57 2.57 0 00-.27.7 6.54 6.54 0 00-.24 1.28 6.82 6.82 0 00.15 2.18 3.3 3.3 0 00.82 1.8c.1 0-.21-.73-.36-1.89a8 8 0 010-2 7.43 7.43 0 01.25-1.17c.11-.42.28-.73.5-.73s.11 0 .17.15a2 2 0 01.08.55 9.66 9.66 0 010 1.2 11.77 11.77 0 01-.31 2 14.34 14.34 0 00-.48 1.88z" fill="#263238"/><path d="M592.62 401.35c.06-.05-.36-.72-1.41-1.4a6.27 6.27 0 00-2-.83 6.7 6.7 0 00-1.3-.16 1.64 1.64 0 00-1.49.61.92.92 0 00.07 1 2.5 2.5 0 00.54.54 4.5 4.5 0 001.16.66 4.6 4.6 0 002.19.27c1.28-.17 1.87-.76 1.83-.81a15.47 15.47 0 01-1.86.33 4.42 4.42 0 01-1.93-.37 4 4 0 01-1-.59c-.34-.26-.55-.57-.44-.68a1.14 1.14 0 01.91-.29 7.28 7.28 0 011.17.1 7.12 7.12 0 011.91.64c1.03.52 1.57 1.05 1.65.98z" fill="#263238"/><path d="M547.94 273.83s4.52 16.52 3.64 22.11c-.3 1.89-1.7 7.68-2.66 12.14-1.68 7.77-3.31 17.47-3.76 19.41l4.74 13.7 48.77 39.59-12.16 22.4-47.21-29.95-1.65 13s.42 30.2-.76 44.91l-23-.8-4-76.21-6.38-79.05z" fill="#263238"/><path d="M537.69 385.8s0-.07.06-.22l.1-.66.33-2.54c.26-2.25.64-5.43 1.1-9.34.93-7.89 2.23-18.79 3.91-30.79s3.45-22.83 5-30.62c.8-3.89 1.43-7 2-9.19.25-1.05.44-1.88.59-2.49a5.45 5.45 0 00.16-.88 7.62 7.62 0 00-.27.85c-.16.61-.39 1.43-.68 2.47-.61 2.14-1.3 5.28-2.15 9.16-1.64 7.78-3.47 18.62-5.15 30.63s-2.93 22.92-3.76 30.82c-.39 3.92-.71 7.1-.94 9.36-.09 1.07-.17 1.92-.22 2.55a6.54 6.54 0 00-.08.89z" fill="#455a64"/><path d="M561.87 198.29l-10.28 50.86s10.51 23.78 9.28 33.14c-.72 5.42-6.56 15.39-6.56 15.39l-51.46-19s5-58.53 8.25-69.56c4.64-15.56 19-33.65 19-33.65l.29-5.29 26.11.37-.15 5.35s8.48 9.66 5.52 22.39zm-58.21 19.14c3.83.08 47.93-8 47.93-8" fill="#00b0b9"/><path d="M545.87 226.34v.26l.07.74c.07.64.18 1.56.35 2.7a82.28 82.28 0 001.8 8.81 84.26 84.26 0 002.76 8.56c.42 1.07.77 1.93 1 2.52l.31.68.11.23a.86.86 0 00-.08-.25c-.08-.21-.17-.44-.26-.69-.24-.6-.58-1.47-1-2.54-.8-2.16-1.81-5.17-2.71-8.56s-1.49-6.51-1.85-8.78c-.19-1.14-.32-2.06-.41-2.69l-.11-.74a.79.79 0 00.02-.25zm2.62 69.54s.84-1.75 1.75-4 1.62-4 1.57-4.05-.84 1.76-1.75 4-1.62 4.03-1.57 4.05zm-7.97-3.01c.05 0 .77-1.69 1.6-3.82s1.47-3.87 1.42-3.89-.77 1.69-1.61 3.82a40.18 40.18 0 00-1.41 3.89zm-9.31-3.1s.09-.1.2-.31.27-.51.46-.88a30.6 30.6 0 001.26-3 29.75 29.75 0 00.93-3.15c.09-.41.16-.75.2-1s.06-.36 0-.36-.15.5-.38 1.3-.55 1.92-1 3.13-.87 2.27-1.2 3-.49 1.26-.47 1.27zm-8.03-3.07c.06 0 .79-2 1.64-4.5s1.49-4.55 1.44-4.57-.78 2-1.63 4.5-1.5 4.55-1.45 4.57zm-9.94-3.85s.7-1.62 1.44-3.66a34.18 34.18 0 001.25-3.72s-.69 1.62-1.44 3.65-1.3 3.71-1.25 3.73z" fill="#263238"/><path d="M550.84 181.91c3.24.4 3.17 1.68 6.94 5.72s0 15.67 0 15.67L546.4 212l-42.74 5.45s-9.1 2-16.92-10.09c-2.86-4.45-22.61-33.9-22.61-33.9l13-8.68 26.15 28z" fill="#00b0b9"/><path d="M517.15 215.69L553.7 209a2.62 2.62 0 011.39 0 1.69 1.69 0 01.68 2.25 4.07 4.07 0 01-1.93 1.73c-4 2.11-8.78 2.28-13.34 2.4-7.78.22-18.83.58-26.62.79z" opacity=".3"/><path d="M492.37 213.78s.15.15.44.41a12.81 12.81 0 001.36 1.05 14.26 14.26 0 0010.21 2.2c1.55-.18 3.21-.39 4.95-.62 3.49-.47 7.31-1.06 11.32-1.74l20.48-3.59 6.21-1 1.69-.27.59-.1s-.2 0-.59.06l-1.7.24c-1.47.2-3.6.53-6.23.95-5.25.84-12.48 2.17-20.49 3.54-4 .67-7.82 1.26-11.3 1.74-1.74.24-3.4.46-5 .64a13.64 13.64 0 01-4.31.07 14.08 14.08 0 01-5.83-2.17 12.38 12.38 0 01-1.37-1zm66.31-12.63a.64.64 0 00.06-.21q.06-.28.12-.6c.11-.53.24-1.29.37-2.24a19.84 19.84 0 00-.19-7.46 10.44 10.44 0 00-4.15-6.1 7.23 7.23 0 00-2.07-.94 5.2 5.2 0 00-.82-.15 8.92 8.92 0 012.81 1.21 10.48 10.48 0 014 6 20.47 20.47 0 01.24 7.39c-.11.95-.23 1.72-.3 2.24l-.09.61a1.73 1.73 0 00.02.25zm-55.6 6.38a2.62 2.62 0 000-.59q-.06-.74-.15-1.59a50.54 50.54 0 01-.15-5.25 48.76 48.76 0 01.42-5.24c.08-.57.15-1.09.22-1.58a2.49 2.49 0 00.07-.58 3.88 3.88 0 00-.14.56c-.09.37-.19.91-.29 1.58a38.94 38.94 0 00-.48 5.25 42.12 42.12 0 00.21 5.28c.08.67.15 1.21.22 1.58a4.1 4.1 0 00.07.58z" fill="#263238"/><path d="M545.87 183.45a4.34 4.34 0 01-.8.23l-2.32.56-8.55 1.94-28.2 6.24-2.45.53h-.15l-.1-.11L484.63 173l-5.55-6c-.62-.69-1.11-1.24-1.48-1.64a4.85 4.85 0 01-.5-.6 3.94 3.94 0 01.57.53l1.55 1.57 5.67 5.89 18.75 19.77-.24-.08 2.45-.53 28.27-6.09 8.59-1.78 2.34-.46a6.83 6.83 0 01.82-.13z" fill="#263238"/><path d="M428.64 275.39l.29-.29a16.42 16.42 0 10-28.27-11.38 16.24 16.24 0 004.79 11.5l.19.17h-39.11v43.88l.17-.18a16.24 16.24 0 0111.5-4.79 16.42 16.42 0 11-11.37 28.27l-.3-.29v50.32h44.1s2-16.79 4-29.55 30.54-38.79 38.74-49.65c3.3-4.37 11.45-18.69 15-38z" fill="#e0e0e0"/><path d="M442.14 326a5.25 5.25 0 00-5.94-3c-1.6.4-3 1.57-4.67 1.4a4.66 4.66 0 01-3.31-2.78c-.67-1.34-1.05-2.82-1.84-4.1a3.92 3.92 0 00-3.69-2.09c-1.94.32-3.14 2.69-5.11 2.73a3.57 3.57 0 01-2.81-1.78c-.65-1-1.06-2.07-1.72-3a7 7 0 00-9.69-1.35c-1.87.95-3.88 4.1-4.14 7.3-.81 9.71-4.6 11.45-4.6 11.45a16.42 16.42 0 01-27.79 11.85l-.3-.29v50.26h44.1s2-16.79 4-29.55l-.07-.32c0-.12.05-.25.07-.4 1.26-9.08 27.51-36.33 27.51-36.33z" fill="#00b0b9"/><path d="M428.64 275.39l39.77-.14h.17v.16a114 114 0 01-7.64 24.78 77.54 77.54 0 01-7.32 13.26c-3.23 4.19-7 8.16-10.87 12.35s-7.89 8.47-11.89 13a138.57 138.57 0 00-11.58 14.71 30.23 30.23 0 00-4.19 8.69c-.6 3.21-1 6.54-1.51 9.87-.94 6.69-1.83 13.55-2.68 20.52v.23h-44.63v-51.17l.45.44a16 16 0 0013.68 4.63 15.16 15.16 0 004.71-1.4 19.51 19.51 0 002.14-1.2 18.7 18.7 0 001.9-1.53 15.65 15.65 0 003-3.79 16.19 16.19 0 00-8.71-23.36 15.53 15.53 0 00-4.52-.86 15.06 15.06 0 00-4.54.42 16.2 16.2 0 00-7.71 4.44l-.42.43v-44.7h39.33l-.13.33a16.6 16.6 0 01-4.46-7.55 16.3 16.3 0 010-8.32 16.54 16.54 0 0130.74-3.53 15.67 15.67 0 011.79 6.64 13.65 13.65 0 010 2 16.31 16.31 0 01-1.72 6.28 16 16 0 01-2.24 3.33c-.3.34-.54.59-.7.75l-.25.24.23-.26c.16-.17.39-.42.68-.76a17.13 17.13 0 002.18-3.35 16.25 16.25 0 001.66-6.24 13.42 13.42 0 000-2 14.54 14.54 0 00-.25-2.12 16.7 16.7 0 00-1.55-4.44 16.27 16.27 0 00-30.23 3.52 16 16 0 00.05 8.15 16.22 16.22 0 004.37 7.36l.34.32h-39.57l.22-.22v43.88l-.43-.16a16.61 16.61 0 018-4.59 15.32 15.32 0 014.68-.43 15.81 15.81 0 014.65.88 16.67 16.67 0 017.72 5.54 16.47 16.47 0 013.46 9 16.65 16.65 0 01-2.19 9.54 15.89 15.89 0 01-3.13 3.9 18.65 18.65 0 01-2 1.59 20.81 20.81 0 01-2.21 1.24 16.13 16.13 0 01-4.86 1.44 16.47 16.47 0 01-5.1-.07 16.63 16.63 0 01-9-4.7l.44-.18v50.42l-.26-.26h44.1l-.25.23q1.29-10.51 2.69-20.54c.5-3.35.92-6.64 1.54-9.92a30.21 30.21 0 014.26-8.83 137.7 137.7 0 0111.63-14.75c4-4.56 8.05-8.86 11.92-13s7.66-8.15 10.87-12.3a77.32 77.32 0 007.3-13.18 113.09 113.09 0 007.68-24.68l.14.17z" fill="#263238"/><path d="M399.29 306.78a3.8 3.8 0 11-3.8-3.8 3.81 3.81 0 013.8 3.8z" fill="#00b0b9"/><path d="M379.72 346.87c-3.89.32-8.19-1.25-10-4.72l-3 1.31c0 2 2.49 5.93 4.31 6.69a17.35 17.35 0 0011.65.88 12.17 12.17 0 007.86-8.77c-3.41 2.5-6.94 4.29-10.82 4.61z" opacity=".2"/><path d="M518.45 257.79a3.17 3.17 0 00-1-1.4 7.44 7.44 0 00-5.15-1.92 13.22 13.22 0 003.5-3.77 5 5 0 00.16-4.94 6 6 0 00-4.31-2.4 10.73 10.73 0 00-6.88 1 7.38 7.38 0 00-3.86 5.61l3.37 5.09a12.72 12.72 0 003.82 5.49c.8.66 1.88 1.24 2.82.82a2.13 2.13 0 001.05-2.22 6.23 6.23 0 00-1-2.41 12 12 0 005.13 2.82 2.2 2.2 0 002-.18 1.53 1.53 0 00.35-1.59z" fill="#263238"/><path d="M505.05 252.73a10.24 10.24 0 003.51 1.82 10.13 10.13 0 003.95-.2c0 .06-.35.34-1.08.58a5.85 5.85 0 01-5.63-1.22c-.57-.52-.8-.94-.75-.98zm11.77-6.55c0 .08-.86-.14-2.22-.19a11.38 11.38 0 00-9.34 4.2c-.87 1.05-1.26 1.82-1.34 1.78a5.3 5.3 0 011.05-2 10.67 10.67 0 019.65-4.34 5.15 5.15 0 012.2.55z" fill="#455a64"/><path d="M504.78 254.37a3.88 3.88 0 00-.36-1.32c-.7-1.69-1.48-3.5-3-4.5a1.11 1.11 0 00-.91-.23c-.49.17-.56.85-.37 1.33a6.43 6.43 0 01.6 1.41l1.62 3.39a1.92 1.92 0 00.68 1 1.14 1.14 0 001.15.11 1.28 1.28 0 00.59-1.19z" fill="#455a64"/><path d="M506.93 280.14a73.37 73.37 0 00.91-12.72 25.77 25.77 0 00-3.29-12.2c-.33-.55-2.95-4.19-3.57-4-.44.13 1.41 3.63 1.25 4.07a21.87 21.87 0 00-.09 13 57.51 57.51 0 004.79 11.87" fill="#263238"/><path d="M502.13 317.22a12.14 12.14 0 009.47-14.08l-7.22-39c-1.6-10.55-9.07-18.41-19.58-16.52l-1 .23a19.08 19.08 0 00-14.37 21.52c1.44 9.13 3.15 19.21 4.37 24 2.53 9.93 12.85 9.07 12.85 9.07s.49 2.32 1.07 5.27a12.14 12.14 0 0014.37 9.55z" fill="#b78876"/><path d="M486.69 302.4a24.67 24.67 0 0012-7s-1.41 8-11.56 9.5z" fill="#995037"/><path d="M474 275.92a1.46 1.46 0 001.71 1.11 1.41 1.41 0 001.16-1.64 1.47 1.47 0 00-1.72-1.1 1.39 1.39 0 00-1.15 1.63zm-1.4-2.98c.22.15 1.1-.91 2.63-1.28s2.84.13 3-.09-.2-.4-.78-.64a4.1 4.1 0 00-2.42-.15 3.87 3.87 0 00-2 1.25c-.46.48-.54.85-.43.91zm15.91-.4a1.46 1.46 0 001.71 1.1 1.41 1.41 0 001.16-1.64 1.47 1.47 0 00-1.72-1.1 1.4 1.4 0 00-1.15 1.64zm-.78-2.54c.22.14 1.11-.92 2.63-1.28s2.84.13 3-.1-.2-.4-.77-.63a4 4 0 00-2.42-.15 3.83 3.83 0 00-2.05 1.24c-.42.43-.5.8-.39.92zm-2.65 13a10.56 10.56 0 00-2.59.15c-.41.06-.79.07-.92-.18a2 2 0 010-1.22c.14-1 .28-2.12.43-3.25.59-4.63.91-8.39.72-8.41s-.81 3.71-1.39 8.33c-.13 1.14-.26 2.22-.38 3.26a2.27 2.27 0 00.16 1.58 1 1 0 00.78.42 3.41 3.41 0 00.69-.07 10 10 0 002.5-.61zm4.75 0c-.25.05.15 1.71-1 3.23s-2.94 1.77-2.9 2 .47.23 1.22.07a4.22 4.22 0 002.45-1.58 3.69 3.69 0 00.72-2.68c-.09-.72-.32-1.04-.49-1.04zm-3.52-19.28c.25.38 1.73-.19 3.58-.41s3.42-.07 3.57-.5c.06-.21-.29-.54-1-.8a6.28 6.28 0 00-5.44.69c-.57.43-.82.84-.71 1.02zM472 267.71c.35.28 1.32-.34 2.58-.66s2.4-.33 2.56-.75c.06-.21-.19-.51-.74-.73a3.63 3.63 0 00-2.24-.06 3.7 3.7 0 00-1.9 1.2c-.36.46-.42.85-.26 1z" fill="#263238"/><path d="M505.35 271.66c.15-.11 6.35-3.67 7.78 3.19s-5.76 6.87-5.81 6.68-1.97-9.87-1.97-9.87z" fill="#b78876"/><path d="M508.88 278.49s.13.06.35.11a1.25 1.25 0 00.9-.16 3 3 0 00.82-2.94 4.13 4.13 0 00-.69-1.64 1.42 1.42 0 00-1.09-.73.62.62 0 00-.64.47v.36c0 .02-.17-.08-.18-.38a.78.78 0 01.18-.48 1 1 0 01.63-.32 1.74 1.74 0 011.47.81 4.22 4.22 0 01.81 1.82 3.19 3.19 0 01-1.13 3.33 1.32 1.32 0 01-1.13 0c-.26-.08-.33-.23-.3-.25z" fill="#995037"/><path d="M471.65 257.06c-1.23-.39 1.39-4.65 3.88-6.44 3.76-2.69 9.83-5.1 13.85-4.77 4.85.39 9.11 1.91 12.24 5.63a27.48 27.48 0 015.77 13.19 8.37 8.37 0 01-.13 4.39c-.66 1.71-2.31 3-1.81 5.11a3 3 0 01-.3 2.24c-1 1.59-2.78.63-3.74-.49-2-2.39-2.85-5.57-3.59-8.62a20.45 20.45 0 01-.87-6.62c.11-1.21.44-2.4.48-3.62a4.22 4.22 0 00-1.17-3.33 4 4 0 00-.67-.45 7.32 7.32 0 00-7.38.05c-3.59 2.14-9.79 5.5-11.78 4.53a10.89 10.89 0 01-3.7-2.51z" fill="#263238"/><path d="M488.84 245a15.33 15.33 0 00-11.48 2.94 8 8 0 00-3.24 5.38c-.16 2.15 1.2 4.48 3.32 4.89l.15.06c3.13.4 5-.37 7.67-2 2.29-1.34 4.18-3.29 6.48-4.62a14.23 14.23 0 018.12-1.86 23.16 23.16 0 00-11.02-4.79z" fill="#263238"/><path d="M498.88 249a8.52 8.52 0 00-3.48-.05 10.1 10.1 0 00-3.44 1.5 26.86 26.86 0 00-3.6 3 31 31 0 01-3.63 3.08 10.83 10.83 0 01-3.56 1.65 6.89 6.89 0 01-2.63.15 2.24 2.24 0 01-.93-.27 9.09 9.09 0 003.47-.24 11 11 0 003.37-1.68A35.06 35.06 0 00488 253a25.46 25.46 0 013.7-3 9.78 9.78 0 013.64-1.46 6.38 6.38 0 012.64.06 2.15 2.15 0 01.9.4zm-3.35-1.7a9.34 9.34 0 00-3.18.15 10 10 0 00-3.12 1.41 19.77 19.77 0 00-3.21 2.79c-1.06 1.1-2 2.19-3 3.11a16.24 16.24 0 01-2.82 2.24 8.75 8.75 0 01-2.19 1 2.14 2.14 0 01-.87.15 17.21 17.21 0 002.87-1.44 18.16 18.16 0 002.66-2.23c.94-.92 1.9-2 3-3.12a18.58 18.58 0 013.32-2.83 9.93 9.93 0 013.31-1.37 6.47 6.47 0 012.42-.06 1.89 1.89 0 01.81.2zm8.89 7.32a5.43 5.43 0 01-.14 2 14.82 14.82 0 01-1.76 4.62 14.63 14.63 0 01-3.2 3.77 5.62 5.62 0 01-1.71 1.11 23.93 23.93 0 004.46-5.15 23.27 23.27 0 002.35-6.35zm1.83 4.68a3.26 3.26 0 010 1.91 7.88 7.88 0 01-2.35 4 15.61 15.61 0 01-3.81 2.57 6.38 6.38 0 01-1.75.72 7 7 0 011.57-1 21.26 21.26 0 003.63-2.62 8.58 8.58 0 002.36-3.69c.32-1.19.26-1.89.35-1.89z" fill="#455a64"/><path d="M479 248.32a5.55 5.55 0 01-.69 1.4 14.39 14.39 0 00-1.41 3.4 7 7 0 00.06 3.59c.28.89.65 1.37.58 1.42s-.53-.37-.92-1.29a6.31 6.31 0 01-.23-3.84 10.92 10.92 0 011.61-3.47c.56-.8 1-1.25 1-1.21z" fill="#455a64"/><path d="M474.9 252.56a12.5 12.5 0 00.68 3.16 11.81 11.81 0 001.9 2.62c0 .06-.4-.07-.9-.46a5.4 5.4 0 01-1.93-4.35c.04-.62.19-.99.25-.97z" fill="#455a64"/><path d="M566.42 399.46s12.81 37.09 12.51 42.61-1.47 14-4.55 13.88-29.38-2.29-29.38-2.29l-16.29-4.32-3.37-29.66z" fill="#00b0b9"/><path d="M563.21 401s12.26 35.51 12 41-.89 13.69-4 13.57-26.21-2-26.21-2l-16.29-4.32-3.37-29.66z" opacity=".4"/><path d="M568.42 405.91c0 .14-.66.48-1.56.77s-1.67.41-1.71.27.65-.48 1.55-.77 1.67-.41 1.72-.27zm3.37 9.79c.05.14-.65.48-1.55.77s-1.67.41-1.72.27.66-.48 1.56-.77 1.67-.41 1.71-.27zm4.43 14.4c0 .13-.65.48-1.56.77s-1.67.41-1.71.27.65-.48 1.56-.77 1.67-.37 1.71-.27zm2.72 10.22c0 .15-.88.29-2 .33a4 4 0 01-2-.19c0-.15.88-.29 2-.33a4 4 0 012 .19zm-.85 9.46c0 .15-.87.16-1.9 0s-1.86-.34-1.84-.48.87-.16 1.9 0 1.86.34 1.84.48z" fill="#fafafa"/><path d="M565.61 403.06a2 2 0 01.25.5c.15.34.38.83.63 1.48.52 1.3 1.21 3.2 2 5.56 1.58 4.73 3.59 11.33 5.5 18.69 1 3.69 1.78 7.23 2.36 10.48a26.86 26.86 0 01.44 8.78 13.49 13.49 0 01-2 5.55 8.36 8.36 0 01-1 1.25 2.53 2.53 0 01-.42.38s.54-.56 1.27-1.74a14.06 14.06 0 001.86-5.5 27.47 27.47 0 00-.55-8.63c-.61-3.24-1.44-6.75-2.39-10.44-1.91-7.35-3.86-14-5.35-18.71-.76-2.37-1.39-4.28-1.85-5.6-.22-.61-.39-1.11-.53-1.51a2.15 2.15 0 01-.22-.54z" fill="#fafafa"/><path d="M527.18 424.2l29.73.51-.44 37c-3.53-.25-10.4-19.47-10.4-19.47l-19.06.45z" fill="#455a64"/><path d="M544.6 430.76a1.51 1.51 0 011.74-1 1.45 1.45 0 011 1.71 1.58 1.58 0 01-1.84 1.07 1.5 1.5 0 01-.88-1.9m12.29-5.93l-3 .06.7 35.44s.7 1.66 1.86 1.48z" fill="#fff" opacity=".6"/><path d="M545.88 442.81c.18 0 .27-.9.86-1.78s1.36-1.35 1.29-1.52-1.12.09-1.82 1.17-.5 2.17-.33 2.13zm1.55 3.9c.18.05.49-.73 1.27-1.34s1.58-.77 1.57-.95-1-.31-2 .46-1.01 1.83-.84 1.83zm4.62 2.29c0-.16-.86-.42-1.85 0s-1.4 1.29-1.25 1.37.68-.44 1.5-.8 1.55-.42 1.6-.57zm-10.53-6.56c.17-.08-.07-.91 0-1.93s.41-1.81.26-1.91-.81.66-.89 1.87.49 2.05.63 1.97zm-4.38-.94a3.31 3.31 0 000-1.85 8.74 8.74 0 00-1.12-3 2.47 2.47 0 00-.43-.56.79.79 0 00-1-.09 1 1 0 00-.42.78 2.43 2.43 0 00.09.7 5.75 5.75 0 00.38 1.15 6.44 6.44 0 001.1 1.73c.78.86 1.45 1.16 1.49 1.1s-.5-.5-1.15-1.38a7.4 7.4 0 01-.91-1.67 8.2 8.2 0 01-.31-1.06c-.1-.4-.1-.73.08-.83s.09 0 .2 0a1.91 1.91 0 01.32.42 8.75 8.75 0 01.54 1 9.67 9.67 0 01.67 1.8 11.91 11.91 0 00.47 1.76z" fill="#263238"/><path d="M537.4 441.27a3 3 0 00-1.78-.51 6.08 6.08 0 00-2 .23 6 6 0 00-1.13.46 1.52 1.52 0 00-1 1.17.86.86 0 00.51.78 2.93 2.93 0 00.67.2 4 4 0 001.25 0 4.11 4.11 0 001.92-.77c1-.71 1.2-1.46 1.14-1.47s-.45.56-1.38 1.1a4.35 4.35 0 01-1.75.57 3.9 3.9 0 01-1.07-.05c-.39-.06-.7-.21-.66-.36s.3-.49.61-.64a6.17 6.17 0 012.86-.78c1.11-.03 1.78.17 1.81.07zM504 406.65s-42.47 13.3-51.89 20.93c-4.79 3.88-5.67 19.47 2 25.82s17.82 3.25 23.7 2.91 52.94-8.37 52.94-8.37l.26-36.36z" fill="#263238"/><path d="M494.05 432a7.12 7.12 0 01-1.14.63c-.38.17-.86.35-1.41.57s-1.2.41-1.93.58c-1.44.39-3.19.71-5.13 1a52.05 52.05 0 00-6.21 1.31 16.41 16.41 0 00-4.61 2.13 13 13 0 00-3.14 3.08 44.15 44.15 0 00-3 5l-.17.3v-.34a3.59 3.59 0 01.12-.92 4.28 4.28 0 010 .93h-.15a31.41 31.41 0 012.83-5.12 13 13 0 013.19-3.23 16.35 16.35 0 014.73-2.21 45.31 45.31 0 016.28-1.29c1.94-.3 3.68-.59 5.12-.93a38 38 0 004.62-1.49z" fill="#455a64"/><path d="M473.83 437.91a22.9 22.9 0 00-4.62 1.84 22.6 22.6 0 00-3.81 3.18 8.62 8.62 0 013.57-3.6 8.53 8.53 0 014.86-1.42zm50.68-7.97l18.2 23.51-29.13 22.8c-2-2.92 8.69-20.3 8.69-20.3L510 441.37z" fill="#455a64"/><path d="M530.29 447.64a1.5 1.5 0 011.88.71 1.45 1.45 0 01-.69 1.88 1.58 1.58 0 01-2-.77 1.5 1.5 0 01.94-1.87m12.29 5.86l-1.93-2.3-27.21 22.72s-.85 1.58 0 2.38z" fill="#fff" opacity=".6"/><path d="M521.68 456.17c.12.14.88-.35 1.94-.44s1.9.21 2 .06-.77-.82-2-.69-2.07.97-1.94 1.07zm-2.07 3.66c.08.16.89-.08 1.84.14s1.59.75 1.73.64-.4-1-1.6-1.25-2.07.33-1.97.47zm1.13 5.01c.15-.07-.2-.93-1.18-1.43s-1.88-.28-1.85-.11.77.26 1.57.67 1.31.97 1.46.87zm-1.49-12.3c.16.08.66-.63 1.51-1.2s1.67-.81 1.65-1-1-.22-2 .47-1.32 1.67-1.16 1.73zm-2.01-4c0 .06.68-.29 1.45-1.15a8.48 8.48 0 001.65-2.76 2.11 2.11 0 00.17-.69.78.78 0 00-.52-.81 1 1 0 00-.88.16 2.33 2.33 0 00-.49.51 6.79 6.79 0 00-.66 1 6.7 6.7 0 00-.66 1.93 3.16 3.16 0 00.07 1.86c.1 0 .08-.71.37-1.76a7.12 7.12 0 01.73-1.75 7.52 7.52 0 01.63-.92c.25-.32.51-.53.69-.45s.09 0 .1.19a1.68 1.68 0 01-.13.5 10 10 0 01-.42 1.05 11.24 11.24 0 01-1 1.64c-.64.91-1.16 1.37-1.1 1.45z" fill="#263238"/><path d="M517.59 448.6a3 3 0 00-.72-1.71 6.18 6.18 0 00-1.45-1.44 5.81 5.81 0 00-1.07-.6 1.55 1.55 0 00-1.5 0 .87.87 0 00-.29.89 2.59 2.59 0 00.26.65 4.29 4.29 0 002.57 2 2.41 2.41 0 001.87 0 17.2 17.2 0 01-1.73-.38 4.27 4.27 0 01-1.53-1 3.89 3.89 0 01-.63-.86c-.2-.35-.28-.69-.14-.75a1.09 1.09 0 01.88.08 5.76 5.76 0 011 .51 6.8 6.8 0 011.42 1.23c.7.78.96 1.42 1.06 1.38z" fill="#263238"/><path d="M488.42 375.27a24.3 24.3 0 00-13.6-.21 12 12 0 00-6.24 4.2c-4.63 6.57-7.6 17.27-2.8 24.45 4.06 6.07 44.5 44.68 44.5 44.68l21.6-11.85-9.81-13.11s17.38 5.89 24.72 4.41 19.4-8.59 17.89-20.12l-2-3.58a26.89 26.89 0 00-16.21-12.72z" fill="#263238"/><path d="M531.82 436.56a2 2 0 01-.39.25l-1.17.68-4.42 2.51-15.51 8.54-.14.08-.12-.12-10.33-10.15-19.62-19.45-5.91-5.94c-.67-.68-1.2-1.22-1.59-1.63a4.62 4.62 0 01-.53-.59 5.4 5.4 0 01.6.52l1.65 1.57 6 5.82L500.08 438l10.3 10.18h-.26l15.59-8.38 4.48-2.37 1.21-.61a2.1 2.1 0 01.42-.26zm-52.33-46.37a6.26 6.26 0 01.74-.11c.48-.05 1.2-.11 2.13-.14a29.27 29.27 0 017.83.74 21.29 21.29 0 0110.15 5.6c3.22 3.05 5.88 7.14 8.77 11.26s6 7.84 8.68 11.29 5.18 6.49 7.26 9.1 3.71 4.64 4.9 6.12l1.33 1.67a5.53 5.53 0 01.44.6 3.26 3.26 0 01-.51-.54l-1.4-1.61c-1.2-1.41-2.92-3.47-5-6s-4.6-5.62-7.34-9-5.76-7.17-8.72-11.29-5.54-8.2-8.69-11.22a21.34 21.34 0 00-9.96-5.66 30.59 30.59 0 00-7.74-.88c-.92 0-1.64 0-2.13.05a3.21 3.21 0 01-.74.02z" fill="#455a64"/><path d="M499.79 396.36a29.43 29.43 0 00-9.27-9.31 6.41 6.41 0 011.77.85 19.22 19.22 0 013.73 2.94 19.44 19.44 0 012.93 3.74 5.71 5.71 0 01.84 1.78z" fill="#455a64"/><path d="M421.2 323.81a.92.92 0 01.4-1.39l8.31-1.8c.59.34 4.75 3.51 4.75 3.51L428.3 326l-2-1.93s-3.74.77-5.1-.26z" fill="#b78876"/><path d="M448 333.28s-13.06-9-13.32-9.15-8.17 1.47-8.17 1.47l-1.48-.13s-4.07-2.25-5.09-1.72-2.12 2.5-1.38 3.5a19.86 19.86 0 002.1 2.26s-2.28 1.14-1.15 3.23l.76 1.3s-2.13 1.84.6 3.69c0 0-1.23 1.67 1.41 3.63a20.53 20.53 0 006.93 3.18c.82.13 7 .63 7.53.63s7.91 1.74 7.91 1.74" fill="#b78876"/><path d="M449.07 315.34l-25.74 9.28 2.15 1.35 24.09-9.28a.72.72 0 00.38-1 .73.73 0 00-.88-.35z" fill="#263238"/><path d="M424 331.48c0-.15-.82-.54-1.8-1.14s-1.72-1.2-1.83-1.09.5.91 1.54 1.56 2.09.82 2.09.67zm-2.3 3.71c.09-.12-.19-.51-.63-.87s-.88-.57-1-.45.19.51.63.87.9.56 1 .45zm.81 3.02c0-.16-.44-.32-1-.53s-1-.38-1.08-.26.27.54.88.78 1.19.16 1.2.01zm-1.31-14.4c0 .08.45.24 1.15.62s1.65.95 2.69 1.6a9.1 9.1 0 00.83.46 2.06 2.06 0 00.94.12 3.87 3.87 0 001.41-.49c.71-.41 1.12-.69 1.09-.76s-.52.09-1.26.4a4 4 0 01-1.28.35 2.35 2.35 0 01-1.44-.55 17.79 17.79 0 00-2.82-1.48c-.76-.31-1.3-.34-1.31-.27z" fill="#995037"/><path d="M415.08 325.1a2.78 2.78 0 001.83 1.82 3.32 3.32 0 011.4.51 1.22 1.22 0 01.09 1.53 1.73 1.73 0 01-1.46.65 3 3 0 01-1.55-.58 5.65 5.65 0 01-1.93-2.34 1 1 0 00.55-.37l.8.73-.51-1.39a2.74 2.74 0 00.82-.69" fill="#fafafa"/><path fill="#e0e0e0" d="M418.54 327.25l-.38.14.01 1.82 1.95-.24-1.58-1.72z"/><path d="M441.32 341.84c-1 1.92-2.45 3.09-2.33 3.22a6.47 6.47 0 002.82-3 6.34 6.34 0 00.91-4" fill="#995037"/><path d="M474.44 327.58l-21.63 29.65-30.12-8.54a43.09 43.09 0 00-7.44 12.7s41.09 18 43.94 16.35 32.74-40.84 32.74-40.84z" fill="#b78876"/><path d="M482.21 313.53s-5.31 1.79-13 19.75l-4.75 9.61 22.61 8.59 3.42-6.41z" fill="#455a64"/><path d="M554.87 345.25c-6.19-34.79-16.06-42.71-21.6-46.14s-18.28-3-23-3.4c-6.14 9.78-12.57 13.81-21.82 14.13-1.95.06-5.36 2.82-7.91 5.25l16 62.43s32.19 11.59 42.08 14.06 14.62 10.54 20.46 14.38c4.73 3.11 7.13-2.57 7.13-2.57s-5.14-23.39-11.34-58.14z" fill="#455a64"/><path d="M562.3 398.38s-.29-.63-1-1.64a13.44 13.44 0 00-3.67-3.59 22 22 0 00-7-3c-2.8-.7-6-1.22-9.26-1.87-6.6-1.27-12.56-2.45-16.88-3.32l-5.1-1.06-1.38-.31a2.83 2.83 0 01-.48-.14 1.89 1.89 0 01.5 0l1.4.22 5.13.91c4.33.79 10.31 1.91 16.9 3.18 3.3.66 6.45 1.18 9.29 1.92a21.58 21.58 0 017.1 3.11 13 13 0 013.63 3.76 9.64 9.64 0 01.65 1.27 2.31 2.31 0 01.17.56z" fill="#263238"/><path d="M511.67 383.32c14.2-2.76 29.42.64 43.05 6.66a28.36 28.36 0 018.73 5.43 12.08 12.08 0 013.91 9.23c-.15 2-1.7 4.4-3.68 3.9a4.49 4.49 0 01-1.87-1.28c-13.57-13-29.82-18.35-50.14-23.94" fill="#00b0b9"/><path d="M534.54 383.56c.05.15-1.7.82-3.68 2s-3.45 2.31-3.55 2.2a13.51 13.51 0 017.23-4.17zm11.17 2.82a51.32 51.32 0 01-4.61 2.44 48.71 48.71 0 01-4.6 2.45 26.12 26.12 0 019.21-4.89zm10.35 4.25a27.44 27.44 0 01-7.38 6.59 37.62 37.62 0 013.65-3.35 35.56 35.56 0 013.73-3.24zm7.84 5.37a9.27 9.27 0 01-1.57 4.86 9.47 9.47 0 01-3.54 3.68 34.76 34.76 0 003.09-3.95 33.35 33.35 0 002.02-4.59z" fill="#fafafa"/><path d="M566.71 406.53c-.05 0-.35-.79-1.18-2.07a17.59 17.59 0 00-4.58-4.55 88.83 88.83 0 00-19.07-9.79 113.12 113.12 0 00-11.23-3.72 83.17 83.17 0 00-9.45-2c-2.72-.4-5-.57-6.48-.67l-1.78-.09a2.87 2.87 0 01-.62-.07 3.84 3.84 0 01.62 0h1.78a59.39 59.39 0 016.53.51 77.56 77.56 0 019.52 1.89 105.11 105.11 0 0111.3 3.71 83 83 0 0119.1 10 16.86 16.86 0 014.53 4.73 14.16 14.16 0 01.81 1.59 2.35 2.35 0 01.2.53z" fill="#fafafa"/><path d="M446.68 332.4l47.86 10.89L507 321.11s8-3.24 13.23-.15 6.38 10.44 6.38 10.44l-13.68 21.82c-4.13 6.59-11 14.52-20.3 11.2l-49.56-18.07z" fill="#b78876"/><path d="M537.05 314.53c2.42-9.12-7.61-19.07-16.35-15.53-3.42 1.39-7.72 6.43-9.2 9-3.66 6.49-8.3 16.58-8.3 16.58l17.9 12a4.54 4.54 0 006.47-1.49c2.96-5.09 7.7-13.85 9.48-20.56z" fill="#455a64"/><path d="M535.21 314.37a2.2 2.2 0 010 .54c0 .35-.12.88-.26 1.54a36.49 36.49 0 01-1.6 5.5c-.82 2.28-2 4.91-3.28 7.83-.63 1.46-1.3 3-1.92 4.6-.33.81-.57 1.63-.86 2.5a5.3 5.3 0 01-.6 1.28 1.76 1.76 0 01-1.28.84 2.65 2.65 0 01-1.42-.44c-.41-.23-.8-.47-1.18-.72-.76-.49-1.46-1-2.19-1.47l-4.2-2.74-7.12-4.63-4.76-3.17-1.28-.89a2 2 0 01-.42-.33 2.13 2.13 0 01.48.25l1.32.81 4.84 3 7.14 4.57 4.21 2.71c.74.46 1.46 1 2.21 1.47.37.24.75.48 1.14.69a2.32 2.32 0 001.15.39c.77-.07 1.19-1 1.47-1.8s.53-1.71.87-2.51c.63-1.62 1.31-3.16 2-4.62 1.31-2.91 2.51-5.51 3.36-7.76a44.85 44.85 0 001.74-5.42c.28-1.29.4-2.03.44-2.02z" fill="#263238"/><path d="M498.5 353.84a20.49 20.49 0 00-4.06-10.84c.05 0 .55.4 1.22 1.26a14.48 14.48 0 012.93 7.81 4.55 4.55 0 01-.09 1.77zm-16.29 6.77a8 8 0 01-1.48-.43l-4-1.36c-3.35-1.17-8-2.82-13.05-4.68s-9.68-3.56-13-4.82l-3.91-1.52a7.47 7.47 0 01-1.42-.62 9 9 0 011.49.43l4 1.37c3.35 1.17 8 2.82 13.05 4.67s9.68 3.56 13 4.82l3.91 1.52a9.53 9.53 0 011.41.62z" fill="#995037"/><path d="M258.07 425.11l-6.94 16.83s14.78 12.71 13.8 15.94l-33.12-12.28 9.74-26.68z" fill="#00b0b9"/><path d="M258.07 425.11l-6.94 16.83s14.78 12.71 13.8 15.94l-33.12-12.28 9.74-26.68z" opacity=".3"/><path d="M241.42 436.7a1.45 1.45 0 00-1.51 1.2 1.4 1.4 0 001.17 1.51 1.52 1.52 0 001.59-1.28c0-.71-.69-1.53-1.39-1.43" fill="#e0e0e0"/><path d="M231.81 445.6l1.08-2.65 31.35 12.77s1.24 1.19.69 2.16zm19.92-3.6c-.07.16-.9-.07-1.89.16s-1.67.74-1.79.63.46-1 1.66-1.22 2.11.26 2.02.43zm2.94 2.7c0 .17-.82.18-1.63.66s-1.23 1.15-1.39 1.08.08-1 1.09-1.6 1.98-.3 1.93-.14zm.43 4.89c-.16 0-.09-.92.66-1.65s1.63-.8 1.65-.64-.63.46-1.23 1.07-.91 1.26-1.08 1.22zM252.88 438c-.12.12-.78-.38-1.71-.66s-1.76-.25-1.79-.42.86-.49 2-.15 1.62 1.09 1.5 1.23z" fill="#263238"/><path d="M241.28 428l-.55 19.19s19.32 7 19.57 10.55l-37.24.28-.38-29.93z" fill="#00b0b9"/><path d="M229.21 445.63a1.52 1.52 0 00-1 1.74 1.46 1.46 0 001.72 1.05 1.61 1.61 0 001.09-1.85 1.51 1.51 0 00-1.91-.89" fill="#e0e0e0"/><path d="M223 458.77v-2.9h35.81s1.66.71 1.49 1.87zM241.34 447c0 .18-.92.27-1.81.86s-1.36 1.36-1.53 1.29.1-1.13 1.19-1.82 2.18-.53 2.15-.33zm3.91 1.55c.05.18-.74.49-1.35 1.27s-.78 1.58-1 1.58-.3-1 .48-2 1.87-1.02 1.87-.85zm2.26 4.66c-.17 0-.43-.87 0-1.87s1.31-1.4 1.39-1.25-.45.69-.81 1.52-.4 1.58-.58 1.6zM241 442.58c-.08.17-.92-.08-1.94 0s-1.83.41-1.92.25.67-.81 1.88-.88 2.04.49 1.98.63zm38.21-172.34s12.16 53 14.7 73c1.78 14-1.72 23.14-2.14 25.93a7.69 7.69 0 01-.92 2.68L255 435.81l-20.6-7.14s17.3-52.27 21.09-60.68l4.26-7.57L226 275.1z" fill="#263238"/><path d="M259.42 271.18c.42 1.68-19.51 100.29-19.51 100.29l2.56 70.65-21 .57s-10.72-38.49-11.14-61.2 2.14-26.59.28-40.77c-2-15-14-45.74-8.51-66.63 4.55-17.47 16.26-25.87 16.26-25.87z" fill="#263238"/><path d="M242.49 442.71a2 2 0 000-.36v-1.06c0-1-.05-2.35-.09-4.1-.11-3.6-.26-8.77-.45-15.18-.43-12.89-1-30.77-1.69-50.87v.06c.48-2.41 1-5 1.51-7.56 4.22-21.49 8-40.94 10.82-55.05 1.35-7 2.45-12.72 3.21-16.7.36-1.95.65-3.47.85-4.54.08-.5.15-.89.2-1.19a2 2 0 00.06-.4 1.86 1.86 0 00-.11.39c-.07.29-.15.68-.26 1.18-.23 1.06-.55 2.58-.95 4.52-.81 4-2 9.65-3.39 16.66-2.82 14.11-6.69 33.54-11 55-.51 2.59-1 5.15-1.51 7.56v.07c.74 20.09 1.4 38 1.88 50.86.26 6.41.47 11.57.61 15.17.09 1.76.15 3.13.2 4.1l.06 1.06a2 2 0 00.05.38zm16.95-82.14a10.36 10.36 0 007.18 5.45c.06-.16-1.9-.82-3.88-2.35s-3.16-3.2-3.3-3.1z" fill="#455a64"/><path d="M219.07 130.77l42.56 1.15c.24 20.53 5.52 37.14 11.76 54.25 1.59 4.35 3.61 8.47 4.82 13s1.54 9.72-.23 14c-3.62-1-11.35.87-15-.16l-.09-4.17a6.09 6.09 0 01-2.73 4.28 10.22 10.22 0 01-5.73 1 132.76 132.76 0 01-33.44-5.7c-1.45-.45-10.18 2-10.18 2-4.81-20.89 1.96-56.9 8.26-79.65z" fill="#263238"/><path d="M265.69 172l7 23.18c1.21 9.14 6 20.11.79 30.72l-1.39 12.92s8.5 28.68 9.41 33c.67 9-74.91 3.12-77.18-4.23l9.93-30.45-.65-38.89c-.55-12.93.11-26.35.11-26.35l18.13-2.62 18.57 1.36z" fill="#455a64"/><path fill="#455a64" d="M264.92 171.96h37.2l-.64 23.59-29.89 6.81-6.67-30.4z"/><path d="M235.77 222s.24.2.73.43a11.08 11.08 0 002.21.78 13.67 13.67 0 0013.95-4.74 11.45 11.45 0 001.28-1.95 2.28 2.28 0 00.32-.8c-.09-.05-.62 1.05-1.9 2.5a14.23 14.23 0 01-13.56 4.6c-1.9-.37-2.99-.92-3.03-.82zm33.51-43.83a20.53 20.53 0 00.67 3c.45 1.84 1 4.4 1.5 7.25s.75 5.46.92 7.35a22 22 0 00.33 3.06 14.5 14.5 0 00.07-3.09 61.38 61.38 0 00-.77-7.41 60.58 60.58 0 00-1.67-7.27 14.32 14.32 0 00-1.05-2.89z" fill="#263238"/><path d="M245.52 222.71c3.23-.89 6.22-2.6 7.87-5.52l.05.18a10.75 10.75 0 01-7.5 8.24 9.79 9.79 0 01-10-3.53 16 16 0 009.58.63z" opacity=".3"/><path d="M344.47 154.51c.42-.46.29-5 .29-5l5.24-4.21 5.18 6.94-3.18 11.45z" fill="#d08979"/><path d="M300.71 179.48l20.65.39 23.53-25.82 7.06 9.64s-15.88 30.22-18.34 33.1-37.78 2.21-37.78 2.21z" fill="#455a64"/><path d="M343.85 166.9a16.33 16.33 0 0111.94 2.74l.34.24-7.34-46.51-4.55.72a101.58 101.58 0 00-72.71 58.38c-12.58 27.61-9.82 52.95-3 72.18l4.85-.76 37.7-5.95-.24.33a16.47 16.47 0 1023.16-3.78l-.21-.14 1-.16 32.24-5.09-7.34-46.49-.13.2a16.24 16.24 0 01-10.56 6.53 16.42 16.42 0 11-5.12-32.44z" fill="#00b0b9"/><path d="M343.85 166.9l-1.1.25a9.8 9.8 0 00-1.33.38c-.26.09-.55.17-.85.28l-.93.41a16.23 16.23 0 00-8.47 9.06 17.2 17.2 0 00-.63 2 16.42 16.42 0 00-.1 7 16.28 16.28 0 0017.22 13 15.91 15.91 0 006.56-2 16.27 16.27 0 005.35-4.85l.25-.36.07.43c2.17 13.68 4.65 29.32 7.38 46.49v.21h-.21l-33.28 5.28.09-.44a16.68 16.68 0 015.72 7 15.68 15.68 0 011.19 4.49 16.83 16.83 0 01-.08 4.7 17.43 17.43 0 01-1.43 4.53 16.77 16.77 0 01-6.44 7.06 17 17 0 01-4.53 1.88 18 18 0 01-4.92.48 17.45 17.45 0 01-4.88-1 16.82 16.82 0 01-7.91-6.1 18 18 0 01-1.31-2.2 16.89 16.89 0 01-.93-2.39 16.44 16.44 0 01-.78-5.08 16.72 16.72 0 013.24-9.75l.25.41-27.52 4.34-15 2.37h-.22l-.07-.2a100.58 100.58 0 01-5.46-25.56 93.8 93.8 0 01-.12-12.76c.17-2.11.29-4.2.61-6.27.15-1 .25-2.07.44-3.09l.57-3.06a95.14 95.14 0 017.71-22.77q1.34-2.65 2.65-5.25l.66-1.31c.23-.42.49-.83.74-1.24l1.5-2.47 1.49-2.45.75-1.22.83-1.16 3.3-4.57a25.94 25.94 0 011.75-2.17c.59-.71 1.19-1.41 1.78-2.11l1.78-2.1c.6-.68 1.27-1.3 1.89-2 1.28-1.27 2.51-2.58 3.8-3.8l4-3.49a106.66 106.66 0 0116.58-11.33 107.81 107.81 0 0117-7.36 86.66 86.66 0 0116.28-3.84h.16v.16c3.29 21.09 5.75 36.87 7.26 46.53v.19l-.16-.11a16.32 16.32 0 00-9.07-3.2 19.63 19.63 0 00-2.38.06l-.78.09.77-.13a17.8 17.8 0 012.4-.11 16.38 16.38 0 019.15 3.16l-.12.08c-1.54-9.66-4.06-25.43-7.43-46.51l.18.14a86.16 86.16 0 00-16.19 3.87 107.55 107.55 0 00-16.92 7.36 105.9 105.9 0 00-16.55 11.34l-4 3.48c-1.28 1.22-2.5 2.52-3.77 3.8-.62.65-1.29 1.27-1.88 2l-1.77 2.08-1.68 2.04c-.59.71-1.21 1.39-1.73 2.16l-3.27 4.56-.83 1.15-.74 1.21-1.51 2.4c-.5.82-1 1.64-1.49 2.47-.25.41-.51.81-.75 1.24L275 176l-2.63 5.23a94.87 94.87 0 00-7.61 22.83l-.57 3c-.18 1-.28 2.05-.43 3.07-.31 2.06-.43 4.15-.6 6.24a92.79 92.79 0 00.12 12.69 100.62 100.62 0 005.44 25.43l-.29-.17 15-2.38 27.57-4.26.62-.09-.37.5a16.13 16.13 0 00-3.14 9.45 15.52 15.52 0 00.75 4.93 17.13 17.13 0 00.9 2.32 17.48 17.48 0 001.27 2.12 16.2 16.2 0 007.66 5.92 16.82 16.82 0 004.74 1 17.34 17.34 0 004.77-.47 16.19 16.19 0 0010.64-8.66 16.45 16.45 0 001.39-4.4 15.86 15.86 0 00.09-4.56 15.18 15.18 0 00-1.15-4.36 16.17 16.17 0 00-5.54-6.81l-.48-.34.57-.09 33.28-5.25-.18.24c-2.7-17.17-5.15-32.81-7.3-46.5l.32.07a16.57 16.57 0 01-5.48 5 16.21 16.21 0 01-6.7 2 16.55 16.55 0 01-17.47-13.27 15.52 15.52 0 01-.24-4.87 17.74 17.74 0 01.37-2.24 19.69 19.69 0 01.65-2 16.8 16.8 0 014.11-6.1 16.28 16.28 0 014.5-3l.94-.41c.31-.11.59-.19.86-.27a9.46 9.46 0 011.34-.36z" fill="#263238"/><path d="M264.09 235.92c6 1 12.24 1.89 18.11.25 1.53-.43 3-1 4.57-1.33a24.12 24.12 0 016.24-.1 53.18 53.18 0 0011.28.08 16.51 16.51 0 0010-4.75 137 137 0 00-50.66 2.74 25.3 25.3 0 01.32 3.09" opacity=".3"/><path d="M354.54 159a12.94 12.94 0 002.25-2.68 2.49 2.49 0 00-.31-2.49l-.51-.45s.88-2.77-.18-3.93c0 0 .9-2.64-.59-3.69 0 0 1-2.07-.16-2.76a4.51 4.51 0 00-3.94.11c-.9.5-4.07 1.61-4.06 2.19 0 0 0 1.56.87 1.67l1.27.15s-2.88.93-2.94 1.66.16 2.06 1.46 2c0 0-.9.77-.54 1.38s.92 1.35 1.71 1.19 1.58-.27 1.58-.27-1.12.49-.8 1 .33 1.14 1.36 1.36 3.06.83 3.06.83z" fill="#d08979"/><path d="M350.52 153.08a6.84 6.84 0 00.81-.34 4.6 4.6 0 012-.32 4.68 4.68 0 012 .6c.47.26.72.48.75.45s-.19-.3-.65-.61a4.3 4.3 0 00-2-.7 4.17 4.17 0 00-2.12.41 2 2 0 00-.79.51zm5.24-3.79a4 4 0 00-1.2-.21 11.46 11.46 0 00-2.93.16 11.86 11.86 0 00-2.8.89 4 4 0 00-1 .61 21.12 21.12 0 013.89-1.25 20.09 20.09 0 014.04-.2zm-.61-3.58a9.24 9.24 0 00-3.15.29 9.81 9.81 0 00-2.94 1.08c0 .08 1.32-.45 3-.83s3.1-.47 3.09-.54z" fill="#a1675b"/><path d="M285.76 217.61s5.64-5 7.16-6.77 7.82-5.81 7.82-5.81.92.56.38 2.26a46.54 46.54 0 01-3.38 4.15s-1.09 2.41 0 2.81 15.26 1.33 15.26 1.33c3 .21 2.68 2 2.68 2s2.08.08 2.15 1.48c0 .9-2 1.68-2 1.68s2.24-.3 2.72 1.26-3.63 2.28-3.63 2.28c-.55 2.19-8.44 3.69-10.55 4.17s-20.6.92-20.6.92l-2.1-10.6z" fill="#d08979"/><path d="M300.65 218.31a9 9 0 002.19.34 38.3 38.3 0 005.35 0 47.76 47.76 0 005.31-.64 10.48 10.48 0 002.15-.52 15.47 15.47 0 00-2.2.24c-1.35.17-3.22.39-5.29.52s-4 .11-5.31.06a18.37 18.37 0 00-2.2 0zm.55 3.78a11.28 11.28 0 002.12 0c1.3 0 3.11-.09 5.1-.26a50.86 50.86 0 005.07-.66 9.56 9.56 0 002.06-.52 14.32 14.32 0 00-2.11.24c-1.29.17-3.07.38-5.06.54l-5.08.38a10.76 10.76 0 00-2.1.28zm1.11 3.81a6.46 6.46 0 001.87.2 27 27 0 004.52-.29 34.76 34.76 0 004.43-.95 7.56 7.56 0 001.77-.62c0-.12-2.78.66-6.26 1.17a42.46 42.46 0 01-4.46.41 13.34 13.34 0 00-1.87.08z" fill="#a1675b"/><path d="M213.72 171.82s-10.32 6.11-11.36 16.68c-1 10.12 1.17 43.53 12.1 53.49 2.51 2.28 19.63 1.84 35.85-1.45a241 241 0 0034.82-10.23V215l-51.69 3.82z" fill="#455a64"/><path d="M285.13 215a3.59 3.59 0 01-.76.11l-2.17.21-8 .68-26.45 2-14.27 1h-.19l-.06-.18c-1.06-3.24-2-6.28-2.61-9s-1.26-5.13-1.92-7.07-1.21-3.47-1.59-4.51l-.43-1.2a1.52 1.52 0 01-.12-.42 1.68 1.68 0 01.19.39c.14.31.3.69.51 1.17.42 1 1 2.53 1.72 4.47a71.86 71.86 0 012 7.07c.68 2.73 1.6 5.74 2.68 9l-.25-.16 14.27-1.08 26.46-1.87 8-.51 2.19-.11a4.37 4.37 0 01.8.01zm-70.67 27a2.34 2.34 0 01.58 0l1.64.1 2.59.15c1 .05 2.16.11 3.43.13a131.21 131.21 0 0019.85-.87 119 119 0 0019.45-4c2.43-.75 4.39-1.38 5.73-1.87l1.56-.53a1.84 1.84 0 01.55-.15 2.8 2.8 0 01-.52.25l-1.52.62c-1.32.55-3.27 1.24-5.69 2a108.5 108.5 0 01-19.5 4.2 117 117 0 01-19.92.73c-1.28 0-2.43-.13-3.44-.21s-1.88-.15-2.59-.24l-1.63-.19a3.22 3.22 0 01-.57-.12z" fill="#263238"/><path d="M233.44 218.76a23.77 23.77 0 00-3.85 3.92 24.2 24.2 0 00-2.39 4.94 11.14 11.14 0 016.24-8.86zM255.66 187c.17-2.51-1.46-4.73-2.67-6.94a22.26 22.26 0 01-2.47-13.61l16 5a10.11 10.11 0 00-1.07 7.4c.72 2.29 2 4.5 1.87 6.9-.13 3.58-3.16 6.38-4.14 9.83-1.07 3.79.45 7.78 1.95 11.43a20.86 20.86 0 01-9.62.37c-2-4.57-4-9.73-2.23-14.39.72-1.99 2.23-3.79 2.38-5.99zm-37.15-53.88c1.65-7 3.34-14.31 9.15-18.56 5.17-3.79 11-4.71 17.36-4.23a22.57 22.57 0 019.36 3.45c3.69 2.25 5.15 6.63 6.84 10.62 3.39 8 2.58 18.63 0 21.51l-33.45 16.3c-5.73-3.22-9.57-4.76-10.91-11.19-.86-4.38.63-13.55 1.65-17.9z" fill="#263238"/><path d="M228.16 121.08l20.9-5.43c6.7-.76 11.21 7.47 11.68 14.19.52 7.47.86 16.62 0 22.2-1.46 9.61-7.9 12.8-9.74 13.31a2.51 2.51 0 01-.56.1c0 .47 0 1.2-.06 2.8l.06 7.5c-2.76 9.1-12 8-23.5 3.28l-2.3-53.93a3.94 3.94 0 013.52-4.02z" fill="#d08979"/><path d="M257 139.07a1.44 1.44 0 01-1.38 1.46 1.37 1.37 0 01-1.49-1.29 1.45 1.45 0 011.38-1.46 1.38 1.38 0 011.49 1.29zm1.79-2.53c-.18.19-1.27-.61-2.82-.6s-2.68.8-2.85.61.1-.42.59-.79a4 4 0 012.28-.71 3.7 3.7 0 012.24.7c.48.37.65.7.56.79zm-16.51 2.53a1.44 1.44 0 01-1.38 1.46 1.37 1.37 0 01-1.49-1.29 1.45 1.45 0 011.38-1.46 1.38 1.38 0 011.49 1.29zm1.3-2.84c-.18.18-1.28-.61-2.82-.6s-2.68.8-2.85.61.1-.42.59-.79a4 4 0 012.28-.72 3.79 3.79 0 012.24.71c.48.36.64.7.56.79zm5.69 10.21a10.83 10.83 0 012.51-.47c.4 0 .77-.12.84-.39a2 2 0 00-.28-1.17l-1.18-3c-1.66-4.28-2.86-7.79-2.68-7.86s1.65 3.35 3.3 7.62l1.14 3a2.36 2.36 0 01.22 1.55 1 1 0 01-.65.59 2.88 2.88 0 01-.67.09 9.67 9.67 0 01-2.55.04z" fill="#263238"/><path d="M250.47 165.45a28.53 28.53 0 01-15.05-3.9s3.77 7.82 15 6.7zm-6.29-16.08a2.47 2.47 0 012.06-1.14 3.23 3.23 0 013 1.44 2.07 2.07 0 01.14 1.45c-.11.25 0 .12-.22.29a5.52 5.52 0 01-2.3 1.45 2.43 2.43 0 01-2.57-.92 2.48 2.48 0 01-.11-2.57z" fill="#a1675b"/><path d="M244.45 147.6c.25 0 .27 1.67 1.72 2.84s3.24 1 3.26 1.2-.4.33-1.15.36a4.2 4.2 0 01-2.72-.9 3.71 3.71 0 01-1.34-2.38c-.07-.72.11-1.12.23-1.12zm-.1-17.01c-.13.43-1.68.33-3.48.66s-3.23.93-3.5.57c-.12-.18.11-.59.68-1a6.1 6.1 0 015.31-.94c.64.19 1.04.5.99.71zm14.45 1.78c-.36.3-1.47-.27-2.88-.54s-2.65-.23-2.86-.64c-.09-.2.16-.51.74-.75a4.47 4.47 0 012.45-.15 4.34 4.34 0 012.17 1.11c.44.44.58.83.38.97z" fill="#263238"/><path d="M249.28 114.35a24.9 24.9 0 01-2.2 13.31 9.13 9.13 0 01-2.15 3.11 4.09 4.09 0 01-3.53 1 15.14 15.14 0 003.33-8.6c-1.42 3.14-2.89 6.34-5.22 8.89s-5.72 4.37-9.15 4l.3-2.3a8 8 0 01-2.85 4.21 4.06 4.06 0 01-4.81 0c1.31-5.58-1.95-11.76.35-17 1.6-3.64 5.47-5.73 9.29-6.82a31.71 31.71 0 0116.55-.2m-.38.48v.24z" fill="#263238"/><path d="M248.85 114.67l.69-.26c2.14-1 3.56-2.23 6.77.77a20.3 20.3 0 014.34 6.47 26.18 26.18 0 012.3 6.9 30.28 30.28 0 010 8.61c-1.87-1.31-2.78-3.6-3.33-5.81s-.85-4.53-1.9-6.55a17.22 17.22 0 01.18 5.68 2.38 2.38 0 01-.65 1.39 1 1 0 01-1.39 0 12.28 12.28 0 00.17-6.75 34.44 34.44 0 00-2.37-6.4 33.33 33.33 0 01-.74 11.39 3 3 0 01-.68 1.47 2.7 2.7 0 01-2.34.42 5.58 5.58 0 00-2.43-.17 32.23 32.23 0 001.38-17.16zm-18.8 17.38c2.62 6-1.52 12.86-.52 19.3.71 4.64 4.06 8.73 4 13.43s-3.68 9.1-3.06 13.82c.38 2.92 2.3 5.35 3.78 7.89a28.52 28.52 0 013.38 19.22H222.7a30.2 30.2 0 00-2.64-15c-1.36-3-3.25-5.84-3.58-9.1-.31-3 .75-6 1.11-9 .64-5.43-1-10.84-2-16.24s-1.07-11.42 2.2-15.81" fill="#263238"/><path d="M365.84 392.72H326s-2-16.79-4-29.55-30.54-38.79-38.74-49.64c-3.3-4.37-11.45-18.7-15-38h37.66l-.29.29a16.42 16.42 0 1028.27 11.38 16.24 16.24 0 00-4.79-11.5l-.19-.17 36.66.27v43.89s3.42-5.22 11.67-5 14.48 6.08 15.81 12 .21 17.1-10.9 20.11-16.7-4.83-16.7-4.83l.12 51" fill="#f5f5f5"/><path d="M365.49 390.49c.15 0 .26.56.27 1.25s-.12 1.25-.26 1.25-.26-.56-.27-1.25.12-1.25.26-1.25zm-.02-10.23a6.62 6.62 0 01.26 2.56 6.51 6.51 0 01-.25 2.56 6.74 6.74 0 01-.27-2.56 6.4 6.4 0 01.26-2.56zm-.03-10.26a6.3 6.3 0 01.27 2.56 6.74 6.74 0 01-.25 2.56 6.3 6.3 0 01-.27-2.56 6.74 6.74 0 01.25-2.56zm-.02-10.2a6.62 6.62 0 01.26 2.56 6.51 6.51 0 01-.25 2.56 6.74 6.74 0 01-.27-2.56 6.4 6.4 0 01.26-2.56zm-.03-10.23a6.3 6.3 0 01.27 2.56 6.74 6.74 0 01-.25 2.56 6.3 6.3 0 01-.27-2.56 6.74 6.74 0 01.25-2.56zm1.71-5.81c-.05.05-.3-.08-.67-.36a5.49 5.49 0 01-.6-.54c-.11-.1-.22-.22-.33-.34l-.17-.2-.08-.1v-.05l.48-.15a6.31 6.31 0 01-.26 2.5 6.42 6.42 0 01-.27-2.5c.95-.31.27-.09.48-.15l.07.1.15.18.3.36.51.59c.29.38.44.6.39.66zm8.9 3.67a6.68 6.68 0 01-4.73-1.11 9.09 9.09 0 012.38.49 9.39 9.39 0 012.35.62zm9.43-1.93a4.49 4.49 0 01-2.16 1.2 4.87 4.87 0 01-2.45.38c0-.16 1-.45 2.28-.88a9 9 0 012.33-.7zm6.5-7.03a4.29 4.29 0 01-.92 2.29c-.74 1.17-1.61 1.89-1.71 1.8a10.17 10.17 0 011.27-2.08c.72-1.11 1.23-2.07 1.36-2.01zm1.4-9.57a4.7 4.7 0 01.35 2.44 4.79 4.79 0 01-.45 2.43 7.72 7.72 0 01-.07-2.44 7.88 7.88 0 01.17-2.43zm-3.93-8.73c.1-.1 1 .61 1.74 1.75a4.36 4.36 0 011 2.27c-.14.06-.67-.88-1.42-2s-1.43-1.92-1.32-2.02zm-8.29-4.92a4.45 4.45 0 012.41.53c1.27.53 2.16 1.22 2.08 1.34a9.11 9.11 0 01-2.28-.86 8.87 8.87 0 01-2.21-1.01zm-9.64.24a4.37 4.37 0 012.33-.84 4.49 4.49 0 012.47 0 8.84 8.84 0 01-2.39.48 9.47 9.47 0 01-2.41.36zm-5.97 1.68a6.27 6.27 0 01.26 2.5c-1-.29-.27-.08-.48-.15l.08-.11.17-.2.32-.35a6.59 6.59 0 01.61-.54c.37-.28.63-.41.68-.35s-.13.28-.42.62-.37.42-.51.59l-.29.36-.15.19-.07.09v.05l-.48-.14a6.07 6.07 0 01.28-2.56zm0-11.12a15 15 0 010 5.56 15 15 0 010-5.56zm0-11.11a15 15 0 010 5.56 15 15 0 010-5.56zm0-11.11a15 15 0 010 5.56 15 15 0 010-5.56zm-2.5-8.07a6.32 6.32 0 012.5-.24l.26.26v.96c0 .17 0 .57-.06.8 0 .45-.11.73-.18.73s-.14-.28-.19-.73c0-.23 0-.5-.05-.8v-.96l.26.26a6.31 6.31 0 01-2.54-.28zm-9-.07a5.29 5.29 0 012.27-.24 5 5 0 012.26.28 5.26 5.26 0 01-2.27.24 5 5 0 01-2.26-.28zm-9.09-.06a5.11 5.11 0 012.26-.25 5.19 5.19 0 012.26.28 5.11 5.11 0 01-2.26.25 5.19 5.19 0 01-2.26-.28zm-9.04-.07a5.19 5.19 0 012.26-.24 5 5 0 012.26.28 5.26 5.26 0 01-2.27.24 5 5 0 01-2.25-.28zm-5.37 1.82c-.05 0-.29-.13-.62-.44-.16-.15-.35-.34-.55-.55l-.31-.34-.17-.18-.09-.08c-.16.4.21-.56.18-.46a6.24 6.24 0 012.49.28 6.32 6.32 0 01-2.5.24c0 .1.33-.86.18-.45l.05.05.09.08.16.2.31.37.49.64c.22.34.35.59.29.64zm3.3 8.95a9.17 9.17 0 01-.56-2.35 8.88 8.88 0 01-.41-2.38 6.77 6.77 0 011 4.73zm-2.29 9.26a8.46 8.46 0 01.84-2.26 9.09 9.09 0 011-2.2 4.38 4.38 0 01-.51 2.4c-.53 1.26-1.22 2.14-1.33 2.06zm-7.06 6.41c-.06-.14.87-.68 1.95-1.42s2-1.38 2.05-1.27-.62.95-1.76 1.7a4.49 4.49 0 01-2.24.99zm-9.45 1.43a34.35 34.35 0 014.83 0 5.93 5.93 0 01-2.42.44 5.71 5.71 0 01-2.41-.44zm-8.62-4.08a9.43 9.43 0 012.05 1.28c1.09.73 2 1.27 2 1.4a4.34 4.34 0 01-2.25-1c-1.18-.73-1.9-1.58-1.8-1.68zm-4.92-8.18a8.5 8.5 0 011 2.2 8.71 8.71 0 01.85 2.26 4.45 4.45 0 01-1.33-2.06 4.56 4.56 0 01-.52-2.4zm.47-9.53a8.88 8.88 0 01-.39 2.38 8.66 8.66 0 01-.55 2.35 4.38 4.38 0 010-2.45 4.33 4.33 0 01.94-2.28zm1.41-6.13a6.31 6.31 0 012.5-.26c.08.2-.19-.44.18.44h-.05l-.09.09-.17.18-.3.34c-.2.22-.39.41-.55.57-.33.31-.56.48-.62.44s.07-.3.33-.68c.13-.19.29-.41.48-.65l.3-.37c.05-.07.11-.13.16-.19l.09-.09.05-.05c.37.88.11.24.19.44a6.11 6.11 0 01-2.5-.21zm-8.67 0c0-.14.56-.26 1.25-.26s1.25.12 1.25.26-.56.26-1.25.26-1.25-.11-1.25-.26z" fill="#263238"/><path d="M366 392.72h-10.81l-29.06.09h-.18v-.19c-1-8.18-2.21-17.47-3.73-27.47-.38-5.09-3.31-9.65-6.37-14a161.09 161.09 0 00-10.46-12.87c-4.91-5.55-9.89-10.79-14.6-15.92-2.35-2.56-4.64-5.09-6.74-7.69a37 37 0 01-2.84-4.06c-.86-1.39-1.64-2.79-2.38-4.19a105.46 105.46 0 01-6.9-16.38 108.4 108.4 0 01-3.72-14.59v-.2h.21l18.82.08h6.3a3.82 3.82 0 01.45 0h-1.75l-5 .05-18.82.07.17-.2a109.55 109.55 0 003.67 14.75 105.39 105.39 0 006.92 16.29c.74 1.39 1.52 2.78 2.37 4.15a36.58 36.58 0 002.81 4c2.09 2.58 4.39 5.1 6.74 7.66 4.7 5.11 9.69 10.35 14.61 15.92A159.47 159.47 0 01316.2 351a56.41 56.41 0 014.22 6.81 23.06 23.06 0 011.48 3.65 25.81 25.81 0 01.73 3.79c1.51 10 2.68 19.29 3.67 27.5l-.21-.18 29.06.09 8 .05h2.09z" fill="#263238"/><path d="M363.34 392.72c0-.14.56-.26 1.25-.26s1.25.12 1.25.26-.56.26-1.25.26-1.25-.11-1.25-.26zm-9.97 0a12.1 12.1 0 015 0 12.1 12.1 0 01-5 0zm-9.96 0a12.05 12.05 0 015 0 12.05 12.05 0 01-5 0zm-9.97 0a12.1 12.1 0 015 0 12.1 12.1 0 01-5 0zm-7.78-2.48c.07 0 .17.27.27.71.05.22.1.49.15.79s.05.31.08.46v.49l-.26-.24a6.31 6.31 0 012.5.26 6.11 6.11 0 01-2.5.26c0-.52-.34-.11-.26-.23v-.94a7.72 7.72 0 010-.79c-.08-.47-.05-.76.02-.77zM324.34 380a13.23 13.23 0 01.67 5.15 13.23 13.23 0 01-.67-5.15zm-1.42-10.33a6.71 6.71 0 01.62 2.53 6.84 6.84 0 01.11 2.61 13.25 13.25 0 01-.73-5.14zm-2.09-10.14a4.94 4.94 0 011.11 2.38 5.32 5.32 0 01.21 2.62 9.06 9.06 0 01-.71-2.48 10 10 0 01-.61-2.52zm-5.3-8.9c.12-.09.86.82 1.66 2a6.84 6.84 0 011.23 2.3c-.12.08-.87-.82-1.66-2a7.1 7.1 0 01-1.23-2.3zm-6.43-8.15c.11-.09.94.73 1.85 1.84a6.58 6.58 0 011.44 2.17c-.11.09-.94-.73-1.85-1.84a6.76 6.76 0 01-1.44-2.17zm-6.86-7.79c.11-.1 1 .69 1.93 1.76a6.76 6.76 0 011.54 2.11c-.11.09-1-.7-1.93-1.76a7 7 0 01-1.54-2.11zm-7.04-7.63c.11-.1 1 .67 2 1.72s1.68 2 1.57 2.08-1-.67-2-1.72a6.87 6.87 0 01-1.57-2.08zm-7.03-7.64c.11-.1 1 .68 1.94 1.74s1.67 2 1.56 2.09-1-.68-1.94-1.74-1.67-2-1.56-2.09zm-4.97-5.89c.12-.09.56.28 1 .81s.69 1.05.58 1.14-.55-.27-1-.81-.69-1.06-.58-1.14z" fill="#263238"/><path d="M282.08 263.92l1.91 1.69s3.23 3.32 3.17 3.4-.11 3.54-.11 3.55l-.22 3.38A2.66 2.66 0 01285 274l-.33 1.53a2.84 2.84 0 01-2-3.2 32 32 0 00.08-3.47l-.62-.55c-.16.09-5.44 1.82-5.43 1.7s-.6-3.78-.6-3.78z" fill="#ffbe9d"/><path d="M264.86 275.72l7.77-11.72 10.53-2.25 6 5 1.25 3.7c-.6.53-2.7-.37-4.21-2.35a12.17 12.17 0 00-3.87-3.07l-5.55 2.43.29 2.95-10.07 9.35z" fill="#ffbe9d"/><path d="M292.6 273.22l-20.47-15.16a1.14 1.14 0 00-1.62.24 1.16 1.16 0 00.24 1.63l20.46 15.16 2.7.55z" fill="#263238"/><path d="M269 283.46l5.89-3.58a6 6 0 001.87-1.79c1.27-1.91 3.87-5.71 4.79-6.35 1.23-.86 5.65-3.64 5.22-4.85s-1.48-2.28-4-.61-8.78 4.72-8.78 4.72l-8 6.73z" fill="#ffbe9d"/><path d="M274.56 270.69a20.35 20.35 0 002.81-1.31c1.69-.85 4.08-2.13 6.58-3.44a1.86 1.86 0 011.8.11 1.35 1.35 0 01.45 1.51 3.62 3.62 0 01-1 1.31c-.41.38-.8.71-1.17 1-1.49 1.17-2.54 1.72-2.5 1.79a2.28 2.28 0 00.77-.32 14.63 14.63 0 001.94-1.19c.39-.29.81-.61 1.23-1a3.83 3.83 0 001.19-1.46 1.82 1.82 0 00-.58-2 2.33 2.33 0 00-2.27-.19c-2.66 1.38-4.9 2.65-6.58 3.59a18.87 18.87 0 00-2.67 1.6z" fill="#eb996e"/><path d="M136 452.14l-.16-13.67 14.22-5-4.81-15.89-18.31 8-9.83 6.42 12.38 25.17 14.23.33s-.96-3.44-7.72-5.36z" fill="#455a64"/><path fill="#fff" d="M117.11 432.01l12.38 25.17 14.23.33-1.56-2.18-11.56-.9-11.41-23.79-2.08 1.37z" opacity=".6"/><path d="M136 445.88c-.1.14-.91-.34-2-.33s-1.92.44-2 .3.69-1 2-.93 2.14.85 2 .96zm-.15-3.39c-.14.09-.76-.76-1.89-1s-2.05.26-2.13.11.12-.3.52-.51a2.68 2.68 0 011.75-.21 2.63 2.63 0 011.49.93c.28.35.33.64.26.68zm.15-4.35c-.16.07-.62-.76-1.61-1.13s-1.88-.06-2-.22.15-.27.55-.4a2.38 2.38 0 011.62 0 2.43 2.43 0 011.25 1c.3.45.31.72.19.75zm1.09-.01c-.18-.05-.07-.94-.5-1.9s-1.12-1.52-1-1.68 1.11.24 1.61 1.43.04 2.23-.11 2.15zm1.68-1.61a6 6 0 01-.33-1.91c-.07-.68-.13-1.37-.19-2.08a4.21 4.21 0 010-1.33 1.15 1.15 0 01.5-.7.88.88 0 011 0 2.57 2.57 0 01.81 1.26 5 5 0 01.26 1.28 4.86 4.86 0 01-.38 2.16c-.51 1.16-1.22 1.57-1.25 1.52a15.12 15.12 0 00.84-1.68 5 5 0 00.21-1.95A4.54 4.54 0 00140 432a2.2 2.2 0 00-.58-1 .28.28 0 00-.3 0 .58.58 0 00-.23.33 4.75 4.75 0 000 1.14c0 .71 0 1.4.06 2.09a5.92 5.92 0 01-.18 1.96z" fill="#263238"/><path d="M139 437.14c-.05 0 .37-.65 1.46-1a3.56 3.56 0 014 1.44.67.67 0 01-.06.55.83.83 0 01-.38.31 2.25 2.25 0 01-.66.13 6.42 6.42 0 01-1.16 0 6.13 6.13 0 01-1.88-.48c-1-.45-1.49-1-1.45-1s.61.29 1.6.6a6.74 6.74 0 001.77.32 6.35 6.35 0 001.06 0 1.78 1.78 0 00.47-.09c.13-.08.09-.06.09-.1s-.15-.21-.28-.34a3.39 3.39 0 00-.42-.33 3.18 3.18 0 00-.91-.44 3.42 3.42 0 00-1.72-.09 16.25 16.25 0 00-1.53.52z" fill="#263238"/><path d="M128.47 431.83a1.69 1.69 0 11-1.65-1.73 1.69 1.69 0 011.65 1.73z" fill="#fff" opacity=".6"/><path d="M224.07 430.14l-.19 18.63s18.87 6.45 19.17 9.9l-36.14.92-.89-29z" fill="#455a64"/><path d="M212.66 447.49a1.47 1.47 0 00-1 1.71 1.41 1.41 0 001.68 1 1.56 1.56 0 001-1.82 1.49 1.49 0 00-1.87-.83m-5.56 12.04v-2.93l34.64.21s1.62.66 1.47 1.8z" fill="#fff" opacity=".6"/><path d="M224.46 448.57c0 .17-.88.28-1.74.87s-1.29 1.34-1.46 1.27.07-1.09 1.12-1.78 2.11-.52 2.08-.36zm3.83 1.43c0 .17-.71.49-1.29 1.25s-.74 1.56-.91 1.55-.32-1 .42-1.93 1.77-1 1.78-.87zm2.27 4.52c-.16 0-.43-.83 0-1.81s1.24-1.38 1.32-1.24-.42.67-.76 1.48-.39 1.55-.56 1.57zm-6.56-10.2c-.07.16-.88-.06-1.88 0s-1.76.43-1.86.28.64-.8 1.81-.89 2.04.47 1.93.61zm0-3.76a3.38 3.38 0 01-1.81 0 7.93 7.93 0 01-1.91-.53 9.28 9.28 0 01-1.05-.52 2.4 2.4 0 01-.56-.42.76.76 0 01-.1-.93 1 1 0 01.76-.42 2.33 2.33 0 01.68.07 6.34 6.34 0 011.14.36 6.54 6.54 0 011.69 1.05c.86.76 1.16 1.41 1.1 1.44s-.5-.48-1.37-1.1a7.27 7.27 0 00-1.63-.86 5.8 5.8 0 00-1.05-.3c-.39-.09-.71-.08-.8.09s0 .09 0 .2a1.81 1.81 0 00.41.3 9.17 9.17 0 001 .52 9.79 9.79 0 001.77.63 11.25 11.25 0 011.73.42z" fill="#263238"/><path d="M223.78 440.82a2.9 2.9 0 01-.52-1.74 5.74 5.74 0 01.19-2 6 6 0 01.44-1.11A1.49 1.49 0 01225 435a.84.84 0 01.76.48 2.61 2.61 0 01.21.66 4.19 4.19 0 010 1.22 4.05 4.05 0 01-.73 1.89c-.68 1-1.41 1.19-1.42 1.13s.54-.45 1.06-1.36a4.36 4.36 0 00.53-1.72 4.09 4.09 0 00-.06-1c-.07-.38-.22-.69-.36-.65s-.48.3-.62.61a6 6 0 00-.73 2.81c.03 1.06.23 1.72.14 1.75zm-78.96-189.45a1.67 1.67 0 01-.67-2.77c-.85-.47-.61-1.81.06-2.51s1.61-1.14 2.13-2a2 2 0 01-2.37-1.71 1.62 1.62 0 01-1-3c-.91-.08-.83-1.58-.07-2.08s1.75-.47 2.57-.86a10.79 10.79 0 015.69-3.33l-3.71-2.76a2.1 2.1 0 01-.75-.79c-.32-.74.26-1.55.87-2.07a8.68 8.68 0 014.61-2c.54-.06 1.23 0 1.41.54a7.78 7.78 0 013.75-.42 3 3 0 012 .61 6 6 0 00-1.33-1.66 2.57 2.57 0 01-.86-1.88c.07-.71.93-1.32 1.52-.92-.66-.31-.57-1.37 0-1.83a3.22 3.22 0 012.07-.52c.51 0 1.16.07 1.3.56a1.42 1.42 0 012.58-.21 1.76 1.76 0 012.53.2 2.26 2.26 0 013.2 1.19l-2-3.31c-.37-.63-.43-1.79.29-1.72a1.57 1.57 0 01-1.12-2.32 2.68 2.68 0 012.71-1.12l.9 1.3a2.06 2.06 0 013.14 2.29 1 1 0 011.55.31 3.07 3.07 0 01.3 1.78 1.76 1.76 0 012.73 1.45 5.67 5.67 0 013-.62 2 2 0 012.63-2.87 2 2 0 012.57-1.62c.32-1.2 1.9-2.09 2.86-1.3s.46 2.42-.15 3.55l-2 3.7 6.45-3.46a1.09 1.09 0 01.64-.19c.31 0 .53.32.81.46a9 9 0 001.28.23c1.14.34 1.12 2.08.34 3s-2 1.33-2.85 2.13l2.86.54a2.93 2.93 0 013.78-2c.39-1.06 1.81-1.19 2.93-1.15a4.17 4.17 0 012.84.84 2.82 2.82 0 010 3.55 8.17 8.17 0 01-3.13 2.22c.19.86 1.31 1.12 2.17 1a5.27 5.27 0 012.6-.16c1.12.42 1.59 1.87 2.71 2.27a5.92 5.92 0 011 .34 2 2 0 01.68 1.34l.42 1.86a2.27 2.27 0 01.08.93c-.2 1-1.62 1.23-2.57.84A13 13 0 00208 234a7.79 7.79 0 013.51 2.71c.76 1.3.45 3.32-1 3.83s-2.84-.72-3.88-1.83-2.54-2.29-3.93-1.66" fill="#263238"/><path d="M146.89 250.48a1.84 1.84 0 00-2.77 1.6 3.84 3.84 0 00-1.43 6.63c.84.71 2.52.74 2.7-.35a3 3 0 002.12 1.84 2.89 2.89 0 001.17 4.1 3.08 3.08 0 00.53 5.11 2.36 2.36 0 104.31 1.92 5 5 0 001.57 2.36 1.73 1.73 0 002.49-.43 3.25 3.25 0 004.62 1.95 2.1 2.1 0 004.13.72l5.4.42a19.57 19.57 0 003.59 0 9.75 9.75 0 004.27-1.55 3.27 3.27 0 011.32-.65 3.34 3.34 0 011.62.39 8.78 8.78 0 008.47-1.24 4.51 4.51 0 011.17-.78 3.79 3.79 0 011.61-.08 16 16 0 004-.23 4.22 4.22 0 002.93-1.58c.6-1 .13-2.58-1-2.66a2.43 2.43 0 01.78-2 1.47 1.47 0 012 .09 1.06 1.06 0 01-.64 1.68c1.15.95 3.15-.07 3.31-1.55a2.94 2.94 0 00-2.69-3 6.81 6.81 0 00.36-3.26 2.42 2.42 0 003.24.66 4.13 4.13 0 002.51 2.15 2.49 2.49 0 002.87-1.26 1.79 1.79 0 00-1.5-2.44 2.14 2.14 0 00-1.63-3.25 3.33 3.33 0 00-1.72-3.69 1.76 1.76 0 002.56-.75c.6 1.14 2.29 1 3.46.47a2.35 2.35 0 001.66-2.41 2.64 2.64 0 00-.82-1.62 6.59 6.59 0 00-4-1.36 17.11 17.11 0 01-1.2-5.52 3.33 3.33 0 003.61-2.4l-7.87-4.79s-18.11-2.8-18.76-2.8-38.49 19.49-38.49 19.49a2.15 2.15 0 01-3.23-.59 3.51 3.51 0 01.31-3.59 10.41 10.41 0 012.76-2.57 5.11 5.11 0 01-3.4-1.08 1.93 1.93 0 01-.52-2.09c.44-1 1.65-1 2.42-1.57a4.22 4.22 0 001-1.38" fill="#263238"/><path d="M186.9 291.75s.69-11.87.7-11.83 8.25-1.43 9.89-12.22c.81-5.37.48-14.16 0-21.34-.45-6.47-4.79-14.37-11.23-13.65l-20.09 5.23a3.79 3.79 0 00-3.37 3.87l1.93 40.51z" fill="#ffbe9d"/><path d="M195.63 253.74a1.39 1.39 0 01-1.32 1.41 1.33 1.33 0 01-1.43-1.24 1.37 1.37 0 011.32-1.4 1.31 1.31 0 011.43 1.23zm-14.38.41a1.38 1.38 0 01-1.32 1.4 1.32 1.32 0 01-1.43-1.24 1.38 1.38 0 011.32-1.4 1.32 1.32 0 011.43 1.24zM195.6 251c-.17.18-1.23-.59-2.71-.58s-2.58.77-2.74.59.09-.41.56-.76a3.79 3.79 0 012.19-.69 3.69 3.69 0 012.16.68c.46.3.62.62.54.76zm-14.38.87c-.17.18-1.23-.59-2.71-.58s-2.58.77-2.74.59.09-.41.57-.76a3.74 3.74 0 012.18-.69 3.69 3.69 0 012.16.68c.46.35.62.68.54.76zm5.23 10.45a10 10 0 012.41-.45c.38 0 .74-.12.8-.38a1.91 1.91 0 00-.26-1.13l-1.14-2.88c-1.59-4.11-2.74-7.49-2.58-7.55s1.59 3.22 3.18 7.32c.38 1 .75 2 1.1 2.91a2.24 2.24 0 01.2 1.49 1 1 0 01-.62.56 2.65 2.65 0 01-.64.09 9.43 9.43 0 01-2.45.02z" fill="#263238"/><path d="M187.6 279.92a27.43 27.43 0 01-14.47-3.75s3.68 7.49 14.47 6.41zm-.98-14.24a3.73 3.73 0 00-3.09-1.64 2.27 2.27 0 00-1.91 3.56 2.33 2.33 0 002.47.89 5.45 5.45 0 002.21-1.39 1.87 1.87 0 00.48-.57.81.81 0 00-.07-.78" fill="#eb996e"/><path d="M182.08 263.38c.24 0 .25 1.6 1.64 2.74s3.11.94 3.12 1.17-.38.32-1.1.34a4 4 0 01-2.61-.89 3.48 3.48 0 01-1.28-2.29c-.06-.68.15-1.08.23-1.07zm-.85-15.54c-.14.41-1.63.23-3.37.45s-3.16.71-3.39.35c-.1-.18.14-.56.71-.95a5.5 5.5 0 012.5-.9 5.76 5.76 0 012.65.29c.67.26.96.57.9.76zm13.77-1.2c-.26.34-1.29 0-2.52 0s-2.27.24-2.52-.11c-.1-.17.06-.51.51-.83a3.52 3.52 0 012-.57 3.43 3.43 0 012 .67c.53.33.66.68.53.84z" fill="#263238"/><path d="M175.61 254.3c0 .14-.34.34-.77.59s-.79.47-.9.37.13-.53.64-.82 1.01-.28 1.03-.14zm.29-.98c0 .14-.5.23-1.08.09s-1-.42-.93-.55.51-.08 1 0 1.02.31 1.01.46zm21.27-.41a.23.23 0 11-.4.23.23.23 0 11.4-.23zm.35 1.03c0 .14-.23.24-.5.23s-.49-.15-.48-.29.24-.25.51-.23.48.14.47.29zm-15.39 9.14c0 .14-.42.14-.82.28s-.7.36-.82.27.08-.57.66-.76 1.04.13.98.21z" fill="#eb996e"/><path d="M162.74 252.86a1.8 1.8 0 00.51 2.07 1.24 1.24 0 001.77-.49c.47.63 1.55 0 1.4-.84.58.33 1.35-.45 1.16-1.19.68.27 1.08-.83 1.44-1.56a11.53 11.53 0 01.7-1.11 7.66 7.66 0 001.12-4.07 7.45 7.45 0 001.29-4l.33-2.68.51-.63a1.44 1.44 0 001 1.4 3.11 3.11 0 001.63 0l1.6-.31 1 .3a4 4 0 00.29 2.61 2.53 2.53 0 00.92 1.47.76.76 0 001.06-.81.85.85 0 001.3-.2 2.73 2.73 0 00.37-1.66 7.08 7.08 0 00-1.27-3.89l2.77 2.62a1.37 1.37 0 00.69.42.74.74 0 00.78.82 1.93 1.93 0 001-.69c.68-.72 1.41-1.92.81-2.73a.61.61 0 00.27-.88l3.15 2.42c-.31-.19-.66.3-.6.71a1.72 1.72 0 00.66.94 2.42 2.42 0 00-.37 1.5c-.57-.51-1.43.43-1.25 1.25a1.78 1.78 0 001.67 1.31 1.24 1.24 0 001.41-.91c.7.15 1.37-.81 1.13-1.59.5.34.94-.56 1-1.25a9.85 9.85 0 00-.53-3.67c0 .17.17.32.3.22a.28.28 0 00-.05-.42l1.77 4.36a10.34 10.34 0 011 3.62c0 .52.06 1.24.5 1.28a.59.59 0 00.34-.08 6.54 6.54 0 002.87-3.31 5 5 0 00.44-1.53 21.93 21.93 0 00-.43-3.3 12.12 12.12 0 00-.09-1.48 4.36 4.36 0 00-1.14-1.92c-1.7-2-3.49-4-5.77-4.84-1.4-.49-2.89-.48-4.28-.95a23.79 23.79 0 01-2.51-1.17 21.41 21.41 0 00-11-1.54 17.62 17.62 0 00-6.08 1.41 21.32 21.32 0 00-5.71 4.36 32.5 32.5 0 00-6.72 9 15.79 15.79 0 00-1.62 8.9c.44 3 2.32 5.92 4.88 6.55.33-.38.67-.76 1-1.15" fill="#263238"/><path d="M165.69 254.93c-.15-.07-6-1.93-5.95 4.09s6.08 4.72 6.09 4.55-.14-8.64-.14-8.64z" fill="#ffbe9d"/><path d="M164 261.31s-.1.07-.28.15a1.06 1.06 0 01-.78 0 2.59 2.59 0 01-1.22-2.32 3.44 3.44 0 01.28-1.5 1.21 1.21 0 01.78-.82.54.54 0 01.62.29c.08.16 0 .28.08.29s.12-.1.07-.35a.61.61 0 00-.24-.37.8.8 0 00-.58-.15 1.47 1.47 0 00-1.08.94 3.43 3.43 0 00-.35 1.68 2.72 2.72 0 001.55 2.59 1.1 1.1 0 001-.17c.15-.12.15-.25.15-.26z" fill="#eb996e"/><path d="M185.37 253.09a12.62 12.62 0 00-.28-1.73 7 7 0 00-9.24-4.85 6.46 6.46 0 00-1.77 1 6.54 6.54 0 00-1.48 1.49 7 7 0 000 8.28 6.3 6.3 0 001.48 1.48 6.5 6.5 0 001.77 1 7.11 7.11 0 003.68.32 7.13 7.13 0 005.56-5.17 12.62 12.62 0 00.28-1.73 2.69 2.69 0 010 .46 2.89 2.89 0 010 .55 6.11 6.11 0 01-.13.74 7.18 7.18 0 01-5.63 5.37 7.28 7.28 0 01-3.81-.3 6.71 6.71 0 01-1.84-1 6.62 6.62 0 01-1.54-1.54 7.25 7.25 0 010-8.59 7.41 7.41 0 013.38-2.52 7.28 7.28 0 013.81-.3 7.18 7.18 0 015.63 5.37 6.11 6.11 0 01.13.74 2.89 2.89 0 010 .55 2.69 2.69 0 010 .38zm16.98 0a12.62 12.62 0 00-.28-1.73 7 7 0 00-9.24-4.85 6.46 6.46 0 00-1.77 1 6.54 6.54 0 00-1.48 1.49 7 7 0 000 8.28 6.3 6.3 0 001.48 1.48 6.5 6.5 0 001.77 1 7.11 7.11 0 003.68.32 7.13 7.13 0 005.56-5.17 12.62 12.62 0 00.28-1.73 2.69 2.69 0 010 .46 4 4 0 010 .55 6.11 6.11 0 01-.13.74 7.18 7.18 0 01-5.63 5.37 7.28 7.28 0 01-3.81-.3 6.71 6.71 0 01-1.84-1 6.62 6.62 0 01-1.54-1.54 7.21 7.21 0 010-8.59 7.41 7.41 0 013.38-2.52 7.28 7.28 0 013.81-.3 7.18 7.18 0 015.63 5.37 6.11 6.11 0 01.13.74 4 4 0 010 .55 2.69 2.69 0 010 .38z" fill="#455a64"/><path d="M188.39 251.42c0 .07-.72-.21-1.61-.24s-1.6.2-1.63.12a2.48 2.48 0 011.64-.39 2.41 2.41 0 011.6.51zm-17.34 2.38a11.77 11.77 0 01-3 .76 11.63 11.63 0 01-3.09.22c0-.08 1.37-.22 3.05-.49s2.99-.57 3.04-.49z" fill="#455a64"/><path d="M184.62 252a4.29 4.29 0 01-.08 1.34 8.42 8.42 0 01-1.18 3 7.38 7.38 0 01-2.27 2.34 1.69 1.69 0 01-1.32.29 3.19 3.19 0 001.22-.46 8.09 8.09 0 002.14-2.31 9.71 9.71 0 001.23-2.93c.18-.79.21-1.27.26-1.27zm15.52 4.55s.23-.44.58-1.13a5.45 5.45 0 00.47-1.25 4.37 4.37 0 000-1.62 8.67 8.67 0 00-.85-2.87 12.39 12.39 0 00-.7-1s.12.06.28.21a3.59 3.59 0 01.59.73 7.64 7.64 0 011 2.93 4.29 4.29 0 01-.05 1.72 4.86 4.86 0 01-.55 1.29 4.34 4.34 0 01-.77.99z" fill="#fff"/><path d="M161.44 263.37s-.16.07-.39.25a1.9 1.9 0 00-.69 1 1.69 1.69 0 00.36 1.68 2 2 0 002 .59 2.17 2.17 0 001.09-3.3 2.7 2.7 0 00-.92-.83c-.26-.15-.42-.2-.42-.22a1.1 1.1 0 01.47.12 2.61 2.61 0 011 .82 2.35 2.35 0 01.42 1.91 2.38 2.38 0 01-1.59 1.76 2.26 2.26 0 01-2.27-.68 1.8 1.8 0 01-.45-1 2 2 0 01.91-2c.3-.1.48-.12.48-.1z" fill="#455a64"/><path d="M186.4 235.83a1.54 1.54 0 00.41-.78 1.07 1.07 0 00-.27-.9 1.14 1.14 0 00-1.16-.3l-.25.08.11-.24a1.2 1.2 0 00-.31-1.33 1.17 1.17 0 00-1.5 0l-.2-.19a.53.53 0 00.08-.15.66.66 0 00-.09-.56.74.74 0 00-.49-.31 1.35 1.35 0 00-.6 0 1.52 1.52 0 01-.68.15c-.29-.05-.41-.26-.56-.36a2.59 2.59 0 00-.47-.29 2.66 2.66 0 00-1-.22 2.7 2.7 0 00-1.41.34c-.3.17-.44.32-.45.3s.1-.18.4-.39a2.53 2.53 0 011.46-.44 2.66 2.66 0 011.58.51c.17.13.3.29.45.3a1.27 1.27 0 00.56-.15 1.63 1.63 0 01.73 0 1 1 0 01.66.42.93.93 0 01.13.8.7.7 0 01-.13.24l-.2-.19a1.38 1.38 0 012.21 1.58l-.14-.16a1.32 1.32 0 011.36.39 1.18 1.18 0 01.27 1.06 1.27 1.27 0 01-.33.61c-.08.15-.16.19-.17.18zm6.72 1.74a1.79 1.79 0 00.51-.75 1.31 1.31 0 00-.06-1 1.41 1.41 0 00-1-.77h-.2l.13-.14a1.67 1.67 0 00.46-1.47.87.87 0 00-.54-.61.71.71 0 00-.79.1l-.77.82.56-1a1.42 1.42 0 00.07-1.18 1.36 1.36 0 00-1.83-.7l-.31.15.13-.33c.18-.46-.29-1-.76-1.06a2.29 2.29 0 00-1.42.36l-.26.14.08-.28a1 1 0 00-.33-1 1.92 1.92 0 00-.92-.41 4.91 4.91 0 00-1.73 0 7.89 7.89 0 00-1.45.52 1.49 1.49 0 01.34-.23 4.19 4.19 0 011.08-.43 4.68 4.68 0 011.8-.1 2.07 2.07 0 011 .45 1.23 1.23 0 01.41 1.19l-.18-.14a2.54 2.54 0 011.59-.4 1.27 1.27 0 01.79.48 1 1 0 01.17.95l-.19-.18a1.69 1.69 0 011.09-.11 1.57 1.57 0 011.12 1 1.67 1.67 0 01-.11 1.4l-.2-.16a1 1 0 011.08-.15 1.15 1.15 0 01.68.78 1.92 1.92 0 01-.54 1.67l-.07-.18a1.6 1.6 0 011.18.91 1.43 1.43 0 010 1.13 1.33 1.33 0 01-.41.58c-.11.13-.19.16-.2.15z" fill="#e0e0e0"/><path d="M207.61 238.83a1 1 0 00-.35-.74 1.28 1.28 0 00-.89-.32 3.73 3.73 0 00-1.29.3l-.15.05v-.16a1.15 1.15 0 00-.95-1.13 3.34 3.34 0 00-1.91.31l-.84.31.72-.54a1 1 0 00-.07-1.37 2.14 2.14 0 00-1.68-.4h-.62l.45-.29a1 1 0 00-.12-1.63 1.56 1.56 0 00-1.73.17l-.55.44.37-.61a2.32 2.32 0 000-2.36 2.17 2.17 0 00-1.6-1 2.45 2.45 0 00-1.27.16c-.28.12-.41.22-.42.21s0 0 .09-.09a1.58 1.58 0 01.3-.19 2.35 2.35 0 011.32-.24 2.3 2.3 0 011.76 1.06 2.56 2.56 0 010 2.61l-.19-.17a1.82 1.82 0 012-.19 1.33 1.33 0 01.58 1 1.14 1.14 0 01-.47 1.09l-.08-.25h.08a2.41 2.41 0 011.89.47 1.39 1.39 0 01.41.89 1 1 0 01-.37.89l-.12-.22a3.55 3.55 0 012.06-.29 1.37 1.37 0 011.09 1.38l-.13-.1a3.63 3.63 0 011.35-.28 1.41 1.41 0 011 .4 1 1 0 01.3.59c.07.16.04.24.03.24zM200 225s-.11.08-.36.13a4.53 4.53 0 01-1 .05 3.19 3.19 0 00-1.51.23.94.94 0 00-.53.66.68.68 0 00.27.79l-.18.13c-.06-.34-.49-.56-.88-.79a4.37 4.37 0 00-1.27-.55 1.61 1.61 0 00-1.29.2 1.09 1.09 0 00-.55 1v.33l-.25-.22a3 3 0 00-1.77-.73 3.37 3.37 0 00-1.52.22 4.09 4.09 0 00-1.16.74s.06-.12.23-.3a2.93 2.93 0 01.87-.59 3.43 3.43 0 011.59-.28 3.15 3.15 0 011.92.75l-.21.11a1.36 1.36 0 01.67-1.26 1.94 1.94 0 011.49-.24 4.71 4.71 0 011.35.58c.2.13.4.23.59.38a1 1 0 01.4.62v.25l-.23-.12a.94.94 0 01-.38-1.08 1.18 1.18 0 01.66-.79 3.1 3.1 0 011.62-.19 7.52 7.52 0 001 0 2 2 0 01.43-.03zm-13.42-5.18a3.39 3.39 0 00-.71.1 1.65 1.65 0 00-1.12 1.34v.15h-.14a.9.9 0 00-1 .56 2.66 2.66 0 00-.05 1.49l.08.54-.33-.44-.05-.07a1.13 1.13 0 00-.93-.38 1.26 1.26 0 00-.89.38 2.06 2.06 0 00-.55 1.6 3.81 3.81 0 00.31 1.18 1.63 1.63 0 01.16.42 1.21 1.21 0 01-.26-.38 3.4 3.4 0 01-.4-1.2 2.22 2.22 0 01.56-1.8 1.52 1.52 0 012.21 0l.07.09-.25.09a2.78 2.78 0 01.09-1.64 1.12 1.12 0 011.3-.67l-.16.1a1.61 1.61 0 01.54-1 1.72 1.72 0 01.77-.43 1.4 1.4 0 01.56 0c.13-.06.19-.04.19-.03zm-11.86 8.24a.91.91 0 01-.36-.08 2.24 2.24 0 01-.81-.58 2.43 2.43 0 01-.62-1.37 1.26 1.26 0 00-.18-.73c-.16-.2-.49-.32-.69-.63a1.36 1.36 0 01.35-1.83v.2a4.29 4.29 0 01-1.16-1.62 1.83 1.83 0 01-.19-.74 7.3 7.3 0 01.32.68 4.89 4.89 0 001.19 1.49l.13.1-.14.1a1.11 1.11 0 00-.26 1.47c.13.23.43.34.66.6a1.5 1.5 0 01.23.89 2.29 2.29 0 00.51 1.26 3.83 3.83 0 001.02.79zm-3.49 2.38a.48.48 0 01-.23 0 2.67 2.67 0 01-.64-.05 3.58 3.58 0 01-2-1.14h.18a2.35 2.35 0 01-1.6.84 2.51 2.51 0 01-1-.12 1.46 1.46 0 01-.86-.68 2.17 2.17 0 01-.11-.39.53.53 0 00-.17-.25 1.73 1.73 0 00-.63-.28 2.12 2.12 0 01-.7-.29.76.76 0 01-.38-.66l.17.12a2.38 2.38 0 01-1.66 0 2.58 2.58 0 01-1.09-.68 2.05 2.05 0 01-.44-.7.62.62 0 01-.07-.28 3.45 3.45 0 00.62.88 2.71 2.71 0 001 .59 2.29 2.29 0 001.5-.07l.18-.08v.2a.54.54 0 00.29.44 1.91 1.91 0 00.62.24 1.9 1.9 0 01.73.33.84.84 0 01.26.38c0 .14 0 .27.09.36a1.25 1.25 0 00.71.53 2.14 2.14 0 002.34-.61l.09-.1.09.1a3.73 3.73 0 001.86 1.16c.53.19.85.18.85.21zm-21.45 8.35v-.38a2.9 2.9 0 01.13-1.08 6.48 6.48 0 01.73-1.52 6.12 6.12 0 01.6-.86 1.55 1.55 0 01.47-.36.72.72 0 01.67 0l-.17.11a1.87 1.87 0 01.79-1.7 1.83 1.83 0 012.09.15l-.21.1a1.22 1.22 0 011.66-1.16 1.27 1.27 0 01.53.41l-.24.09a.79.79 0 01.28-.64 1 1 0 01.62-.25 2.43 2.43 0 011.16.29l-.17.05a2 2 0 011.18-.82 2.85 2.85 0 011.33 0 6.89 6.89 0 012.05 1l-.14.13a.49.49 0 01.05-.48.81.81 0 01.34-.25 1.41 1.41 0 01.72-.11 4.07 4.07 0 011.08.33 3.25 3.25 0 01.61.36l.19.16s-.28-.19-.84-.42a4.26 4.26 0 00-1.06-.28 1.44 1.44 0 00-.63.12c-.2.09-.38.29-.28.49l.15.3-.3-.18a6.68 6.68 0 00-2-.95 2.36 2.36 0 00-1.21 0 1.66 1.66 0 00-1 .71l-.06.1h-.11a2.39 2.39 0 00-1-.27c-.32 0-.68.3-.65.61v.48l-.29-.39a.85.85 0 00-.41-.31.93.93 0 00-.9.1 1 1 0 00-.4.8v.29l-.23-.19a1.59 1.59 0 00-1.79-.13 1.62 1.62 0 00-.75 1.48v.22l-.19-.11c-.29-.17-.65.06-.88.3a5.64 5.64 0 00-.59.82 6.73 6.73 0 00-.77 1.46 3.9 3.9 0 00-.16 1.38zm1.52 7.96a1.56 1.56 0 01-.14-.17 4.48 4.48 0 01-.31-.55 1.93 1.93 0 01-.22-1 1.5 1.5 0 01.2-.62 1 1 0 01.6-.46l-.06.15a1.32 1.32 0 01-.05-1.35 1.3 1.3 0 011.41-.59l-.13.19a1 1 0 010-1.21 1.54 1.54 0 011.16-.54h.61a.56.56 0 00.38-.33 2.07 2.07 0 01.35-.59 1.23 1.23 0 01.64-.35 7.1 7.1 0 011.45 0 1.58 1.58 0 001.17-.34 5.85 5.85 0 00.37-.52 1.43 1.43 0 01.55-.43 1.48 1.48 0 011.27.07l-.16.17a1.09 1.09 0 01.15-1.25 1.51 1.51 0 011-.5 4.74 4.74 0 011.78.22 5.29 5.29 0 011.06.43 1.47 1.47 0 01.35.21 15 15 0 00-1.45-.51 5 5 0 00-1.71-.16 1.35 1.35 0 00-.88.45.87.87 0 00-.12 1l.29.43-.45-.26a1.2 1.2 0 00-1.05 0 1 1 0 00-.44.34 5.18 5.18 0 01-.39.55 1.4 1.4 0 01-.65.36 2.9 2.9 0 01-.71.07 7.11 7.11 0 00-1.39 0 .91.91 0 00-.5.27 2.06 2.06 0 00-.31.53.81.81 0 01-.57.46 4.68 4.68 0 01-.65 0 1.26 1.26 0 00-1 .43.77.77 0 000 .91l.21.28-.34-.09a1.08 1.08 0 00-1.16.48 1.12 1.12 0 000 1.12l.08.12h-.13a1 1 0 00-.7.91 1.83 1.83 0 00.16.94c.29.46.45.72.43.73zm.46 16.54a.71.71 0 01-.27-.08 2.09 2.09 0 01-.62-.49 1.92 1.92 0 01-.45-1.15 2.07 2.07 0 01.55-1.52v.14a3.67 3.67 0 01-.7-1.35 1.45 1.45 0 01.06-.87 1.09 1.09 0 01.64-.67v.24a1.57 1.57 0 01-.68-1.42 1.79 1.79 0 01.28-.89 1.51 1.51 0 01.7-.56c.26-.11.38-.23.39-.5a2.17 2.17 0 01.18-.79 2.82 2.82 0 011-1.09l1-.73a4.62 4.62 0 011.66-.78 2.52 2.52 0 01.5 0h.17s-.24 0-.65.12a4.81 4.81 0 00-1.57.83l-1 .76a2.54 2.54 0 00-.92 1 1.85 1.85 0 00-.15.72.78.78 0 01-.15.44 1 1 0 01-.38.27 1.41 1.41 0 00-.28 2.4l.23.15-.26.09a1.08 1.08 0 00-.55 1.24 3.56 3.56 0 00.65 1.27v.08l-.06.07a1.88 1.88 0 00-.54 1.35 1.84 1.84 0 00.38 1.08 2.52 2.52 0 00.84.64zm8.5-7.07a1 1 0 01-.37-.08 3.3 3.3 0 01-.95-.49 3.67 3.67 0 01-1.09-1.27 1.47 1.47 0 01-.18-1 .71.71 0 01.42-.46.57.57 0 01.66.11l-.21.12a1.84 1.84 0 01-.18-1 .85.85 0 01.32-.51.72.72 0 01.63-.09 1.07 1.07 0 00.47.06c.09 0 .12-.16.11-.36a1.66 1.66 0 01.46-1.15 1.79 1.79 0 011.84-.53l-.17.16a1.54 1.54 0 01.28-1.5 1 1 0 01.74-.23.69.69 0 01.6.45h-.23a3.66 3.66 0 01.47-2 3.83 3.83 0 011-1.19 3.32 3.32 0 01.88-.5 1.48 1.48 0 01.34-.09 5.69 5.69 0 00-1.13.7 3.69 3.69 0 00-.93 1.17 3.55 3.55 0 00-.4 1.88l.06 1-.29-.94c-.1-.32-.67-.37-.94-.1a1.31 1.31 0 00-.2 1.25l.06.24-.24-.08a1.5 1.5 0 00-1.55.46 1.35 1.35 0 00-.39 1 1.27 1.27 0 010 .32.42.42 0 01-.26.29 1.2 1.2 0 01-.62-.05.41.41 0 00-.41 0 .56.56 0 00-.23.35 1.65 1.65 0 00.16.91l.25.66-.45-.54c-.18-.21-.63 0-.69.26a1.27 1.27 0 00.15.89 3.58 3.58 0 001 1.24 5.36 5.36 0 001.21.64zm13.62-16.76a2 2 0 01-.8-.32 2.35 2.35 0 01-.73-.64 1.46 1.46 0 01-.26-1.18 1 1 0 01.11-.28l.05.19a1.35 1.35 0 01-.67-.9 1.19 1.19 0 01.18-.88c.3-.44.65-.48.64-.45s-.27.14-.48.54a1.06 1.06 0 00-.1.74 1.07 1.07 0 00.56.7l.12.06-.07.13a1.43 1.43 0 00-.08.22 1.31 1.31 0 00.21 1 2.43 2.43 0 00.62.62c.43.26.73.41.7.45z" fill="#455a64"/><path d="M180.21 236.53a1.62 1.62 0 00.19-1 1.12 1.12 0 00-.64-.85 1.21 1.21 0 00-1.3.2l-.17.16v-.23a2.38 2.38 0 00-.31-.8 1.08 1.08 0 00-.68-.49c-.44-.06-.92.35-.8.71h-.26a2 2 0 00-.75-1.36 2 2 0 00-1.16-.44 2.93 2.93 0 00-1.14.2s.08-.09.27-.18a2 2 0 01.87-.19 2.1 2.1 0 011.3.43 2.27 2.27 0 01.87 1.51l-.26.05a.77.77 0 01.27-.79 1.09 1.09 0 01.82-.26 1.28 1.28 0 01.87.61 2.32 2.32 0 01.34.9l-.22-.07a1.44 1.44 0 011.57-.21 1.29 1.29 0 01.71 1 1.35 1.35 0 01-.16.8c-.14.25-.22.31-.23.3z" fill="#e0e0e0"/><path fill="#263238" d="M138.91 418.93l42.77-13.76-42.97 1.32-2.98-28.77 81.8 7.14 11.56 16.63-3.05 20.87-79.7 20.26-7.43-23.69z"/><path d="M230.33 435l1.95-69.1a19.42 19.42 0 00-10.68-16.39 23.14 23.14 0 00-17.51-1.63L151 364.11 121.89 371a55.39 55.39 0 00-3.73 16.49c-.78 12.64 9.91 24 23.72 20.55 12.77-3.22 62.33-22.73 62.33-22.73l-3.57 51z" fill="#263238"/><path d="M191.67 399.77a13.92 13.92 0 00-5.46 1.92 14.24 14.24 0 00-4.52 3.6c.1.12 2-1.65 4.76-3.17s5.26-2.21 5.22-2.35zm12.54-19.24a.68.68 0 01-.2.12l-.6.31-2.33 1.12-8.62 4L164 399.22l-8.14 3.72-3.86 1.76c-1.26.57-2.5 1.16-3.75 1.62a43.89 43.89 0 01-7.27 2.15 22.36 22.36 0 01-6.6.15 17.9 17.9 0 01-8.69-3.77c-.88-.7-1.53-1.29-2-1.69l-.49-.47c-.11-.1-.16-.16-.15-.17a7.5 7.5 0 01.71.56c.45.37 1.12.94 2 1.6a17.82 17.82 0 008.61 3.57 22 22 0 006.48-.21 44.43 44.43 0 007.16-2.16c1.24-.47 2.46-1.05 3.73-1.63l3.86-1.78 8.14-3.72 28.57-13 8.68-3.88 2.37-1 .62-.26z" fill="#455a64"/><path d="M204.08 379.73v1.07c0 .72-.08 1.76-.15 3.09-.15 2.73-.36 6.67-.64 11.64-.58 10-1.41 24.13-2.38 40.75l-.25-.25 29.69-1.25-.25.25c.06-1.67.12-3.45.19-5.25.45-12.64.84-24.68 1.13-35.64s.55-20.83.39-29.1c0-.52-.05-1-.08-1.53a13.85 13.85 0 00-.13-1.47 10.4 10.4 0 00-.81-2.71 13.2 13.2 0 00-3.06-4.18 25.14 25.14 0 00-7.09-4.43 39.57 39.57 0 00-5-1.76l-1.34-.36-.46-.12a4.14 4.14 0 01.47.07l1.36.3a38.21 38.21 0 015.07 1.69 24.94 24.94 0 017.21 4.4 13.42 13.42 0 013.16 4.25 10.29 10.29 0 01.85 2.79 12.49 12.49 0 01.15 1.5c0 .51.08 1 .08 1.54.22 8.3 0 18.17-.27 29.13s-.64 23-1.09 35.65c-.07 1.8-.13 3.58-.19 5.25v.24h-.24l-29.69 1.21h-.27v-.27c1-16.62 1.94-30.74 2.57-40.74.33-5 .59-8.9.78-11.63.09-1.33.17-2.36.22-3.09 0-.33.05-.59.07-.79a1.14 1.14 0 010-.25z" fill="#455a64"/><path d="M211.83 373.23a22.53 22.53 0 00-4.56 3.28 22.82 22.82 0 00-3.19 4.62 3.87 3.87 0 01.49-1.62 12.11 12.11 0 012.33-3.36 11.81 11.81 0 013.32-2.39 4 4 0 011.61-.53z" fill="#455a64"/><path d="M272 283.38l-35.74 27.28a16.13 16.13 0 01-11.85 3.16l-38.71-1.22 2-22 42.27.66 34.37-18.89z" fill="#00b0b9"/><path d="M208.71 338.53l10.17 1.53 9.12 5.64v9c-4.29-3.23-10.46-6.62-14.92-6.27z" fill="#ffbe9d"/><path d="M186.85 285c0 1 8.53 25 8.42 34.25-.14 12.11-12.86 21.46-12.86 21.46l-12.91 20.63c-19.62 13.29-48.75 22.13-47.64 8.08L137 330l9.38-21.83a55.72 55.72 0 0114.27-23.67l7.68-5.14z" fill="#00b0b9"/><path d="M176.77 307.61l-6.22 33.11 39.39-5.18 4.52 15.18L164 363.86a14.24 14.24 0 01-17.57-4.78 14.26 14.26 0 01-2.14-11.72l11.3-44.36a10.85 10.85 0 0114-7.59 10.84 10.84 0 017.18 12.2z" fill="#00b0b9"/><path d="M160.93 299a21.71 21.71 0 015.25-1.26 21.81 21.81 0 015.37.54 9.41 9.41 0 00-5.41-1 9.29 9.29 0 00-5.21 1.72z" fill="#263238"/><path d="M148.35 361.34c-5.7.52-9-2.73-9.62-7.18-.34-2.45.47-4.9 1.27-7.24 3.5-10.26 7-20.59 12.58-29.9-2.09 9.31-4.77 18.25-6.86 27.56a28.66 28.66 0 00-.89 7.93 14.32 14.32 0 003.52 8.83" opacity=".3"/><path d="M130.44 374.74a6.83 6.83 0 01-2.67-1.6 7 7 0 01-2.08-2.32 14.87 14.87 0 012.41 1.91 14.9 14.9 0 012.34 2.01z" fill="#fafafa"/><path d="M173 361.5a6.9 6.9 0 01-.82.24l-2.34.66-3.69 1.14a37.21 37.21 0 01-5 1.25 18.35 18.35 0 01-6.23 0 14.23 14.23 0 01-6.54-2.9 11.21 11.21 0 01-3.9-6.82 20.17 20.17 0 01.53-8.47c1.58-5.57 2.87-10.91 4-15.79l3-13c.86-3.68 1.59-6.66 2.13-8.72.26-1 .48-1.82.63-2.35a5.21 5.21 0 01.26-.81 5.12 5.12 0 01-.16.83c-.13.59-.31 1.39-.54 2.38-.47 2.12-1.14 5.1-2 8.76s-1.81 8.11-2.91 13-2.4 10.25-4 15.81A19.86 19.86 0 00145 355a10.76 10.76 0 003.71 6.54 13.66 13.66 0 006.31 2.84 17.87 17.87 0 006.09.08 39.25 39.25 0 005-1.16c1.44-.42 2.69-.78 3.71-1.05s1.83-.46 2.38-.57a4.83 4.83 0 01.8-.18z" fill="#263238"/><path d="M209.94 335.54a1.77 1.77 0 01-.49.12l-1.42.23-5.22.77c-4.42.63-10.52 1.46-17.26 2.35l-15 1.91h.07a13.05 13.05 0 00-5 4.63c-.87 1.4-1.14 2.3-1.2 2.28a2.88 2.88 0 01.19-.65 10.56 10.56 0 01.81-1.75 12.84 12.84 0 015-4.87l15-2c6.74-.88 12.85-1.66 17.28-2.19l5.24-.61 1.43-.14a2 2 0 01.57-.08z" fill="#263238"/><path d="M176.45 304.31a7.67 7.67 0 01-.06 1.46c-.07.93-.22 2.27-.42 3.93-.41 3.32-1.08 7.88-1.92 12.9s-1.69 9.57-2.33 12.84c-.33 1.64-.6 3-.8 3.87a6.7 6.7 0 01-.37 1.41 8.72 8.72 0 01.17-1.44c.16-1 .38-2.33.63-3.9.58-3.39 1.34-7.89 2.18-12.86s1.58-9.57 2.07-12.87c.24-1.57.43-2.89.58-3.91a7.56 7.56 0 01.27-1.43z" fill="#263238"/><path d="M162.25 283.4l1.67-5.89L187 286.1a3.47 3.47 0 012.13 5 3.46 3.46 0 01-4.46 1.46z" fill="#00b0b9"/><path d="M195 314a4.45 4.45 0 01-.31-1.14c-.21-.85-.46-1.9-.76-3.14-.65-2.65-1.65-6.28-2.94-10.23-.86-2.64-1.76-5.08-2.6-7.11l-.07-.16.15-.11a3.36 3.36 0 001.37-2.44 3.27 3.27 0 00-.59-2.13 4.7 4.7 0 00-1.52-1.3s.2 0 .52.16a3.36 3.36 0 011.21 1 3.51 3.51 0 01.75 2.31 3.77 3.77 0 01-1.48 2.79l.08-.27c.88 2 1.81 4.47 2.67 7.12a100.52 100.52 0 012.81 10.3c.29 1.34.48 2.43.6 3.19A6.09 6.09 0 01195 314z" fill="#263238"/><path d="M167.37 314.19a6.52 6.52 0 01-1.29-2.94 6.44 6.44 0 01-.22-3.2 22 22 0 01.73 3.08 21 21 0 01.78 3.06zm-7.64 4.49a6.24 6.24 0 01-1.86 2.25 6.09 6.09 0 01-2.46 1.57c-.08-.13.93-.91 2.11-2s2.09-1.92 2.21-1.82zm7.96 10.32c-.11.09-.87-.68-1.43-1.87a3.77 3.77 0 01-.55-2.29c.15 0 .48.94 1 2.07s1.1 1.98.98 2.09zm-9.46 7.28a8.27 8.27 0 01.5-2.89 8.19 8.19 0 011-2.75 8.87 8.87 0 01-.5 2.89 8.19 8.19 0 01-1 2.75zm-4.86 8.99c-.14.05-.62-.83-1.07-2a4.92 4.92 0 01-.59-2.17c.13-.05.61.83 1.07 2a5.06 5.06 0 01.59 2.17zm14.51-6.27c.09.13-1 .94-2.21 2a14.42 14.42 0 01-2.3 1.92 6.55 6.55 0 012-2.32 6.66 6.66 0 012.51-1.6zm-12.76 21a17.86 17.86 0 01-1.83-2.85 17.31 17.31 0 01-1.71-2.93 8.39 8.39 0 012.15 2.66 8.22 8.22 0 011.39 3.12zm9.61-4.47a16.87 16.87 0 01-2.59-1.31 17.23 17.23 0 01-2.59-1.31 5.64 5.64 0 012.83.84 5.75 5.75 0 012.35 1.78zm8.13-1.63c.12.11-.5.92-1 2a13.7 13.7 0 01-.86 2.1 3.33 3.33 0 01.42-2.31c.51-1.17 1.35-1.88 1.44-1.79zm5.63-6.49a11.5 11.5 0 01-2.34-1 11.77 11.77 0 01-2.31-1.12 4.81 4.81 0 012.53.64c1.32.57 2.21 1.37 2.12 1.48zm4.51 4.15c.11.1-.36.84-1 1.66s-1.33 1.43-1.44 1.33.35-.83 1-1.66 1.31-1.42 1.44-1.33zm4.78-6.47c-.14 0-.48-.9-1.15-1.89s-1.41-1.66-1.32-1.78 1 .4 1.75 1.49a3.07 3.07 0 01.72 2.18zm5.14 3.81a9.8 9.8 0 01.49-3.13 9.92 9.92 0 011-3 19.18 19.18 0 01-1.49 6.14zm10.84 2.1a6.45 6.45 0 01-2.23-1.27c-1.16-.82-2-1.58-1.94-1.69a6.53 6.53 0 012.24 1.27c1.17.85 2.01 1.6 1.93 1.69zm3.13-11.73c.13.06-.2 1-1 1.82s-1.61 1.29-1.69 1.17.59-.71 1.3-1.52 1.26-1.54 1.39-1.47zm-44.8-37.16c.09.1-.61.93-1.57 1.85s-1.83 1.57-1.93 1.47.61-.94 1.57-1.85 1.84-1.58 1.93-1.47zm9.99 4.1a6.63 6.63 0 01-.86-2.43 6.54 6.54 0 01-.35-2.54 6.54 6.54 0 01.86 2.42 6.35 6.35 0 01.35 2.55zM170.35 290a4.88 4.88 0 01-2.18 0 4.77 4.77 0 01-2.13-.51 4.75 4.75 0 012.19 0c1.19.09 2.14.31 2.12.51zm7.48 11.24c-.14 0-.44-.7-.43-1.66s.29-1.7.43-1.66.08.77.09 1.66.08 1.63-.09 1.66zm9.17 2.97a8.55 8.55 0 01-2.34-1.8c-1.2-1.1-2.09-2.07-2-2.18A8.46 8.46 0 01185 302a8.62 8.62 0 012 2.21zm-3.19 6.34c.08.12-.49.63-1.27 1.13s-1.48.81-1.55.69.49-.62 1.27-1.13 1.47-.81 1.55-.69zm5.66 8.79a6.65 6.65 0 011.11-5.16 17 17 0 01-.58 2.57 15.56 15.56 0 01-.53 2.59zm-5.17 4.32c-.13.07-.68-.77-1.23-1.87a5 5 0 01-.76-2.11c.13-.07.68.77 1.23 1.87a5 5 0 01.76 2.11zm-7.6 2.34a6.83 6.83 0 01-.84 2.52 7 7 0 01-1.32 2.3 7.06 7.06 0 01.84-2.52 7.23 7.23 0 011.32-2.3zm6.94 7a15.08 15.08 0 01-2.9.44 15.36 15.36 0 01-2.92.36 6.07 6.07 0 012.85-.88 6 6 0 012.97.08zm-38.08-8.16a7 7 0 01-.83-2.52 6.89 6.89 0 01-.32-2.64 7 7 0 01.83 2.52 6.89 6.89 0 01.32 2.64zm6.36-14.62c.07.12-.64.6-1.67.74s-1.85-.12-1.82-.26.81-.12 1.75-.25 1.68-.37 1.74-.23zM140 337.61a7.41 7.41 0 012.58-1.08 8 8 0 012.73-.59 7.52 7.52 0 01-2.58 1.08 7.92 7.92 0 01-2.73.59zm-4.22 10.63a8 8 0 01-.51-2.8 7.67 7.67 0 010-2.84 8.08 8.08 0 01.51 2.8 7.92 7.92 0 010 2.84zm3.22 12.32a11.12 11.12 0 011.43-3.11 11.86 11.86 0 011.89-2.87 11.11 11.11 0 01-1.43 3.12 11.67 11.67 0 01-1.89 2.86zm-6.41 3.64a9.18 9.18 0 01-1.1-2.82 8.93 8.93 0 01-.6-3 9.31 9.31 0 011.1 2.83 8.9 8.9 0 01.6 2.99zm13.35 3.97a11.66 11.66 0 01-2.3 1.38 12.21 12.21 0 01-2.35 1.28c-.09-.11.78-1 2.09-1.73a5.23 5.23 0 012.56-.93zm9.48-68.09a7.62 7.62 0 010-2.76 7.19 7.19 0 01.5-2.72 7.62 7.62 0 010 2.76 7.32 7.32 0 01-.5 2.72zM168.53 284c-.14 0-.4-.45-.58-1.09s-.23-1.2-.09-1.24.4.45.59 1.09.22 1.17.08 1.24zm10.3 2.29a4 4 0 01-2.45-.42c-1.29-.52-2.13-1.29-2-1.4a12.57 12.57 0 012.24.92 11.44 11.44 0 012.21.9zm8.47 2.17c.09.12-.54.7-1.5 1.08s-1.81.37-1.83.23.75-.36 1.64-.72 1.61-.71 1.69-.59zm9.63 10.46c-.09-.13.59-.71 1.3-1.52s1.22-1.54 1.35-1.47-.19.95-1 1.82-1.58 1.25-1.65 1.17zm7.45 10.48a10.22 10.22 0 01-2.42-2.07 10.05 10.05 0 01-2.05-2.43 9.63 9.63 0 012.42 2.06 9.28 9.28 0 012.05 2.44zm5.51-10.64a8.12 8.12 0 01-1.29 2.53 8.24 8.24 0 01-1.74 2.26 7.91 7.91 0 011.3-2.54 7.78 7.78 0 011.73-2.25zm8.79 9.96c-.13.07-.61-.54-1.07-1.36s-.74-1.55-.62-1.62.6.54 1.07 1.36.74 1.55.62 1.62zm1.32-11.95c-.12.08-.59-.41-1.05-1.1s-.74-1.31-.62-1.39.59.41 1 1.1.79 1.31.67 1.39zm8.9 8.54c.1.1-.46.84-1.26 1.64s-1.53 1.38-1.63 1.28.46-.84 1.26-1.64 1.53-1.38 1.63-1.28zm-.09-4.76c0 .14-.78.36-1.79.5s-1.84.13-1.86 0 .78-.37 1.79-.5 1.84-.15 1.86 0zm4.51-4.97c-.12.08-.84-.79-1.62-1.93a6.54 6.54 0 01-1.2-2.23c.12-.08.85.79 1.63 1.93a6.2 6.2 0 011.19 2.23zm4.3 6.66c.11.1-.33.76-1 1.49s-1.26 1.23-1.37 1.13.33-.76 1-1.48 1.26-1.24 1.37-1.14zm4.81-9.14c-.12.09-.71-.61-1.61-1.23s-1.74-.95-1.71-1.09 1 0 2 .66 1.44 1.56 1.32 1.66zm8.1-.52c.12.08-.31.86-.95 1.73s-1.25 1.51-1.37 1.43.31-.87.95-1.74 1.26-1.51 1.37-1.42zm.77-4.32a7.12 7.12 0 01-1.22-2.37 6.76 6.76 0 01-.73-2.56 7.12 7.12 0 011.22 2.37 7.23 7.23 0 01.73 2.56zm6.27-6.26c-.12-.08.38-1 1.12-2s1.43-1.75 1.55-1.67-.39 1-1.13 2-1.43 1.75-1.54 1.67zm6.8 2.58a231.88 231.88 0 00-4.33-.1 3.24 3.24 0 012.18-.49 3.21 3.21 0 012.15.59z" fill="#fafafa"/></svg>